<svg width="65" height="65" viewBox="0 0 65 65" fill="none" xmlns="http://www.w3.org/2000/svg">
<rect width="65" height="65" fill="#E5E5E5"/>
<g clip-path="url(#clip0)">
<rect width="1920" height="9572" transform="translate(-376 -2735)" fill="#FFFEFC"/>
<g filter="url(#filter0_f)">
<ellipse cx="-510.5" cy="553.5" rx="389.5" ry="359.5" fill="#F5CE80" fill-opacity="0.28"/>
</g>
<path d="M-378 -778.987C-202.854 -961.454 -135.925 -961.999 -4.33676 -962C119.32 -962 312.309 -868.024 433.546 -745.608C721.794 -454.557 1127.57 -343.736 1295.81 -343.736C1400.97 -343.736 1478.91 -377.123 1542 -474.808V296.785C1450.45 326.461 1342.82 367.267 1102.82 306.677C778.701 224.849 620.365 -23.2403 433.546 -86.5386C360.557 -111.269 53.7526 -112.506 -104.598 -56.862C-173.876 -49.855 -325.546 -48.9482 -378 -101.377V-778.987Z" fill="url(#paint0_linear)"/>
<g filter="url(#filter1_d)">
<rect x="-80" y="-134" width="400" height="462" rx="20" fill="#39379F"/>
</g>
<path d="M45 52.3668C45 70.8575 30.4962 80 11.8019 80C-6.89243 80 -24 65.6542 -24 47.1635C-24 28.6727 -14.8868 22.7498 -6.42453 22.7495C1.67024 22.7495 8.77587 30.3737 15.7075 33.695C24.7841 38.0441 45 41.8827 45 52.3668Z" fill="#F09642"/>
<g clip-path="url(#clip1)">
<path d="M63.8017 25.4571L57.0918 24.7204C56.6097 23.1562 55.9748 21.6422 55.196 20.1998L59.4129 14.9867C59.8433 14.4539 59.8001 13.6863 59.3127 13.204L51.6509 5.6336C51.1632 5.15154 50.3872 5.10884 49.8485 5.53453L44.5779 9.7041C43.1196 8.93385 41.5889 8.30575 40.0076 7.82896L39.2627 1.19217C39.1868 0.513459 38.607 0 37.9168 0H27.0835C26.3932 0 25.8133 0.513459 25.7374 1.19204L24.9925 7.82218C23.4112 8.29909 21.8805 8.92707 20.4222 9.69732L15.1518 5.52637C14.6131 5.10068 13.837 5.14338 13.3494 5.62544L5.68751 13.204C5.20052 13.6867 5.15799 14.4543 5.58861 14.9867L9.81096 20.1998C9.03222 21.6422 8.3972 23.1562 7.91516 24.7204L1.2053 25.4571C0.519112 25.5322 0 26.1056 0 26.7884V37.5037C0 38.1864 0.519112 38.76 1.20517 38.8351L7.90831 39.5718C8.39048 41.136 9.02537 42.65 9.8041 44.0924L5.58722 49.3055C5.15685 49.8383 5.20001 50.6059 5.68738 51.0882L13.3493 58.6666C13.8391 59.1463 14.615 59.1855 15.1516 58.7577L20.4221 54.5881C21.8804 55.3584 23.4111 55.9865 24.9924 56.4632L25.7373 63.1C25.8132 63.7786 26.393 64.2922 27.0833 64.2921H37.9167C38.6046 64.2924 39.1835 63.7826 39.2627 63.1067L40.0076 56.4699C41.5889 55.993 43.1196 55.365 44.5779 54.5948L49.8484 58.7657C50.387 59.1914 51.1631 59.1487 51.6507 58.6666L59.3045 51.0882C59.7919 50.6059 59.835 49.8383 59.4047 49.3055L55.1892 44.0924C55.9679 42.65 56.6029 41.136 57.085 39.5718L63.7948 38.8351C64.4809 38.76 65.0001 38.1866 65 37.5037V26.7884C65.0005 26.1079 64.4851 25.5353 63.8017 25.4571ZM62.2921 36.305L55.8907 37.0096C55.3354 37.0706 54.8751 37.4626 54.7315 37.9967C54.21 39.9437 53.4279 41.813 52.4064 43.5553C52.1257 44.0335 52.1709 44.6331 52.5201 45.0648L56.546 50.0421L50.5999 55.9234L45.5679 51.9413C45.1314 51.5959 44.5252 51.5512 44.0418 51.8288C42.2803 52.8393 40.3903 53.6127 38.4219 54.1286C37.882 54.2705 37.4856 54.726 37.424 55.2752L36.7116 61.6134H28.3022L27.5832 55.2752C27.5215 54.726 27.1251 54.2707 26.5852 54.1286C24.6168 53.6128 22.7268 52.8393 20.9653 51.8288C20.4819 51.5512 19.8757 51.5959 19.4392 51.9413L14.4072 55.9234L8.46106 50.0421L12.487 45.0715C12.8363 44.6398 12.8815 44.0402 12.6008 43.562C11.5792 41.8197 10.7973 39.9503 10.2756 38.0033C10.1321 37.4693 9.67169 37.0773 9.11639 37.0162L2.70842 36.3117V27.9939L9.11639 27.2826C9.67169 27.2216 10.132 26.8296 10.2756 26.2955C10.7971 24.3485 11.5792 22.4792 12.6008 20.7369C12.8815 20.2587 12.8363 19.6591 12.487 19.2274L8.46106 14.2501L14.4072 8.36879L19.4461 12.3509C19.8826 12.6963 20.4888 12.741 20.9722 12.4634C22.7337 11.4529 24.6236 10.6795 26.592 10.1636C27.132 10.0217 27.5283 9.56623 27.59 9.01698L28.3024 2.6788H36.705L37.4174 9.01698C37.479 9.56623 37.8754 10.0215 38.4153 10.1636C40.3837 10.6794 42.2737 11.4529 44.0352 12.4634C44.5186 12.741 45.1248 12.6963 45.5613 12.3509L50.5933 8.36879L56.5394 14.2569L52.5135 19.2342C52.1643 19.6659 52.1191 20.2655 52.3997 20.7437C53.4213 22.4859 54.2033 24.3553 54.7249 26.3023C54.8684 26.8363 55.3288 27.2284 55.8841 27.2894L62.2921 27.994V36.305Z" fill="#FFFEFC"/>
<path d="M62.2921 36.305L55.8907 37.0096C55.3354 37.0706 54.8751 37.4626 54.7315 37.9967C54.21 39.9437 53.4279 41.813 52.4064 43.5553C52.1257 44.0335 52.1709 44.6331 52.5201 45.0648L56.546 50.0421L50.5999 55.9234L45.5679 51.9413C45.1314 51.5959 44.5252 51.5512 44.0418 51.8288C42.2803 52.8393 40.3903 53.6127 38.4219 54.1286C37.882 54.2705 37.4856 54.726 37.424 55.2752L36.7116 61.6134H28.3022L27.5832 55.2752C27.5215 54.726 27.1251 54.2707 26.5852 54.1286C24.6168 53.6128 22.7268 52.8393 20.9653 51.8288C20.4819 51.5512 19.8757 51.5959 19.4392 51.9413L14.4072 55.9234L8.46106 50.0421L12.487 45.0715C12.8363 44.6398 12.8815 44.0402 12.6008 43.562C11.5792 41.8197 10.7973 39.9503 10.2756 38.0033C10.1321 37.4693 9.67169 37.0773 9.11639 37.0162L2.70842 36.3117V27.9939L9.11639 27.2826C9.67169 27.2216 10.132 26.8296 10.2756 26.2955C10.7971 24.3485 11.5792 22.4792 12.6008 20.7369C12.8815 20.2587 12.8363 19.6591 12.487 19.2274L8.46106 14.2501L14.4072 8.36879L19.4461 12.3509C19.8826 12.6963 20.4888 12.741 20.9722 12.4634C22.7337 11.4529 24.6236 10.6795 26.592 10.1636C27.132 10.0217 27.5283 9.56623 27.59 9.01698L28.3024 2.6788H36.705L37.4174 9.01698C37.479 9.56623 37.8754 10.0215 38.4153 10.1636C40.3837 10.6794 42.2737 11.4529 44.0352 12.4634C44.5186 12.741 45.1248 12.6963 45.5613 12.3509L50.5933 8.36879L56.5394 14.2569L52.5135 19.2342C52.1643 19.6659 52.1191 20.2655 52.3997 20.7437C53.4213 22.4859 54.2033 24.3553 54.7249 26.3023C54.8684 26.8363 55.3288 27.2284 55.8841 27.2894L62.2921 27.994V36.305Z" fill="#FFFEFC"/>
<path d="M49.0422 22.9899C43.9295 13.952 32.3779 10.7247 23.2406 15.7816C14.1032 20.8385 10.8404 32.2645 15.9531 41.3023C16.0136 41.4092 16.0886 41.5074 16.1762 41.5942C16.7046 42.1177 17.5621 42.1183 18.0913 41.5957L26.9381 32.8453L30.0634 36.968C30.1019 37.0186 30.1438 37.0666 30.1891 37.1113C30.718 37.6344 31.5753 37.6344 32.1042 37.1113L40.6259 28.6823V33.4856H43.3342V25.449H43.334C43.334 24.7094 42.7279 24.1098 41.9801 24.1096H33.8551V26.7884H38.7112L31.2931 34.1257L28.1676 30.003C27.9328 29.6911 27.5725 29.4955 27.1804 29.4672C26.7888 29.4437 26.4056 29.5865 26.1268 29.8596L17.517 38.3744C15.1889 32.8939 16.1157 26.5892 19.9254 21.9914C25.6033 15.1389 35.8224 14.1365 42.7505 19.7526C49.6785 25.3687 50.6919 35.4765 45.014 42.3291C44.4906 42.9606 43.9286 43.5421 43.3344 44.0737V36.1644H40.6259V46.0303C39.7581 46.5295 38.8511 46.9441 37.9176 47.2723V38.8432H35.2093V47.972C34.315 48.1232 33.4088 48.2006 32.501 48.2027V42.8614H29.7927V47.9851C28.8774 47.8345 27.9712 47.605 27.0845 47.2963V40.1826H24.3759V46.0636C23.619 45.6313 22.887 45.1337 22.1889 44.5679L20.4678 46.6373C23.8605 49.3903 28.1126 50.8959 32.5009 50.8981C35.7411 50.8976 38.927 50.0756 41.7547 48.5106C50.892 43.4537 54.1548 32.0277 49.0422 22.9899Z" fill="#39379F"/>
</g>
<path d="M-71 -134H297C308.046 -134 317 -125.046 317 -114V214L181 99L-71 -134Z" fill="url(#paint1_linear)" fill-opacity="0.06"/>
</g>
<defs>
<filter id="filter0_f" x="-1100" y="-6" width="1179" height="1119" filterUnits="userSpaceOnUse" color-interpolation-filters="sRGB">
<feFlood flood-opacity="0" result="BackgroundImageFix"/>
<feBlend mode="normal" in="SourceGraphic" in2="BackgroundImageFix" result="shape"/>
<feGaussianBlur stdDeviation="100" result="effect1_foregroundBlur"/>
</filter>
<filter id="filter1_d" x="-100" y="-160" width="460" height="522" filterUnits="userSpaceOnUse" color-interpolation-filters="sRGB">
<feFlood flood-opacity="0" result="BackgroundImageFix"/>
<feColorMatrix in="SourceAlpha" type="matrix" values="0 0 0 0 0 0 0 0 0 0 0 0 0 0 0 0 0 0 127 0"/>
<feOffset dx="10" dy="4"/>
<feGaussianBlur stdDeviation="15"/>
<feColorMatrix type="matrix" values="0 0 0 0 0.675 0 0 0 0 0.675 0 0 0 0 0.675 0 0 0 0.25 0"/>
<feBlend mode="normal" in2="BackgroundImageFix" result="effect1_dropShadow"/>
<feBlend mode="normal" in="SourceGraphic" in2="effect1_dropShadow" result="shape"/>
</filter>
<linearGradient id="paint0_linear" x1="582" y1="-962" x2="582" y2="338" gradientUnits="userSpaceOnUse">
<stop stop-color="#FEFFF7"/>
<stop offset="1" stop-color="#FFF9EF"/>
</linearGradient>
<linearGradient id="paint1_linear" x1="190" y1="-134" x2="317" y2="188" gradientUnits="userSpaceOnUse">
<stop stop-color="white"/>
<stop offset="1" stop-color="white" stop-opacity="0"/>
</linearGradient>
<clipPath id="clip0">
<rect width="1920" height="9572" fill="white" transform="translate(-376 -2735)"/>
</clipPath>
<clipPath id="clip1">
<rect width="65" height="64.2921" fill="white"/>
</clipPath>
</defs>
</svg>
