<svg width="52" height="42" viewBox="0 0 52 42" fill="none" xmlns="http://www.w3.org/2000/svg">
<path d="M51.7201 16.5561L42.5885 3.56172C41.9794 2.69495 40.6938 2.69679 40.086 3.56172L36.6107 8.50723C32.6761 3.42336 26.707 0.561523 20.4382 0.561523C9.16862 0.561523 0 9.73014 0 20.9999C0 32.2696 9.16862 41.4382 20.4383 41.4382C25.6898 41.4382 30.6485 39.4365 34.3916 35.934L34.2971 37.4644C34.2427 38.3445 34.9427 39.088 35.8235 39.088H46.8511C47.7329 39.088 48.4318 38.3435 48.3775 37.4644L47.2348 18.9647H50.469C51.7067 18.9647 52.4305 17.567 51.7201 16.5561ZM20.4383 38.3795C10.8552 38.3795 3.05872 30.583 3.05872 20.9999C3.05872 11.4168 10.8552 3.62024 20.4383 3.62024C26.2248 3.62024 31.5055 6.41652 34.7555 11.1472L30.9545 16.5561C30.2428 17.5689 30.9703 18.9648 32.2057 18.9648H35.4399L34.7008 30.929C31.4455 35.6012 26.1446 38.3795 20.4383 38.3795ZM45.608 15.906C44.7261 15.906 44.0273 16.6505 44.0815 17.5296L45.2244 36.0293H37.4504L38.5933 17.5296C38.6476 16.6495 37.9477 15.906 37.0668 15.906H35.1499C36.0233 14.6631 40.4621 8.34654 41.3375 7.10098L47.525 15.906H45.608Z" fill="url(#paint0_linear)"/>
<defs>
<linearGradient id="paint0_linear" x1="-6.5" y1="-5.83566" x2="44.9973" y2="69.7784" gradientUnits="userSpaceOnUse">
<stop stop-color="#1C2D5A"/>
<stop offset="1" stop-color="#4FC3DD" stop-opacity="0.96"/>
</linearGradient>
</defs>
</svg>
