<svg width="52" height="52" viewBox="0 0 52 52" fill="none" xmlns="http://www.w3.org/2000/svg">
<path d="M50.8512 0.851802C50.6925 0.420167 50.3138 0.102992 49.8519 0.0188992L49.6326 0.000719748C49.2495 0.000719748 48.889 0.16535 48.642 0.45226C47.8005 1.43507 45.471 1.84588 43.2107 2.24451C40.0214 2.80868 36.0392 3.56267 33.6679 6.32991C32.3974 3.49676 29.755 1.20534 27.4297 0.122085C27.0111 -0.0738261 26.5207 -0.031272 26.1401 0.230451C25.7666 0.492174 25.5482 0.936808 25.5846 1.40043C25.6479 2.21333 24.5836 3.51849 23.5549 4.78039C22.2775 6.34473 20.7513 8.25571 20.3768 10.4214C9.08791 10.6502 0.00195312 19.8558 0.00195312 31.2003C0.00195312 42.6878 9.31419 52 20.8017 52C32.2891 52 41.6014 42.6878 41.6014 31.2003C41.6014 27.2596 40.4851 23.5885 38.582 20.4477C39.4451 20.6722 40.356 20.7978 41.311 20.7978C44.9605 20.7978 47.7668 19.4372 49.6491 16.7479C52.9979 11.9701 52.1641 4.4623 50.8512 0.851802ZM25.569 6.42263C26.4297 5.36792 27.2625 4.34875 27.7496 3.29404C29.6319 4.5862 31.3834 6.63327 31.7656 8.80079C32.016 10.2221 31.6235 11.5879 30.6572 12.8827C30.0773 12.5698 29.4811 12.2821 28.8701 12.0247C29.0928 10.9379 29.2358 9.72723 29.0624 8.26089C28.9784 7.54762 28.3318 7.03799 27.6187 7.123C26.9071 7.21054 26.3967 7.85617 26.4808 8.56689C26.596 9.54096 26.5232 10.3878 26.3837 11.1816C25.2978 10.8791 24.1832 10.6477 23.0332 10.5247C23.3426 9.28696 24.2856 7.99734 25.569 6.42263ZM39.0014 31.2003C39.0014 41.2352 30.8366 49.4 20.8017 49.4C10.7667 49.4 2.60192 41.2352 2.60192 31.2003C2.60192 21.1653 10.7667 13.0005 20.8017 13.0005C30.8366 13.0005 39.0014 21.1653 39.0014 31.2003ZM47.5206 15.2582C46.1547 17.2082 44.0661 18.1988 41.311 18.1988C39.348 18.1988 37.6078 17.5999 36.3208 16.4951C37.3019 15.7541 38.419 15.1465 39.6496 14.6924L39.9235 14.5858C42.1638 13.8041 44.2585 13.824 44.4223 13.8622L44.7014 13.8926C45.3133 13.8926 45.8351 13.4766 45.9711 12.8768C46.0993 12.2979 45.8185 11.7216 45.3201 11.4503C46.5404 10.3488 47.505 9.06871 48.2017 7.62664C48.3516 7.31464 48.3717 6.96101 48.2572 6.63347C48.1428 6.30584 47.9071 6.04157 47.5942 5.89248C46.9737 5.59785 46.1599 5.87684 45.8591 6.49657C44.8235 8.64245 43.0945 10.2847 40.5986 11.4859C40.7519 10.4017 40.5829 9.32525 40.0933 8.34508C39.7839 7.72018 38.9571 7.46373 38.3531 7.761C38.0411 7.91609 37.8088 8.18218 37.6979 8.51235C37.5861 8.84517 37.613 9.19789 37.7681 9.50552C38.5498 11.0724 37.5627 12.5016 37.1804 12.9661C36.3251 13.3925 35.5191 13.89 34.7737 14.4515C34.3308 13.4869 34.1618 12.4227 34.2849 11.3238C34.8344 6.36738 39.1209 5.61075 43.663 4.80822C45.6026 4.46504 47.4537 4.14005 48.901 3.42678C49.7747 7.15326 49.7037 12.14 47.5206 15.2582Z" fill="url(#paint0_linear)"/>
<defs>
<linearGradient id="paint0_linear" x1="-6.49793" y1="-8.13798" x2="63.1874" y2="72.2932" gradientUnits="userSpaceOnUse">
<stop stop-color="#1C2D5A"/>
<stop offset="1" stop-color="#4FC3DD" stop-opacity="0.96"/>
</linearGradient>
</defs>
</svg>
