<svg width="11" height="13" viewBox="0 0 11 13" fill="none" xmlns="http://www.w3.org/2000/svg">
<path d="M10.4877 7.92831C10.2971 7.62241 10.0023 7.41868 9.63927 7.33814C9.53527 7.31559 9.43391 7.30524 9.33245 7.30524L8.88264 7.35896L8.672 7.4786C8.33136 7.67451 8.10346 8.00377 8.03765 8.37996C7.88775 9.06549 7.63374 9.53785 7.27066 9.81166C6.94831 10.0526 6.49585 10.1748 5.92477 10.1748C5.16296 10.1748 4.60661 9.93648 4.17071 9.42349C3.66545 8.82896 3.4089 7.92506 3.4089 6.73426C3.4089 5.57382 3.66799 4.67511 4.16807 4.07366C4.62479 3.54331 5.18378 3.29459 5.92477 3.29459C6.50631 3.29459 6.95785 3.41423 7.30621 3.65767C7.66411 3.90903 7.88775 4.28948 7.9891 4.80257C8.0801 5.32083 8.36265 5.60246 8.555 5.72901C8.77082 5.88155 9.02208 5.96301 9.28127 5.96301L9.57336 5.9301C9.90353 5.85647 10.193 5.66573 10.3958 5.37629C10.5917 5.0842 10.6671 4.74447 10.6116 4.35793C10.4157 3.31185 9.94862 2.45651 9.21027 1.80915C8.37483 1.09589 7.26812 0.735352 5.92477 0.735352C4.38643 0.735352 3.12463 1.31171 2.17737 2.44442C1.24311 3.54158 0.770752 4.98629 0.770752 6.73528C0.770752 8.52316 1.24565 9.97741 2.17473 11.0495C3.11935 12.1692 4.38125 12.7351 5.92477 12.7351C7.2733 12.7351 8.38265 12.3442 9.22063 11.5747C9.92171 10.9403 10.4036 10.0788 10.6602 9.01024C10.7745 8.49939 10.6221 8.12849 10.4877 7.92831Z" fill="url(#paint0_linear)"/>
<defs>
<linearGradient id="paint0_linear" x1="-0.470449" y1="-1.1426" x2="15.759" y2="14.3582" gradientUnits="userSpaceOnUse">
<stop stop-color="#1C2D5A"/>
<stop offset="1" stop-color="#4FC3DD" stop-opacity="0.96"/>
</linearGradient>
</defs>
</svg>
