<svg width="567" height="180" viewBox="0 0 567 180" fill="none" xmlns="http://www.w3.org/2000/svg">
<path d="M12.544 4.8L7.728 13.104L2.864 4.8H1.888V16H3.024V7.088L7.424 14.576H7.984L12.384 7.04V16H13.52V4.8H12.544ZM20.5583 10.56L18.1583 10.528V7.584H17.0223V16L20.3503 16.016C22.5743 16.048 23.8063 15.04 23.8063 13.248C23.8063 11.52 22.6703 10.576 20.5583 10.56ZM25.2143 16H26.3503V7.584H25.2143V16ZM20.2863 15.152L18.1583 15.12V11.376L20.2863 11.408C21.8543 11.424 22.6543 12 22.6543 13.248C22.6543 14.512 21.8383 15.168 20.2863 15.152ZM33.7723 7.584V16H34.9083V8.592H40.1883V16H41.3243V7.584H33.7723ZM48.0255 16.08C50.4895 16.08 52.2975 14.288 52.2975 11.792C52.2975 9.296 50.4895 7.52 48.0255 7.52C45.5615 7.52 43.7375 9.296 43.7375 11.792C43.7375 14.288 45.5615 16.08 48.0255 16.08ZM48.0255 15.072C46.2335 15.072 44.8895 13.76 44.8895 11.792C44.8895 9.824 46.2335 8.512 48.0255 8.512C49.8175 8.512 51.1455 9.824 51.1455 11.792C51.1455 13.76 49.8175 15.072 48.0255 15.072ZM61.5745 15.008V7.584H55.3665L55.2545 10.4C55.1425 12.672 54.9345 14.928 53.6865 15.008H53.2065V18.032H54.2785V16H61.8145V18.032H62.8865V15.008H61.5745ZM56.2945 10.464L56.3905 8.592H60.4385V15.008H55.1905C56.0385 14.368 56.2145 12.384 56.2945 10.464ZM71.0524 7.584H65.1004V16H66.2364V8.592H71.0524V7.584ZM75.7755 16.08C78.2395 16.08 80.0475 14.288 80.0475 11.792C80.0475 9.296 78.2395 7.52 75.7755 7.52C73.3115 7.52 71.4875 9.296 71.4875 11.792C71.4875 14.288 73.3115 16.08 75.7755 16.08ZM75.7755 15.072C73.9835 15.072 72.6395 13.76 72.6395 11.792C72.6395 9.824 73.9835 8.512 75.7755 8.512C77.5675 8.512 78.8955 9.824 78.8955 11.792C78.8955 13.76 77.5675 15.072 75.7755 15.072ZM88.0829 7.584H80.5789V8.592H83.7629V16H84.8989V8.592H88.0829V7.584ZM92.8068 16.08C95.2708 16.08 97.0788 14.288 97.0788 11.792C97.0788 9.296 95.2708 7.52 92.8068 7.52C90.3428 7.52 88.5188 9.296 88.5188 11.792C88.5188 14.288 90.3428 16.08 92.8068 16.08ZM92.8068 15.072C91.0148 15.072 89.6708 13.76 89.6708 11.792C89.6708 9.824 91.0148 8.512 92.8068 8.512C94.5988 8.512 95.9268 9.824 95.9268 11.792C95.9268 13.76 94.5988 15.072 92.8068 15.072ZM104.867 11.648C105.747 11.328 106.291 10.688 106.291 9.744C106.291 8.352 105.123 7.584 103.219 7.584H99.5066V16H103.331C105.523 16 106.579 15.168 106.579 13.712C106.579 12.608 106.035 11.92 104.867 11.648ZM100.611 8.48H103.139C104.435 8.48 105.155 8.944 105.155 9.888C105.155 10.832 104.435 11.328 103.139 11.328H100.611V8.48ZM103.283 15.104H100.611V12.176H103.395C104.819 12.176 105.459 12.64 105.459 13.648C105.459 14.656 104.707 15.104 103.283 15.104ZM109.241 16H110.265L115.865 9.312V16H117.001V7.584H115.993L110.377 14.272V7.584H109.241V16ZM120.977 7.584L120.833 10.592C120.721 12.816 120.593 15.072 119.201 15.072C119.089 15.072 118.945 15.04 118.801 15.008L118.721 15.984C119.025 16.064 119.281 16.112 119.537 16.112C121.345 16.112 121.713 13.616 121.857 10.672L121.969 8.592H126.001V16H127.137V7.584H120.977ZM130.366 16H131.39L136.99 9.312V16H138.126V7.584H137.118L131.502 14.272V7.584H130.366V16ZM145.441 7.52V16H146.977V8.864H151.761V16H153.297V7.52H145.441ZM160.765 7.44C159.517 7.44 158.429 7.92 157.741 8.864V7.52H156.269V19.104H157.805V14.72C158.509 15.632 159.565 16.096 160.765 16.096C163.245 16.096 165.053 14.368 165.053 11.76C165.053 9.168 163.245 7.44 160.765 7.44ZM160.637 14.752C159.021 14.752 157.789 13.568 157.789 11.76C157.789 9.968 159.021 8.784 160.637 8.784C162.269 8.784 163.501 9.968 163.501 11.76C163.501 13.568 162.269 14.752 160.637 14.752ZM170.231 7.44C168.871 7.44 167.607 7.824 166.727 8.528L167.367 9.68C168.023 9.12 169.047 8.768 170.055 8.768C171.575 8.768 172.327 9.52 172.327 10.816V11.12H169.895C167.367 11.12 166.487 12.24 166.487 13.6C166.487 15.072 167.703 16.096 169.623 16.096C170.951 16.096 171.895 15.648 172.407 14.88V16H173.863V10.88C173.863 8.56 172.551 7.44 170.231 7.44ZM169.879 14.912C168.711 14.912 168.007 14.384 168.007 13.536C168.007 12.816 168.439 12.224 169.959 12.224H172.327V13.408C171.943 14.384 171.031 14.912 169.879 14.912ZM182.773 16H184.581L181.141 11.6L184.357 7.52H182.709L179.957 11.104H178.165V7.52H176.629V16H178.165V12.416H179.925L182.773 16ZM192.371 7.52H184.627V8.864H187.731V16H189.266V8.864H192.371V7.52ZM193.941 16H195.349L200.533 9.824V16H202.069V7.52H200.677L195.477 13.696V7.52H193.941V16ZM210.283 7.52V11.392C209.467 11.744 208.635 11.952 207.867 11.952C206.571 11.952 205.771 11.376 205.771 10.176V7.52H204.235V10.272C204.235 12.288 205.483 13.216 207.547 13.216C208.491 13.216 209.419 12.976 210.283 12.576V16H211.819V7.52H210.283ZM222.465 11.808C222.465 9.2 220.721 7.44 218.273 7.44C215.825 7.44 214.017 9.248 214.017 11.76C214.017 14.288 215.841 16.096 218.577 16.096C219.985 16.096 221.153 15.616 221.921 14.72L221.073 13.728C220.449 14.416 219.617 14.752 218.625 14.752C216.945 14.752 215.745 13.76 215.553 12.272H222.433C222.449 12.128 222.465 11.936 222.465 11.808ZM218.273 8.736C219.761 8.736 220.833 9.744 220.993 11.168H215.553C215.713 9.728 216.801 8.736 218.273 8.736ZM228.543 16.096C230.063 16.096 231.327 15.456 231.999 14.272L230.831 13.536C230.287 14.368 229.455 14.752 228.527 14.752C226.863 14.752 225.615 13.6 225.615 11.76C225.615 9.952 226.863 8.784 228.527 8.784C229.455 8.784 230.287 9.168 230.831 10L231.999 9.248C231.327 8.064 230.063 7.44 228.543 7.44C225.935 7.44 224.063 9.232 224.063 11.76C224.063 14.288 225.935 16.096 228.543 16.096ZM240.132 16H241.94L238.5 11.6L241.716 7.52H240.068L237.316 11.104H235.524V7.52H233.988V16H235.524V12.416H237.284L240.132 16ZM243.551 16H244.959L250.142 9.824V16H251.679V7.52H250.286L245.087 13.696V7.52H243.551V16ZM258.628 6.416C260.18 6.416 261.124 5.648 261.156 4.208H260.084C260.068 5.008 259.492 5.52 258.612 5.52C257.748 5.52 257.172 5.008 257.156 4.208H256.116C256.132 5.648 257.076 6.416 258.628 6.416ZM254.66 16H256.068L261.252 9.824V16H262.788V7.52H261.396L256.196 13.696V7.52H254.66V16ZM273.698 16.096C276.242 16.096 278.098 14.288 278.098 11.76C278.098 9.232 276.242 7.44 273.698 7.44C271.154 7.44 269.282 9.232 269.282 11.76C269.282 14.288 271.154 16.096 273.698 16.096ZM273.698 14.752C272.066 14.752 270.834 13.568 270.834 11.76C270.834 9.952 272.066 8.784 273.698 8.784C275.33 8.784 276.546 9.952 276.546 11.76C276.546 13.568 275.33 14.752 273.698 14.752ZM280.316 16H281.852V12.448H286.684V16H288.22V7.52H286.684V11.12H281.852V7.52H280.316V16ZM291.975 7.52L291.831 10.656C291.719 12.656 291.655 14.736 290.279 14.736C290.167 14.736 290.039 14.72 289.895 14.688L289.799 15.984C290.151 16.08 290.455 16.128 290.743 16.128C292.663 16.128 293.063 13.744 293.207 10.752L293.303 8.864H296.951V16H298.487V7.52H291.975ZM304.481 7.44C303.121 7.44 301.857 7.824 300.977 8.528L301.617 9.68C302.273 9.12 303.297 8.768 304.305 8.768C305.825 8.768 306.577 9.52 306.577 10.816V11.12H304.145C301.617 11.12 300.737 12.24 300.737 13.6C300.737 15.072 301.953 16.096 303.873 16.096C305.201 16.096 306.145 15.648 306.657 14.88V16H308.113V10.88C308.113 8.56 306.801 7.44 304.481 7.44ZM304.129 14.912C302.961 14.912 302.257 14.384 302.257 13.536C302.257 12.816 302.689 12.224 304.209 12.224H306.577V13.408C306.193 14.384 305.281 14.912 304.129 14.912ZM314.847 6.416C316.399 6.416 317.343 5.648 317.375 4.208H316.303C316.287 5.008 315.711 5.52 314.831 5.52C313.967 5.52 313.391 5.008 313.375 4.208H312.335C312.351 5.648 313.295 6.416 314.847 6.416ZM310.879 16H312.287L317.471 9.824V16H319.007V7.52H317.615L312.415 13.696V7.52H310.879V16ZM321.988 16H323.524V12.448H328.356V16H329.892V7.52H328.356V11.12H323.524V7.52H321.988V16ZM332.303 12.272H336.607V10.944H332.303V12.272ZM345.148 16H346.956L343.516 11.6L346.732 7.52H345.084L342.332 11.104H340.54V7.52H339.004V16H340.54V12.416H342.3L345.148 16ZM354.146 7.52L351.218 14.304L348.258 7.52H346.658L350.402 15.984L350.13 16.576C349.714 17.552 349.25 17.888 348.514 17.888C347.938 17.888 347.41 17.664 346.994 17.264L346.338 18.416C346.866 18.928 347.698 19.2 348.514 19.2C349.81 19.2 350.786 18.64 351.538 16.848L355.65 7.52H354.146ZM361.718 7.44C360.47 7.44 359.382 7.92 358.694 8.864V7.52H357.222V19.104H358.758V14.72C359.462 15.632 360.518 16.096 361.718 16.096C364.198 16.096 366.006 14.368 366.006 11.76C366.006 9.168 364.198 7.44 361.718 7.44ZM361.59 14.752C359.974 14.752 358.742 13.568 358.742 11.76C358.742 9.968 359.974 8.784 361.59 8.784C363.222 8.784 364.454 9.968 364.454 11.76C364.454 13.568 363.222 14.752 361.59 14.752ZM371.934 16.096C373.454 16.096 374.718 15.456 375.39 14.272L374.222 13.536C373.678 14.368 372.846 14.752 371.918 14.752C370.254 14.752 369.006 13.6 369.006 11.76C369.006 9.952 370.254 8.784 371.918 8.784C372.846 8.784 373.678 9.168 374.222 10L375.39 9.248C374.718 8.064 373.454 7.44 371.934 7.44C369.326 7.44 367.454 9.232 367.454 11.76C367.454 14.288 369.326 16.096 371.934 16.096ZM377.603 14.336C377.123 14.336 376.755 14.704 376.755 15.2C376.755 15.616 376.995 15.92 377.331 16.016L376.787 18.336H377.555L378.227 16.128C378.387 15.68 378.451 15.472 378.451 15.2C378.451 14.72 378.099 14.336 377.603 14.336ZM391.037 7.584H385.085V16H386.221V8.592H391.037V7.584ZM399.059 15.008V7.584H392.851L392.739 10.4C392.627 12.672 392.419 14.928 391.171 15.008H390.691V18.032H391.763V16H399.299V18.032H400.371V15.008H399.059ZM393.779 10.464L393.875 8.592H397.923V15.008H392.675C393.523 14.368 393.699 12.384 393.779 10.464ZM409.961 11.792C409.961 9.264 408.249 7.52 405.881 7.52C403.513 7.52 401.769 9.296 401.769 11.792C401.769 14.288 403.561 16.08 406.185 16.08C407.513 16.08 408.681 15.6 409.433 14.704L408.793 13.968C408.153 14.704 407.241 15.072 406.217 15.072C404.377 15.072 403.033 13.904 402.905 12.144H409.945C409.945 12.016 409.961 11.888 409.961 11.792ZM405.881 8.496C407.529 8.496 408.729 9.648 408.873 11.296H402.905C403.049 9.648 404.249 8.496 405.881 8.496ZM416.663 16H417.799V12.288H423.095V16H424.231V7.584H423.095V11.312H417.799V7.584H416.663V16ZM430.356 7.52C429.028 7.52 427.78 7.936 426.932 8.656L427.444 9.504C428.132 8.896 429.156 8.512 430.244 8.512C431.812 8.512 432.628 9.296 432.628 10.736V11.248H429.956C427.54 11.248 426.708 12.336 426.708 13.632C426.708 15.088 427.876 16.08 429.78 16.08C431.172 16.08 432.164 15.552 432.676 14.688V16H433.764V10.784C433.764 8.608 432.532 7.52 430.356 7.52ZM429.956 15.184C428.612 15.184 427.828 14.576 427.828 13.6C427.828 12.736 428.356 12.096 429.988 12.096H432.628V13.472C432.18 14.576 431.236 15.184 429.956 15.184ZM442.82 7.584L439.652 14.736L436.484 7.584H435.3L439.06 15.984L438.692 16.8C438.212 17.856 437.7 18.208 436.948 18.208C436.34 18.208 435.828 17.984 435.412 17.568L434.884 18.416C435.396 18.928 436.148 19.184 436.932 19.184C438.132 19.184 439.028 18.656 439.732 17.008L443.94 7.584H442.82ZM450.926 7.584V11.584C449.982 11.984 449.086 12.208 448.27 12.208C446.862 12.208 445.982 11.568 445.982 10.288V7.584H444.846V10.352C444.846 12.256 446.094 13.136 448.062 13.136C449.006 13.136 449.982 12.912 450.926 12.496V16H452.062V7.584H450.926ZM455.288 16H456.312L461.912 9.312V16H463.048V7.584H462.04L456.424 14.272V7.584H455.288V16ZM474.656 7.584L471.024 13.648L467.456 7.584H466.304V16H467.344V9.328L470.752 14.976H471.264L474.672 9.344V16H475.712V7.584H474.656ZM488.492 11.648C489.372 11.328 489.916 10.688 489.916 9.744C489.916 8.352 488.748 7.584 486.844 7.584H483.132V16H486.956C489.148 16 490.204 15.168 490.204 13.712C490.204 12.608 489.66 11.92 488.492 11.648ZM484.236 8.48H486.764C488.06 8.48 488.78 8.944 488.78 9.888C488.78 10.832 488.06 11.328 486.764 11.328H484.236V8.48ZM486.908 15.104H484.236V12.176H487.02C488.444 12.176 489.084 12.64 489.084 13.648C489.084 14.656 488.332 15.104 486.908 15.104ZM495.762 7.52C494.434 7.52 493.186 7.936 492.338 8.656L492.85 9.504C493.538 8.896 494.562 8.512 495.65 8.512C497.218 8.512 498.034 9.296 498.034 10.736V11.248H495.362C492.946 11.248 492.114 12.336 492.114 13.632C492.114 15.088 493.282 16.08 495.186 16.08C496.578 16.08 497.57 15.552 498.082 14.688V16H499.17V10.784C499.17 8.608 497.938 7.52 495.762 7.52ZM495.362 15.184C494.018 15.184 493.234 14.576 493.234 13.6C493.234 12.736 493.762 12.096 495.394 12.096H498.034V13.472C497.586 14.576 496.642 15.184 495.362 15.184ZM505.714 16.08C507.138 16.08 508.338 15.504 509.01 14.416L508.162 13.84C507.586 14.688 506.69 15.072 505.714 15.072C503.874 15.072 502.53 13.776 502.53 11.792C502.53 9.824 503.874 8.512 505.714 8.512C506.69 8.512 507.586 8.912 508.162 9.76L509.01 9.184C508.338 8.08 507.138 7.52 505.714 7.52C503.202 7.52 501.378 9.28 501.378 11.792C501.378 14.304 503.202 16.08 505.714 16.08ZM511.384 9.264C511.848 9.264 512.248 8.88 512.248 8.384C512.248 7.888 511.848 7.52 511.384 7.52C510.92 7.52 510.536 7.888 510.536 8.384C510.536 8.88 510.92 9.264 511.384 9.264ZM511.384 16.08C511.848 16.08 512.248 15.696 512.248 15.2C512.248 14.704 511.848 14.336 511.384 14.336C510.92 14.336 510.536 14.704 510.536 15.2C510.536 15.696 510.92 16.08 511.384 16.08Z" fill="#1C2D5A"/>
<path d="M33.776 41.776C33.776 43.088 33.344 44.1173 32.48 44.864C31.616 45.6107 30.3947 46.016 28.816 46.08V49.104H27.712V46.096C26.144 46.032 24.928 45.6267 24.064 44.88C23.2107 44.1227 22.784 43.088 22.784 41.776C22.784 40.4747 23.2107 39.456 24.064 38.72C24.928 37.984 26.144 37.584 27.712 37.52V34.128H28.816V37.52C30.3947 37.5947 31.616 38 32.48 38.736C33.344 39.472 33.776 40.4853 33.776 41.776ZM23.904 41.776C23.904 42.7787 24.224 43.5627 24.864 44.128C25.5147 44.6933 26.464 45.0133 27.712 45.088V38.528C26.4747 38.592 25.5307 38.9067 24.88 39.472C24.2293 40.0267 23.904 40.7947 23.904 41.776ZM28.816 45.088C30.064 45.024 31.0133 44.7093 31.664 44.144C32.3253 43.5787 32.656 42.7893 32.656 41.776C32.656 40.784 32.3253 40.0107 31.664 39.456C31.0133 38.9013 30.064 38.592 28.816 38.528V45.088ZM36.1785 37.584H37.3145V44.272L42.9305 37.584H43.9385V46H42.8025V39.312L37.2025 46H36.1785V37.584ZM47.1941 37.584H48.3301V41.312H53.6261V37.584H54.7621V46H53.6261V42.288H48.3301V46H47.1941V37.584ZM60.887 37.52C61.9857 37.52 62.8283 37.7973 63.415 38.352C64.0017 38.896 64.295 39.7067 64.295 40.784V46H63.207V44.688C62.951 45.1253 62.5723 45.4667 62.071 45.712C61.5803 45.9573 60.9937 46.08 60.311 46.08C59.3723 46.08 58.6257 45.856 58.071 45.408C57.5163 44.96 57.239 44.368 57.239 43.632C57.239 42.9173 57.495 42.3413 58.007 41.904C58.5297 41.4667 59.3563 41.248 60.487 41.248H63.159V40.736C63.159 40.0107 62.9563 39.4613 62.551 39.088C62.1457 38.704 61.5537 38.512 60.775 38.512C60.2417 38.512 59.7297 38.6027 59.239 38.784C58.7483 38.9547 58.327 39.1947 57.975 39.504L57.463 38.656C57.8897 38.2933 58.4017 38.016 58.999 37.824C59.5963 37.6213 60.2257 37.52 60.887 37.52ZM60.487 45.184C61.127 45.184 61.6763 45.04 62.135 44.752C62.5937 44.4533 62.935 44.0267 63.159 43.472V42.096H60.519C59.079 42.096 58.359 42.5973 58.359 43.6C58.359 44.0907 58.5457 44.48 58.919 44.768C59.2923 45.0453 59.815 45.184 60.487 45.184ZM67.3191 37.584H68.4551V41.312H73.7511V37.584H74.8871V46H73.7511V42.288H68.4551V46H67.3191V37.584ZM81.636 46.08C80.804 46.08 80.0573 45.8987 79.396 45.536C78.7453 45.1733 78.2333 44.6667 77.86 44.016C77.4867 43.3547 77.3 42.6133 77.3 41.792C77.3 40.9707 77.4867 40.2347 77.86 39.584C78.2333 38.9333 78.7453 38.4267 79.396 38.064C80.0573 37.7013 80.804 37.52 81.636 37.52C82.3613 37.52 83.0067 37.664 83.572 37.952C84.148 38.2293 84.6013 38.64 84.932 39.184L84.084 39.76C83.8067 39.344 83.4547 39.0347 83.028 38.832C82.6013 38.6187 82.1373 38.512 81.636 38.512C81.028 38.512 80.4787 38.6507 79.988 38.928C79.508 39.1947 79.1293 39.5787 78.852 40.08C78.5853 40.5813 78.452 41.152 78.452 41.792C78.452 42.4427 78.5853 43.0187 78.852 43.52C79.1293 44.0107 79.508 44.3947 79.988 44.672C80.4787 44.9387 81.028 45.072 81.636 45.072C82.1373 45.072 82.6013 44.9707 83.028 44.768C83.4547 44.5653 83.8067 44.256 84.084 43.84L84.932 44.416C84.6013 44.96 84.148 45.376 83.572 45.664C82.996 45.9413 82.3507 46.08 81.636 46.08ZM90.463 46.08C89.6523 46.08 88.9217 45.8987 88.271 45.536C87.6203 45.1627 87.1083 44.6507 86.735 44C86.3617 43.3493 86.175 42.6133 86.175 41.792C86.175 40.9707 86.3617 40.2347 86.735 39.584C87.1083 38.9333 87.6203 38.4267 88.271 38.064C88.9217 37.7013 89.6523 37.52 90.463 37.52C91.2737 37.52 92.0043 37.7013 92.655 38.064C93.3057 38.4267 93.8123 38.9333 94.175 39.584C94.5483 40.2347 94.735 40.9707 94.735 41.792C94.735 42.6133 94.5483 43.3493 94.175 44C93.8123 44.6507 93.3057 45.1627 92.655 45.536C92.0043 45.8987 91.2737 46.08 90.463 46.08ZM90.463 45.072C91.0603 45.072 91.5937 44.9387 92.063 44.672C92.543 44.3947 92.9163 44.0053 93.183 43.504C93.4497 43.0027 93.583 42.432 93.583 41.792C93.583 41.152 93.4497 40.5813 93.183 40.08C92.9163 39.5787 92.543 39.1947 92.063 38.928C91.5937 38.6507 91.0603 38.512 90.463 38.512C89.8657 38.512 89.327 38.6507 88.847 38.928C88.3777 39.1947 88.0043 39.5787 87.727 40.08C87.4603 40.5813 87.327 41.152 87.327 41.792C87.327 42.432 87.4603 43.0027 87.727 43.504C88.0043 44.0053 88.3777 44.3947 88.847 44.672C89.327 44.9387 89.8657 45.072 90.463 45.072ZM102.523 41.648C103.664 41.9147 104.235 42.6027 104.235 43.712C104.235 44.448 103.963 45.0133 103.419 45.408C102.875 45.8027 102.064 46 100.987 46H97.1629V37.584H100.875C101.835 37.584 102.587 37.7707 103.131 38.144C103.675 38.5173 103.947 39.0507 103.947 39.744C103.947 40.2027 103.819 40.5973 103.563 40.928C103.318 41.248 102.971 41.488 102.523 41.648ZM98.2669 41.328H100.795C101.446 41.328 101.942 41.2053 102.283 40.96C102.635 40.7147 102.811 40.3573 102.811 39.888C102.811 39.4187 102.635 39.0667 102.283 38.832C101.942 38.5973 101.446 38.48 100.795 38.48H98.2669V41.328ZM100.939 45.104C101.664 45.104 102.208 44.9867 102.571 44.752C102.934 44.5173 103.115 44.1493 103.115 43.648C103.115 43.1467 102.95 42.7787 102.619 42.544C102.288 42.2987 101.766 42.176 101.051 42.176H98.2669V45.104H100.939ZM110.369 46.08C109.559 46.08 108.828 45.8987 108.177 45.536C107.527 45.1627 107.015 44.6507 106.641 44C106.268 43.3493 106.081 42.6133 106.081 41.792C106.081 40.9707 106.268 40.2347 106.641 39.584C107.015 38.9333 107.527 38.4267 108.177 38.064C108.828 37.7013 109.559 37.52 110.369 37.52C111.18 37.52 111.911 37.7013 112.561 38.064C113.212 38.4267 113.719 38.9333 114.081 39.584C114.455 40.2347 114.641 40.9707 114.641 41.792C114.641 42.6133 114.455 43.3493 114.081 44C113.719 44.6507 113.212 45.1627 112.561 45.536C111.911 45.8987 111.18 46.08 110.369 46.08ZM110.369 45.072C110.967 45.072 111.5 44.9387 111.969 44.672C112.449 44.3947 112.823 44.0053 113.089 43.504C113.356 43.0027 113.489 42.432 113.489 41.792C113.489 41.152 113.356 40.5813 113.089 40.08C112.823 39.5787 112.449 39.1947 111.969 38.928C111.5 38.6507 110.967 38.512 110.369 38.512C109.772 38.512 109.233 38.6507 108.753 38.928C108.284 39.1947 107.911 39.5787 107.633 40.08C107.367 40.5813 107.233 41.152 107.233 41.792C107.233 42.432 107.367 43.0027 107.633 43.504C107.911 44.0053 108.284 44.3947 108.753 44.672C109.233 44.9387 109.772 45.072 110.369 45.072ZM117.069 37.584H118.205V44.272L123.821 37.584H124.829V46H123.693V39.312L118.093 46H117.069V37.584ZM120.893 36.368C120.168 36.368 119.592 36.1867 119.165 35.824C118.738 35.4613 118.52 34.9493 118.509 34.288H119.325C119.336 34.704 119.485 35.04 119.773 35.296C120.061 35.5413 120.434 35.664 120.893 35.664C121.352 35.664 121.725 35.5413 122.013 35.296C122.312 35.04 122.466 34.704 122.477 34.288H123.293C123.282 34.9493 123.058 35.4613 122.621 35.824C122.194 36.1867 121.618 36.368 120.893 36.368ZM138.224 38.592H133.408V46H132.272V37.584H138.224V38.592ZM144.202 37.52C144.991 37.52 145.706 37.7013 146.346 38.064C146.986 38.416 147.487 38.9173 147.85 39.568C148.213 40.2187 148.394 40.96 148.394 41.792C148.394 42.6347 148.213 43.3813 147.85 44.032C147.487 44.6827 146.986 45.1893 146.346 45.552C145.717 45.904 145.002 46.08 144.202 46.08C143.519 46.08 142.901 45.9413 142.346 45.664C141.802 45.376 141.354 44.96 141.002 44.416V49.104H139.866V37.584H140.954V39.248C141.295 38.6933 141.743 38.2667 142.298 37.968C142.863 37.6693 143.498 37.52 144.202 37.52ZM144.122 45.072C144.709 45.072 145.242 44.9387 145.722 44.672C146.202 44.3947 146.575 44.0053 146.842 43.504C147.119 43.0027 147.258 42.432 147.258 41.792C147.258 41.152 147.119 40.5867 146.842 40.096C146.575 39.5947 146.202 39.2053 145.722 38.928C145.242 38.6507 144.709 38.512 144.122 38.512C143.525 38.512 142.986 38.6507 142.506 38.928C142.037 39.2053 141.663 39.5947 141.386 40.096C141.119 40.5867 140.986 41.152 140.986 41.792C140.986 42.432 141.119 43.0027 141.386 43.504C141.663 44.0053 142.037 44.3947 142.506 44.672C142.986 44.9387 143.525 45.072 144.122 45.072ZM153.684 37.52C154.783 37.52 155.625 37.7973 156.212 38.352C156.799 38.896 157.092 39.7067 157.092 40.784V46H156.004V44.688C155.748 45.1253 155.369 45.4667 154.868 45.712C154.377 45.9573 153.791 46.08 153.108 46.08C152.169 46.08 151.423 45.856 150.868 45.408C150.313 44.96 150.036 44.368 150.036 43.632C150.036 42.9173 150.292 42.3413 150.804 41.904C151.327 41.4667 152.153 41.248 153.284 41.248H155.956V40.736C155.956 40.0107 155.753 39.4613 155.348 39.088C154.943 38.704 154.351 38.512 153.572 38.512C153.039 38.512 152.527 38.6027 152.036 38.784C151.545 38.9547 151.124 39.1947 150.772 39.504L150.26 38.656C150.687 38.2933 151.199 38.016 151.796 37.824C152.393 37.6213 153.023 37.52 153.684 37.52ZM153.284 45.184C153.924 45.184 154.473 45.04 154.932 44.752C155.391 44.4533 155.732 44.0267 155.956 43.472V42.096H153.316C151.876 42.096 151.156 42.5973 151.156 43.6C151.156 44.0907 151.343 44.48 151.716 44.768C152.089 45.0453 152.612 45.184 153.284 45.184ZM169.524 37.584V46H168.484V39.344L165.076 44.976H164.564L161.156 39.328V46H160.116V37.584H161.268L164.836 43.648L168.468 37.584H169.524ZM176.229 46.08C175.418 46.08 174.687 45.8987 174.037 45.536C173.386 45.1627 172.874 44.6507 172.501 44C172.127 43.3493 171.941 42.6133 171.941 41.792C171.941 40.9707 172.127 40.2347 172.501 39.584C172.874 38.9333 173.386 38.4267 174.037 38.064C174.687 37.7013 175.418 37.52 176.229 37.52C177.039 37.52 177.77 37.7013 178.421 38.064C179.071 38.4267 179.578 38.9333 179.941 39.584C180.314 40.2347 180.501 40.9707 180.501 41.792C180.501 42.6133 180.314 43.3493 179.941 44C179.578 44.6507 179.071 45.1627 178.421 45.536C177.77 45.8987 177.039 46.08 176.229 46.08ZM176.229 45.072C176.826 45.072 177.359 44.9387 177.829 44.672C178.309 44.3947 178.682 44.0053 178.949 43.504C179.215 43.0027 179.349 42.432 179.349 41.792C179.349 41.152 179.215 40.5813 178.949 40.08C178.682 39.5787 178.309 39.1947 177.829 38.928C177.359 38.6507 176.826 38.512 176.229 38.512C175.631 38.512 175.093 38.6507 174.613 38.928C174.143 39.1947 173.77 39.5787 173.493 40.08C173.226 40.5813 173.093 41.152 173.093 41.792C173.093 42.432 173.226 43.0027 173.493 43.504C173.77 44.0053 174.143 44.3947 174.613 44.672C175.093 44.9387 175.631 45.072 176.229 45.072ZM188.536 38.592H185.352V46H184.216V38.592H181.032V37.584H188.536V38.592ZM190.179 37.584H191.315V41.312H196.611V37.584H197.747V46H196.611V42.288H191.315V46H190.179V37.584ZM204.447 46.08C203.637 46.08 202.906 45.8987 202.255 45.536C201.605 45.1627 201.093 44.6507 200.719 44C200.346 43.3493 200.159 42.6133 200.159 41.792C200.159 40.9707 200.346 40.2347 200.719 39.584C201.093 38.9333 201.605 38.4267 202.255 38.064C202.906 37.7013 203.637 37.52 204.447 37.52C205.258 37.52 205.989 37.7013 206.639 38.064C207.29 38.4267 207.797 38.9333 208.159 39.584C208.533 40.2347 208.719 40.9707 208.719 41.792C208.719 42.6133 208.533 43.3493 208.159 44C207.797 44.6507 207.29 45.1627 206.639 45.536C205.989 45.8987 205.258 46.08 204.447 46.08ZM204.447 45.072C205.045 45.072 205.578 44.9387 206.047 44.672C206.527 44.3947 206.901 44.0053 207.167 43.504C207.434 43.0027 207.567 42.432 207.567 41.792C207.567 41.152 207.434 40.5813 207.167 40.08C206.901 39.5787 206.527 39.1947 206.047 38.928C205.578 38.6507 205.045 38.512 204.447 38.512C203.85 38.512 203.311 38.6507 202.831 38.928C202.362 39.1947 201.989 39.5787 201.711 40.08C201.445 40.5813 201.311 41.152 201.311 41.792C201.311 42.432 201.445 43.0027 201.711 43.504C201.989 44.0053 202.362 44.3947 202.831 44.672C203.311 44.9387 203.85 45.072 204.447 45.072ZM214.667 46.08C213.835 46.08 213.089 45.8987 212.427 45.536C211.777 45.1733 211.265 44.6667 210.891 44.016C210.518 43.3547 210.331 42.6133 210.331 41.792C210.331 40.9707 210.518 40.2347 210.891 39.584C211.265 38.9333 211.777 38.4267 212.427 38.064C213.089 37.7013 213.835 37.52 214.667 37.52C215.393 37.52 216.038 37.664 216.603 37.952C217.179 38.2293 217.633 38.64 217.963 39.184L217.115 39.76C216.838 39.344 216.486 39.0347 216.059 38.832C215.633 38.6187 215.169 38.512 214.667 38.512C214.059 38.512 213.51 38.6507 213.019 38.928C212.539 39.1947 212.161 39.5787 211.883 40.08C211.617 40.5813 211.483 41.152 211.483 41.792C211.483 42.4427 211.617 43.0187 211.883 43.52C212.161 44.0107 212.539 44.3947 213.019 44.672C213.51 44.9387 214.059 45.072 214.667 45.072C215.169 45.072 215.633 44.9707 216.059 44.768C216.486 44.5653 216.838 44.256 217.115 43.84L217.963 44.416C217.633 44.96 217.179 45.376 216.603 45.664C216.027 45.9413 215.382 46.08 214.667 46.08ZM225.927 38.592H222.743V46H221.607V38.592H218.423V37.584H225.927V38.592ZM227.569 37.584H228.705V44.272L234.321 37.584H235.329V46H234.193V39.312L228.593 46H227.569V37.584ZM33.024 69.584V78H31.984V71.344L28.576 76.976H28.064L24.656 71.328V78H23.616V69.584H24.768L28.336 75.648L31.968 69.584H33.024ZM43.6166 74.144H36.5766C36.6406 75.0187 36.9766 75.728 37.5846 76.272C38.1926 76.8053 38.9606 77.072 39.8886 77.072C40.4113 77.072 40.8913 76.9813 41.3286 76.8C41.766 76.608 42.1446 76.3307 42.4646 75.968L43.1046 76.704C42.7313 77.152 42.262 77.4933 41.6966 77.728C41.142 77.9627 40.5286 78.08 39.8566 78.08C38.9926 78.08 38.2246 77.8987 37.5526 77.536C36.8913 77.1627 36.374 76.6507 36.0006 76C35.6273 75.3493 35.4406 74.6133 35.4406 73.792C35.4406 72.9707 35.6166 72.2347 35.9686 71.584C36.3313 70.9333 36.822 70.4267 37.4406 70.064C38.07 69.7013 38.774 69.52 39.5526 69.52C40.3313 69.52 41.03 69.7013 41.6486 70.064C42.2673 70.4267 42.7526 70.9333 43.1046 71.584C43.4566 72.224 43.6326 72.96 43.6326 73.792L43.6166 74.144ZM39.5526 70.496C38.742 70.496 38.0593 70.7573 37.5046 71.28C36.9606 71.792 36.6513 72.464 36.5766 73.296H42.5446C42.47 72.464 42.1553 71.792 41.6006 71.28C41.0566 70.7573 40.374 70.496 39.5526 70.496ZM51.1769 78L48.5049 74.48L45.8169 78H44.5369L47.8649 73.68L44.6969 69.584H45.9769L48.5049 72.88L51.0329 69.584H52.2809L49.1129 73.68L52.4729 78H51.1769ZM57.0745 69.52C58.1732 69.52 59.0158 69.7973 59.6025 70.352C60.1892 70.896 60.4825 71.7067 60.4825 72.784V78H59.3945V76.688C59.1385 77.1253 58.7598 77.4667 58.2585 77.712C57.7678 77.9573 57.1812 78.08 56.4985 78.08C55.5598 78.08 54.8132 77.856 54.2585 77.408C53.7038 76.96 53.4265 76.368 53.4265 75.632C53.4265 74.9173 53.6825 74.3413 54.1945 73.904C54.7172 73.4667 55.5438 73.248 56.6745 73.248H59.3465V72.736C59.3465 72.0107 59.1438 71.4613 58.7385 71.088C58.3332 70.704 57.7412 70.512 56.9625 70.512C56.4292 70.512 55.9172 70.6027 55.4265 70.784C54.9358 70.9547 54.5145 71.1947 54.1625 71.504L53.6505 70.656C54.0772 70.2933 54.5892 70.016 55.1865 69.824C55.7838 69.6213 56.4132 69.52 57.0745 69.52ZM56.6745 77.184C57.3145 77.184 57.8638 77.04 58.3225 76.752C58.7812 76.4533 59.1225 76.0267 59.3465 75.472V74.096H56.7065C55.2665 74.096 54.5465 74.5973 54.5465 75.6C54.5465 76.0907 54.7332 76.48 55.1065 76.768C55.4798 77.0453 56.0025 77.184 56.6745 77.184ZM63.5066 69.584H64.6426V73.312H69.9386V69.584H71.0746V78H69.9386V74.288H64.6426V78H63.5066V69.584ZM74.3035 69.584H75.4395V76.272L81.0555 69.584H82.0635V78H80.9275V71.312L75.3275 78H74.3035V69.584ZM88.3751 74.256H86.4551V78H85.3191V69.584H86.4551V73.28H88.3911L91.3511 69.584H92.5831L89.2711 73.664L92.8231 78H91.4791L88.3751 74.256ZM97.3558 69.52C98.4544 69.52 99.2971 69.7973 99.8838 70.352C100.47 70.896 100.764 71.7067 100.764 72.784V78H99.6758V76.688C99.4198 77.1253 99.0411 77.4667 98.5398 77.712C98.0491 77.9573 97.4624 78.08 96.7798 78.08C95.8411 78.08 95.0944 77.856 94.5398 77.408C93.9851 76.96 93.7078 76.368 93.7078 75.632C93.7078 74.9173 93.9638 74.3413 94.4758 73.904C94.9984 73.4667 95.8251 73.248 96.9557 73.248H99.6278V72.736C99.6278 72.0107 99.4251 71.4613 99.0198 71.088C98.6144 70.704 98.0224 70.512 97.2438 70.512C96.7104 70.512 96.1984 70.6027 95.7078 70.784C95.2171 70.9547 94.7958 71.1947 94.4438 71.504L93.9318 70.656C94.3584 70.2933 94.8704 70.016 95.4678 69.824C96.0651 69.6213 96.6944 69.52 97.3558 69.52ZM96.9557 77.184C97.5958 77.184 98.1451 77.04 98.6038 76.752C99.0624 76.4533 99.4038 76.0267 99.6278 75.472V74.096H96.9878C95.5478 74.096 94.8278 74.5973 94.8278 75.6C94.8278 76.0907 95.0144 76.48 95.3878 76.768C95.7611 77.0453 96.2838 77.184 96.9557 77.184ZM113.196 69.584V78H112.156V71.344L108.748 76.976H108.236L104.828 71.328V78H103.788V69.584H104.94L108.508 75.648L112.14 69.584H113.196ZM128.168 69.584V78H127.032V70.592H121.752V78H120.616V69.584H128.168ZM134.869 78.08C134.059 78.08 133.328 77.8987 132.677 77.536C132.027 77.1627 131.515 76.6507 131.141 76C130.768 75.3493 130.581 74.6133 130.581 73.792C130.581 72.9707 130.768 72.2347 131.141 71.584C131.515 70.9333 132.027 70.4267 132.677 70.064C133.328 69.7013 134.059 69.52 134.869 69.52C135.68 69.52 136.411 69.7013 137.061 70.064C137.712 70.4267 138.219 70.9333 138.581 71.584C138.955 72.2347 139.141 72.9707 139.141 73.792C139.141 74.6133 138.955 75.3493 138.581 76C138.219 76.6507 137.712 77.1627 137.061 77.536C136.411 77.8987 135.68 78.08 134.869 78.08ZM134.869 77.072C135.467 77.072 136 76.9387 136.469 76.672C136.949 76.3947 137.323 76.0053 137.589 75.504C137.856 75.0027 137.989 74.432 137.989 73.792C137.989 73.152 137.856 72.5813 137.589 72.08C137.323 71.5787 136.949 71.1947 136.469 70.928C136 70.6507 135.467 70.512 134.869 70.512C134.272 70.512 133.733 70.6507 133.253 70.928C132.784 71.1947 132.411 71.5787 132.133 72.08C131.867 72.5813 131.733 73.152 131.733 73.792C131.733 74.432 131.867 75.0027 132.133 75.504C132.411 76.0053 132.784 76.3947 133.253 76.672C133.733 76.9387 134.272 77.072 134.869 77.072ZM148.402 69.584V78H147.266V70.592H143.234L143.122 72.672C143.037 74.4213 142.834 75.7653 142.514 76.704C142.194 77.6427 141.624 78.112 140.802 78.112C140.578 78.112 140.306 78.0693 139.986 77.984L140.066 77.008C140.258 77.0507 140.392 77.072 140.466 77.072C140.904 77.072 141.234 76.8693 141.458 76.464C141.682 76.0587 141.832 75.5573 141.906 74.96C141.981 74.3627 142.045 73.5733 142.098 72.592L142.242 69.584H148.402ZM158.784 69.584L154.576 79.008C154.234 79.7973 153.84 80.3573 153.392 80.688C152.944 81.0187 152.405 81.184 151.776 81.184C151.37 81.184 150.992 81.12 150.64 80.992C150.288 80.864 149.984 80.672 149.728 80.416L150.256 79.568C150.682 79.9947 151.194 80.208 151.792 80.208C152.176 80.208 152.501 80.1013 152.768 79.888C153.045 79.6747 153.301 79.312 153.536 78.8L153.904 77.984L150.144 69.584H151.328L154.496 76.736L157.664 69.584H158.784ZM166.906 69.584V78H165.77V74.496C164.799 74.9227 163.844 75.136 162.906 75.136C161.892 75.136 161.103 74.9067 160.538 74.448C159.972 73.9787 159.69 73.28 159.69 72.352V69.584H160.826V72.288C160.826 72.9173 161.028 73.3973 161.434 73.728C161.839 74.048 162.399 74.208 163.114 74.208C163.903 74.208 164.788 74 165.77 73.584V69.584H166.906ZM177.492 74.144H170.452C170.516 75.0187 170.852 75.728 171.46 76.272C172.068 76.8053 172.836 77.072 173.764 77.072C174.286 77.072 174.766 76.9813 175.204 76.8C175.641 76.608 176.02 76.3307 176.34 75.968L176.98 76.704C176.606 77.152 176.137 77.4933 175.572 77.728C175.017 77.9627 174.404 78.08 173.732 78.08C172.868 78.08 172.1 77.8987 171.428 77.536C170.766 77.1627 170.249 76.6507 169.876 76C169.502 75.3493 169.316 74.6133 169.316 73.792C169.316 72.9707 169.492 72.2347 169.844 71.584C170.206 70.9333 170.697 70.4267 171.316 70.064C171.945 69.7013 172.649 69.52 173.428 69.52C174.206 69.52 174.905 69.7013 175.524 70.064C176.142 70.4267 176.628 70.9333 176.98 71.584C177.332 72.224 177.508 72.96 177.508 73.792L177.492 74.144ZM173.428 70.496C172.617 70.496 171.934 70.7573 171.38 71.28C170.836 71.792 170.526 72.464 170.452 73.296H176.42C176.345 72.464 176.03 71.792 175.476 71.28C174.932 70.7573 174.249 70.496 173.428 70.496ZM180.022 69.584H181.158V73.312H186.454V69.584H187.59V78H186.454V74.288H181.158V78H180.022V69.584ZM190.819 69.584H191.955V76.272L197.571 69.584H198.579V78H197.443V71.312L191.843 78H190.819V69.584ZM208.299 69.584V78H207.259V75.216H204.619H204.299L202.347 78H201.115L203.211 75.056C202.56 74.8747 202.059 74.5653 201.707 74.128C201.355 73.6907 201.179 73.136 201.179 72.464C201.179 71.5253 201.499 70.8107 202.139 70.32C202.779 69.8293 203.653 69.584 204.763 69.584H208.299ZM202.331 72.496C202.331 73.744 203.125 74.368 204.715 74.368H207.259V70.592H204.795C203.152 70.592 202.331 71.2267 202.331 72.496ZM223.277 69.584V78H222.141V70.592H216.861V78H215.725V69.584H223.277ZM230.843 69.52C231.632 69.52 232.347 69.7013 232.987 70.064C233.627 70.416 234.128 70.9173 234.491 71.568C234.853 72.2187 235.035 72.96 235.035 73.792C235.035 74.6347 234.853 75.3813 234.491 76.032C234.128 76.6827 233.627 77.1893 232.987 77.552C232.357 77.904 231.643 78.08 230.843 78.08C230.16 78.08 229.541 77.9413 228.987 77.664C228.443 77.376 227.995 76.96 227.643 76.416V81.104H226.507V69.584H227.595V71.248C227.936 70.6933 228.384 70.2667 228.939 69.968C229.504 69.6693 230.139 69.52 230.843 69.52ZM230.763 77.072C231.349 77.072 231.883 76.9387 232.363 76.672C232.843 76.3947 233.216 76.0053 233.483 75.504C233.76 75.0027 233.899 74.432 233.899 73.792C233.899 73.152 233.76 72.5867 233.483 72.096C233.216 71.5947 232.843 71.2053 232.363 70.928C231.883 70.6507 231.349 70.512 230.763 70.512C230.165 70.512 229.627 70.6507 229.147 70.928C228.677 71.2053 228.304 71.5947 228.027 72.096C227.76 72.5867 227.627 73.152 227.627 73.792C227.627 74.432 227.76 75.0027 228.027 75.504C228.304 76.0053 228.677 76.3947 229.147 76.672C229.627 76.9387 230.165 77.072 230.763 77.072ZM237.475 69.584H238.611V76.272L244.227 69.584H245.235V78H244.099V71.312L238.499 78H237.475V69.584ZM252.571 69.792C253.35 69.792 254.043 69.968 254.651 70.32C255.27 70.6613 255.75 71.1467 256.091 71.776C256.432 72.3947 256.603 73.104 256.603 73.904C256.603 74.7253 256.422 75.456 256.059 76.096C255.707 76.7253 255.211 77.216 254.571 77.568C253.931 77.92 253.195 78.096 252.363 78.096C250.966 78.096 249.883 77.6053 249.115 76.624C248.347 75.6427 247.963 74.288 247.963 72.56C247.963 70.7573 248.304 69.376 248.987 68.416C249.68 67.456 250.758 66.8053 252.219 66.464L255.995 65.6L256.187 66.64L252.635 67.456C251.43 67.7227 250.544 68.1973 249.979 68.88C249.414 69.552 249.104 70.5493 249.051 71.872C249.392 71.2213 249.867 70.7147 250.475 70.352C251.083 69.9787 251.782 69.792 252.571 69.792ZM252.395 77.152C252.982 77.152 253.504 77.0187 253.963 76.752C254.432 76.4747 254.795 76.0907 255.051 75.6C255.318 75.1093 255.451 74.5547 255.451 73.936C255.451 73.3173 255.323 72.7733 255.067 72.304C254.811 71.8347 254.448 71.472 253.979 71.216C253.52 70.9493 252.992 70.816 252.395 70.816C251.798 70.816 251.264 70.9493 250.795 71.216C250.336 71.472 249.974 71.8347 249.707 72.304C249.451 72.7733 249.323 73.3173 249.323 73.936C249.323 74.5547 249.451 75.1093 249.707 75.6C249.974 76.0907 250.342 76.4747 250.811 76.752C251.28 77.0187 251.808 77.152 252.395 77.152ZM262.574 72.56C263.63 72.5707 264.435 72.8053 264.99 73.264C265.545 73.7227 265.822 74.384 265.822 75.248C265.822 76.144 265.523 76.832 264.926 77.312C264.329 77.792 263.475 78.0267 262.366 78.016L259.038 78V69.584H260.174V72.528L262.574 72.56ZM267.23 69.584H268.366V78H267.23V69.584ZM262.302 77.152C263.081 77.1627 263.667 77.008 264.062 76.688C264.467 76.3573 264.67 75.8773 264.67 75.248C264.67 74.6293 264.473 74.1707 264.078 73.872C263.683 73.5733 263.091 73.4187 262.302 73.408L260.174 73.376V77.12L262.302 77.152ZM278.48 69.584V78H277.344V70.592H273.312L273.2 72.672C273.115 74.4213 272.912 75.7653 272.592 76.704C272.272 77.6427 271.702 78.112 270.88 78.112C270.656 78.112 270.384 78.0693 270.064 77.984L270.144 77.008C270.336 77.0507 270.47 77.072 270.544 77.072C270.982 77.072 271.312 76.8693 271.536 76.464C271.76 76.0587 271.91 75.5573 271.984 74.96C272.059 74.3627 272.123 73.5733 272.176 72.592L272.32 69.584H278.48ZM281.71 69.584H282.846V76.272L288.462 69.584H289.47V78H288.334V71.312L282.734 78H281.71V69.584ZM300.385 78.08C299.574 78.08 298.844 77.8987 298.193 77.536C297.542 77.1627 297.03 76.6507 296.657 76C296.284 75.3493 296.097 74.6133 296.097 73.792C296.097 72.9707 296.284 72.2347 296.657 71.584C297.03 70.9333 297.542 70.4267 298.193 70.064C298.844 69.7013 299.574 69.52 300.385 69.52C301.196 69.52 301.926 69.7013 302.577 70.064C303.228 70.4267 303.734 70.9333 304.097 71.584C304.47 72.2347 304.657 72.9707 304.657 73.792C304.657 74.6133 304.47 75.3493 304.097 76C303.734 76.6507 303.228 77.1627 302.577 77.536C301.926 77.8987 301.196 78.08 300.385 78.08ZM300.385 77.072C300.982 77.072 301.516 76.9387 301.985 76.672C302.465 76.3947 302.838 76.0053 303.105 75.504C303.372 75.0027 303.505 74.432 303.505 73.792C303.505 73.152 303.372 72.5813 303.105 72.08C302.838 71.5787 302.465 71.1947 301.985 70.928C301.516 70.6507 300.982 70.512 300.385 70.512C299.788 70.512 299.249 70.6507 298.769 70.928C298.3 71.1947 297.926 71.5787 297.649 72.08C297.382 72.5813 297.249 73.152 297.249 73.792C297.249 74.432 297.382 75.0027 297.649 75.504C297.926 76.0053 298.3 76.3947 298.769 76.672C299.249 76.9387 299.788 77.072 300.385 77.072ZM307.085 69.584H308.221V73.312H313.517V69.584H314.653V78H313.517V74.288H308.221V78H307.085V69.584ZM324.762 69.584V78H323.626V70.592H319.594L319.482 72.672C319.396 74.4213 319.194 75.7653 318.874 76.704C318.554 77.6427 317.983 78.112 317.162 78.112C316.938 78.112 316.666 78.0693 316.346 77.984L316.426 77.008C316.618 77.0507 316.751 77.072 316.826 77.072C317.263 77.072 317.594 76.8693 317.818 76.464C318.042 76.0587 318.191 75.5573 318.266 74.96C318.34 74.3627 318.404 73.5733 318.458 72.592L318.602 69.584H324.762ZM330.887 69.52C331.986 69.52 332.828 69.7973 333.415 70.352C334.002 70.896 334.295 71.7067 334.295 72.784V78H333.207V76.688C332.951 77.1253 332.572 77.4667 332.071 77.712C331.58 77.9573 330.994 78.08 330.311 78.08C329.372 78.08 328.626 77.856 328.071 77.408C327.516 76.96 327.239 76.368 327.239 75.632C327.239 74.9173 327.495 74.3413 328.007 73.904C328.53 73.4667 329.356 73.248 330.487 73.248H333.159V72.736C333.159 72.0107 332.956 71.4613 332.551 71.088C332.146 70.704 331.554 70.512 330.775 70.512C330.242 70.512 329.73 70.6027 329.239 70.784C328.748 70.9547 328.327 71.1947 327.975 71.504L327.463 70.656C327.89 70.2933 328.402 70.016 328.999 69.824C329.596 69.6213 330.226 69.52 330.887 69.52ZM330.487 77.184C331.127 77.184 331.676 77.04 332.135 76.752C332.594 76.4533 332.935 76.0267 333.159 75.472V74.096H330.519C329.079 74.096 328.359 74.5973 328.359 75.6C328.359 76.0907 328.546 76.48 328.919 76.768C329.292 77.0453 329.815 77.184 330.487 77.184ZM337.319 69.584H338.455V76.272L344.071 69.584H345.079V78H343.943V71.312L338.343 78H337.319V69.584ZM341.143 68.368C340.418 68.368 339.842 68.1867 339.415 67.824C338.988 67.4613 338.77 66.9493 338.759 66.288H339.575C339.586 66.704 339.735 67.04 340.023 67.296C340.311 67.5413 340.684 67.664 341.143 67.664C341.602 67.664 341.975 67.5413 342.263 67.296C342.562 67.04 342.716 66.704 342.727 66.288H343.543C343.532 66.9493 343.308 67.4613 342.871 67.824C342.444 68.1867 341.868 68.368 341.143 68.368ZM348.335 69.584H349.471V73.312H354.767V69.584H355.903V78H354.767V74.288H349.471V78H348.335V69.584ZM25.904 101.52C26.7467 101.52 27.504 101.707 28.176 102.08C28.8587 102.443 29.392 102.949 29.776 103.6C30.1707 104.251 30.368 104.981 30.368 105.792C30.368 106.603 30.1707 107.339 29.776 108C29.392 108.651 28.8587 109.163 28.176 109.536C27.504 109.909 26.7467 110.096 25.904 110.096C25.2 110.096 24.5547 109.989 23.968 109.776C23.3813 109.552 22.8853 109.232 22.48 108.816L23.152 108.144C23.8667 108.816 24.768 109.152 25.856 109.152C26.464 109.152 27.0133 109.024 27.504 108.768C28.0053 108.512 28.4107 108.155 28.72 107.696C29.04 107.237 29.2267 106.725 29.28 106.16H24.784V105.296H29.264C29.1467 104.453 28.7733 103.771 28.144 103.248C27.5147 102.715 26.752 102.448 25.856 102.448C24.768 102.448 23.8667 102.784 23.152 103.456L22.48 102.8C22.8853 102.384 23.3813 102.069 23.968 101.856C24.5547 101.632 25.2 101.52 25.904 101.52ZM42.9166 105.776C42.9166 107.088 42.4846 108.117 41.6206 108.864C40.7566 109.611 39.5353 110.016 37.9566 110.08V113.104H36.8526V110.096C35.2846 110.032 34.0686 109.627 33.2046 108.88C32.3513 108.123 31.9246 107.088 31.9246 105.776C31.9246 104.475 32.3513 103.456 33.2046 102.72C34.0686 101.984 35.2846 101.584 36.8526 101.52V98.128H37.9566V101.52C39.5353 101.595 40.7566 102 41.6206 102.736C42.4846 103.472 42.9166 104.485 42.9166 105.776ZM33.0446 105.776C33.0446 106.779 33.3646 107.563 34.0046 108.128C34.6553 108.693 35.6046 109.013 36.8526 109.088V102.528C35.6153 102.592 34.6713 102.907 34.0206 103.472C33.37 104.027 33.0446 104.795 33.0446 105.776ZM37.9566 109.088C39.2046 109.024 40.154 108.709 40.8046 108.144C41.466 107.579 41.7966 106.789 41.7966 105.776C41.7966 104.784 41.466 104.011 40.8046 103.456C40.154 102.901 39.2046 102.592 37.9566 102.528V109.088ZM55.4791 105.776C55.4791 107.088 55.0471 108.117 54.1831 108.864C53.3191 109.611 52.0978 110.016 50.5191 110.08V113.104H49.4151V110.096C47.8471 110.032 46.6311 109.627 45.7671 108.88C44.9138 108.123 44.4871 107.088 44.4871 105.776C44.4871 104.475 44.9138 103.456 45.7671 102.72C46.6311 101.984 47.8471 101.584 49.4151 101.52V98.128H50.5191V101.52C52.0978 101.595 53.3191 102 54.1831 102.736C55.0471 103.472 55.4791 104.485 55.4791 105.776ZM45.6071 105.776C45.6071 106.779 45.9271 107.563 46.5671 108.128C47.2178 108.693 48.1671 109.013 49.4151 109.088V102.528C48.1778 102.592 47.2338 102.907 46.5831 103.472C45.9325 104.027 45.6071 104.795 45.6071 105.776ZM50.5191 109.088C51.7671 109.024 52.7165 108.709 53.3671 108.144C54.0285 107.579 54.3591 106.789 54.3591 105.776C54.3591 104.784 54.0285 104.011 53.3671 103.456C52.7165 102.901 51.7671 102.592 50.5191 102.528V109.088ZM65.2416 106.144H58.2016C58.2656 107.019 58.6016 107.728 59.2096 108.272C59.8176 108.805 60.5856 109.072 61.5136 109.072C62.0363 109.072 62.5163 108.981 62.9536 108.8C63.391 108.608 63.7696 108.331 64.0896 107.968L64.7296 108.704C64.3563 109.152 63.887 109.493 63.3216 109.728C62.767 109.963 62.1536 110.08 61.4816 110.08C60.6176 110.08 59.8496 109.899 59.1776 109.536C58.5163 109.163 57.999 108.651 57.6256 108C57.2523 107.349 57.0656 106.613 57.0656 105.792C57.0656 104.971 57.2416 104.235 57.5936 103.584C57.9563 102.933 58.447 102.427 59.0656 102.064C59.695 101.701 60.399 101.52 61.1776 101.52C61.9563 101.52 62.655 101.701 63.2736 102.064C63.8923 102.427 64.3776 102.933 64.7296 103.584C65.0816 104.224 65.2576 104.96 65.2576 105.792L65.2416 106.144ZM61.1776 102.496C60.367 102.496 59.6843 102.757 59.1296 103.28C58.5856 103.792 58.2763 104.464 58.2016 105.296H64.1696C64.095 104.464 63.7803 103.792 63.2256 103.28C62.6816 102.757 61.999 102.496 61.1776 102.496ZM70.8283 106.256H68.9083V110H67.7723V101.584H68.9083V105.28H70.8443L73.8043 101.584H75.0363L71.7243 105.664L75.2763 110H73.9323L70.8283 106.256ZM82.8173 102.592H79.6333V110H78.4973V102.592H75.3133V101.584H82.8173V102.592ZM84.4598 101.584H85.5958V108.272L91.2118 101.584H92.2198V110H91.0838V103.312L85.4838 110H84.4598V101.584ZM100.835 105.648C101.977 105.915 102.547 106.603 102.547 107.712C102.547 108.448 102.275 109.013 101.731 109.408C101.187 109.803 100.377 110 99.2994 110H95.4754V101.584H99.1874C100.147 101.584 100.899 101.771 101.443 102.144C101.987 102.517 102.259 103.051 102.259 103.744C102.259 104.203 102.131 104.597 101.875 104.928C101.63 105.248 101.283 105.488 100.835 105.648ZM96.5794 105.328H99.1074C99.758 105.328 100.254 105.205 100.595 104.96C100.947 104.715 101.123 104.357 101.123 103.888C101.123 103.419 100.947 103.067 100.595 102.832C100.254 102.597 99.758 102.48 99.1074 102.48H96.5794V105.328ZM99.2514 109.104C99.9767 109.104 100.521 108.987 100.883 108.752C101.246 108.517 101.427 108.149 101.427 107.648C101.427 107.147 101.262 106.779 100.931 106.544C100.601 106.299 100.078 106.176 99.3634 106.176H96.5794V109.104H99.2514ZM105.21 101.584H106.346V105.312H111.642V101.584H112.778V110H111.642V106.288H106.346V110H105.21V101.584ZM119.479 110.08C118.668 110.08 117.937 109.899 117.287 109.536C116.636 109.163 116.124 108.651 115.751 108C115.377 107.349 115.191 106.613 115.191 105.792C115.191 104.971 115.377 104.235 115.751 103.584C116.124 102.933 116.636 102.427 117.287 102.064C117.937 101.701 118.668 101.52 119.479 101.52C120.289 101.52 121.02 101.701 121.671 102.064C122.321 102.427 122.828 102.933 123.191 103.584C123.564 104.235 123.751 104.971 123.751 105.792C123.751 106.613 123.564 107.349 123.191 108C122.828 108.651 122.321 109.163 121.671 109.536C121.02 109.899 120.289 110.08 119.479 110.08ZM119.479 109.072C120.076 109.072 120.609 108.939 121.079 108.672C121.559 108.395 121.932 108.005 122.199 107.504C122.465 107.003 122.599 106.432 122.599 105.792C122.599 105.152 122.465 104.581 122.199 104.08C121.932 103.579 121.559 103.195 121.079 102.928C120.609 102.651 120.076 102.512 119.479 102.512C118.881 102.512 118.343 102.651 117.863 102.928C117.393 103.195 117.02 103.579 116.743 104.08C116.476 104.581 116.343 105.152 116.343 105.792C116.343 106.432 116.476 107.003 116.743 107.504C117.02 108.005 117.393 108.395 117.863 108.672C118.343 108.939 118.881 109.072 119.479 109.072ZM135.587 101.584V110H134.547V103.344L131.139 108.976H130.627L127.219 103.328V110H126.179V101.584H127.331L130.899 107.648L134.531 101.584H135.587ZM145.971 101.584L141.763 111.008C141.422 111.797 141.027 112.357 140.579 112.688C140.131 113.019 139.592 113.184 138.963 113.184C138.558 113.184 138.179 113.12 137.827 112.992C137.475 112.864 137.171 112.672 136.915 112.416L137.443 111.568C137.87 111.995 138.382 112.208 138.979 112.208C139.363 112.208 139.688 112.101 139.955 111.888C140.232 111.675 140.488 111.312 140.723 110.8L141.091 109.984L137.331 101.584H138.515L141.683 108.736L144.851 101.584H145.971ZM159.081 101.584L154.873 111.008C154.531 111.797 154.137 112.357 153.689 112.688C153.241 113.019 152.702 113.184 152.073 113.184C151.667 113.184 151.289 113.12 150.937 112.992C150.585 112.864 150.28 112.672 150.024 112.416L150.553 111.568C150.979 111.995 151.491 112.208 152.089 112.208C152.473 112.208 152.798 112.101 153.065 111.888C153.342 111.675 153.598 111.312 153.833 110.8L154.201 109.984L150.441 101.584H151.625L154.793 108.736L157.961 101.584H159.081ZM168.402 101.584V110H167.266V102.592H161.986V110H160.85V101.584H168.402ZM175.968 101.52C176.757 101.52 177.472 101.701 178.112 102.064C178.752 102.416 179.253 102.917 179.616 103.568C179.978 104.219 180.16 104.96 180.16 105.792C180.16 106.635 179.978 107.381 179.616 108.032C179.253 108.683 178.752 109.189 178.112 109.552C177.482 109.904 176.768 110.08 175.968 110.08C175.285 110.08 174.666 109.941 174.112 109.664C173.568 109.376 173.12 108.96 172.768 108.416V113.104H171.632V101.584H172.72V103.248C173.061 102.693 173.509 102.267 174.064 101.968C174.629 101.669 175.264 101.52 175.968 101.52ZM175.888 109.072C176.474 109.072 177.008 108.939 177.488 108.672C177.968 108.395 178.341 108.005 178.608 107.504C178.885 107.003 179.024 106.432 179.024 105.792C179.024 105.152 178.885 104.587 178.608 104.096C178.341 103.595 177.968 103.205 177.488 102.928C177.008 102.651 176.474 102.512 175.888 102.512C175.29 102.512 174.752 102.651 174.272 102.928C173.802 103.205 173.429 103.595 173.152 104.096C172.885 104.587 172.752 105.152 172.752 105.792C172.752 106.432 172.885 107.003 173.152 107.504C173.429 108.005 173.802 108.395 174.272 108.672C174.752 108.939 175.29 109.072 175.888 109.072ZM185.45 101.52C186.548 101.52 187.391 101.797 187.978 102.352C188.564 102.896 188.858 103.707 188.858 104.784V110H187.77V108.688C187.514 109.125 187.135 109.467 186.634 109.712C186.143 109.957 185.556 110.08 184.874 110.08C183.935 110.08 183.188 109.856 182.634 109.408C182.079 108.96 181.802 108.368 181.802 107.632C181.802 106.917 182.058 106.341 182.57 105.904C183.092 105.467 183.919 105.248 185.049 105.248H187.722V104.736C187.722 104.011 187.519 103.461 187.114 103.088C186.708 102.704 186.116 102.512 185.338 102.512C184.804 102.512 184.292 102.603 183.802 102.784C183.311 102.955 182.89 103.195 182.538 103.504L182.026 102.656C182.452 102.293 182.964 102.016 183.562 101.824C184.159 101.621 184.788 101.52 185.45 101.52ZM185.049 109.184C185.69 109.184 186.239 109.04 186.698 108.752C187.156 108.453 187.498 108.027 187.722 107.472V106.096H185.082C183.642 106.096 182.922 106.597 182.922 107.6C182.922 108.091 183.108 108.48 183.482 108.768C183.855 109.045 184.378 109.184 185.049 109.184ZM197.242 105.648C198.383 105.915 198.954 106.603 198.954 107.712C198.954 108.448 198.682 109.013 198.138 109.408C197.594 109.803 196.783 110 195.706 110H191.882V101.584H195.594C196.554 101.584 197.306 101.771 197.85 102.144C198.394 102.517 198.666 103.051 198.666 103.744C198.666 104.203 198.538 104.597 198.282 104.928C198.036 105.248 197.69 105.488 197.242 105.648ZM192.986 105.328H195.514C196.164 105.328 196.66 105.205 197.002 104.96C197.354 104.715 197.53 104.357 197.53 103.888C197.53 103.419 197.354 103.067 197.002 102.832C196.66 102.597 196.164 102.48 195.514 102.48H192.986V105.328ZM195.658 109.104C196.383 109.104 196.927 108.987 197.29 108.752C197.652 108.517 197.834 108.149 197.834 107.648C197.834 107.147 197.668 106.779 197.338 106.544C197.007 106.299 196.484 106.176 195.77 106.176H192.986V109.104H195.658ZM208.496 101.584V110H207.36V102.592H203.328L203.216 104.672C203.131 106.421 202.928 107.765 202.608 108.704C202.288 109.643 201.717 110.112 200.896 110.112C200.672 110.112 200.4 110.069 200.08 109.984L200.16 109.008C200.352 109.051 200.485 109.072 200.56 109.072C200.997 109.072 201.328 108.869 201.552 108.464C201.776 108.059 201.925 107.557 202 106.96C202.075 106.363 202.139 105.573 202.192 104.592L202.336 101.584H208.496ZM219.085 106.144H212.045C212.109 107.019 212.445 107.728 213.053 108.272C213.661 108.805 214.429 109.072 215.357 109.072C215.88 109.072 216.36 108.981 216.797 108.8C217.235 108.608 217.613 108.331 217.933 107.968L218.573 108.704C218.2 109.152 217.731 109.493 217.165 109.728C216.611 109.963 215.997 110.08 215.325 110.08C214.461 110.08 213.693 109.899 213.021 109.536C212.36 109.163 211.843 108.651 211.469 108C211.096 107.349 210.909 106.613 210.909 105.792C210.909 104.971 211.085 104.235 211.437 103.584C211.8 102.933 212.291 102.427 212.909 102.064C213.539 101.701 214.243 101.52 215.021 101.52C215.8 101.52 216.499 101.701 217.117 102.064C217.736 102.427 218.221 102.933 218.573 103.584C218.925 104.224 219.101 104.96 219.101 105.792L219.085 106.144ZM215.021 102.496C214.211 102.496 213.528 102.757 212.973 103.28C212.429 103.792 212.12 104.464 212.045 105.296H218.013C217.939 104.464 217.624 103.792 217.069 103.28C216.525 102.757 215.843 102.496 215.021 102.496ZM221.616 101.584H222.752V105.312H228.048V101.584H229.184V110H228.048V106.288H222.752V110H221.616V101.584ZM232.413 101.584H233.549V108.272L239.165 101.584H240.173V110H239.037V103.312L233.437 110H232.413V101.584ZM250.661 101.52C251.45 101.52 252.159 101.701 252.789 102.064C253.429 102.427 253.93 102.933 254.293 103.584C254.655 104.235 254.837 104.971 254.837 105.792C254.837 106.613 254.655 107.349 254.293 108C253.93 108.651 253.429 109.163 252.789 109.536C252.159 109.899 251.45 110.08 250.661 110.08C249.914 110.08 249.237 109.92 248.629 109.6C248.021 109.269 247.525 108.816 247.141 108.24C246.767 107.664 246.549 107.003 246.485 106.256H244.565V110H243.429V101.584H244.565V105.216H246.501C246.586 104.491 246.815 103.851 247.189 103.296C247.573 102.731 248.063 102.293 248.661 101.984C249.258 101.675 249.925 101.52 250.661 101.52ZM250.661 109.088C251.237 109.088 251.754 108.949 252.213 108.672C252.682 108.395 253.05 108.005 253.317 107.504C253.583 107.003 253.717 106.432 253.717 105.792C253.717 105.152 253.583 104.581 253.317 104.08C253.05 103.579 252.682 103.195 252.213 102.928C251.754 102.651 251.237 102.512 250.661 102.512C250.085 102.512 249.562 102.651 249.093 102.928C248.634 103.195 248.271 103.579 248.005 104.08C247.738 104.581 247.605 105.152 247.605 105.792C247.605 106.432 247.738 107.003 248.005 107.504C248.271 108.005 248.634 108.395 249.093 108.672C249.562 108.949 250.085 109.088 250.661 109.088ZM264.516 106.256H262.596V110H261.46V101.584H262.596V105.28H264.532L267.492 101.584H268.724L265.412 105.664L268.964 110H267.62L264.516 106.256ZM273.932 110.08C273.121 110.08 272.39 109.899 271.74 109.536C271.089 109.163 270.577 108.651 270.204 108C269.83 107.349 269.644 106.613 269.644 105.792C269.644 104.971 269.83 104.235 270.204 103.584C270.577 102.933 271.089 102.427 271.74 102.064C272.39 101.701 273.121 101.52 273.932 101.52C274.742 101.52 275.473 101.701 276.124 102.064C276.774 102.427 277.281 102.933 277.644 103.584C278.017 104.235 278.204 104.971 278.204 105.792C278.204 106.613 278.017 107.349 277.644 108C277.281 108.651 276.774 109.163 276.124 109.536C275.473 109.899 274.742 110.08 273.932 110.08ZM273.932 109.072C274.529 109.072 275.062 108.939 275.532 108.672C276.012 108.395 276.385 108.005 276.652 107.504C276.918 107.003 277.052 106.432 277.052 105.792C277.052 105.152 276.918 104.581 276.652 104.08C276.385 103.579 276.012 103.195 275.532 102.928C275.062 102.651 274.529 102.512 273.932 102.512C273.334 102.512 272.796 102.651 272.316 102.928C271.846 103.195 271.473 103.579 271.196 104.08C270.929 104.581 270.796 105.152 270.796 105.792C270.796 106.432 270.929 107.003 271.196 107.504C271.473 108.005 271.846 108.395 272.316 108.672C272.796 108.939 273.334 109.072 273.932 109.072ZM290.04 101.584V110H289V103.344L285.592 108.976H285.08L281.672 103.328V110H280.632V101.584H281.784L285.352 107.648L288.984 101.584H290.04ZM296.168 101.52C297.267 101.52 298.11 101.797 298.696 102.352C299.283 102.896 299.576 103.707 299.576 104.784V110H298.488V108.688C298.232 109.125 297.854 109.467 297.352 109.712C296.862 109.957 296.275 110.08 295.592 110.08C294.654 110.08 293.907 109.856 293.352 109.408C292.798 108.96 292.52 108.368 292.52 107.632C292.52 106.917 292.776 106.341 293.288 105.904C293.811 105.467 294.638 105.248 295.768 105.248H298.44V104.736C298.44 104.011 298.238 103.461 297.832 103.088C297.427 102.704 296.835 102.512 296.056 102.512C295.523 102.512 295.011 102.603 294.52 102.784C294.03 102.955 293.608 103.195 293.256 103.504L292.744 102.656C293.171 102.293 293.683 102.016 294.28 101.824C294.878 101.621 295.507 101.52 296.168 101.52ZM295.768 109.184C296.408 109.184 296.958 109.04 297.416 108.752C297.875 108.453 298.216 108.027 298.44 107.472V106.096H295.8C294.36 106.096 293.64 106.597 293.64 107.6C293.64 108.091 293.827 108.48 294.2 108.768C294.574 109.045 295.096 109.184 295.768 109.184ZM302.6 101.584H303.736V105.312H309.032V101.584H310.168V110H309.032V106.288H303.736V110H302.6V101.584ZM321.605 109.008V112.032H320.533V110H312.997V112.032H311.925V109.008H312.405C312.971 108.976 313.355 108.56 313.557 107.76C313.76 106.96 313.899 105.84 313.973 104.4L314.085 101.584H320.293V109.008H321.605ZM315.013 104.464C314.96 105.659 314.859 106.645 314.709 107.424C314.56 108.192 314.293 108.72 313.909 109.008H319.157V102.592H315.109L315.013 104.464ZM327.291 110.08C326.48 110.08 325.75 109.899 325.099 109.536C324.448 109.163 323.936 108.651 323.563 108C323.19 107.349 323.003 106.613 323.003 105.792C323.003 104.971 323.19 104.235 323.563 103.584C323.936 102.933 324.448 102.427 325.099 102.064C325.75 101.701 326.48 101.52 327.291 101.52C328.102 101.52 328.832 101.701 329.483 102.064C330.134 102.427 330.64 102.933 331.003 103.584C331.376 104.235 331.563 104.971 331.563 105.792C331.563 106.613 331.376 107.349 331.003 108C330.64 108.651 330.134 109.163 329.483 109.536C328.832 109.899 328.102 110.08 327.291 110.08ZM327.291 109.072C327.888 109.072 328.422 108.939 328.891 108.672C329.371 108.395 329.744 108.005 330.011 107.504C330.278 107.003 330.411 106.432 330.411 105.792C330.411 105.152 330.278 104.581 330.011 104.08C329.744 103.579 329.371 103.195 328.891 102.928C328.422 102.651 327.888 102.512 327.291 102.512C326.694 102.512 326.155 102.651 325.675 102.928C325.206 103.195 324.832 103.579 324.555 104.08C324.288 104.581 324.155 105.152 324.155 105.792C324.155 106.432 324.288 107.003 324.555 107.504C324.832 108.005 325.206 108.395 325.675 108.672C326.155 108.939 326.694 109.072 327.291 109.072ZM333.991 101.584H335.127V108.272L340.743 101.584H341.751V110H340.615V103.312L335.015 110H333.991V101.584ZM337.815 100.368C337.09 100.368 336.514 100.187 336.087 99.824C335.66 99.4613 335.442 98.9493 335.431 98.288H336.247C336.258 98.704 336.407 99.04 336.695 99.296C336.983 99.5413 337.356 99.664 337.815 99.664C338.274 99.664 338.647 99.5413 338.935 99.296C339.234 99.04 339.388 98.704 339.399 98.288H340.215C340.204 98.9493 339.98 99.4613 339.543 99.824C339.116 100.187 338.54 100.368 337.815 100.368ZM27.136 142.08C26.304 142.08 25.5573 141.899 24.896 141.536C24.2453 141.173 23.7333 140.667 23.36 140.016C22.9867 139.355 22.8 138.613 22.8 137.792C22.8 136.971 22.9867 136.235 23.36 135.584C23.7333 134.933 24.2453 134.427 24.896 134.064C25.5573 133.701 26.304 133.52 27.136 133.52C27.8613 133.52 28.5067 133.664 29.072 133.952C29.648 134.229 30.1013 134.64 30.432 135.184L29.584 135.76C29.3067 135.344 28.9547 135.035 28.528 134.832C28.1013 134.619 27.6373 134.512 27.136 134.512C26.528 134.512 25.9787 134.651 25.488 134.928C25.008 135.195 24.6293 135.579 24.352 136.08C24.0853 136.581 23.952 137.152 23.952 137.792C23.952 138.443 24.0853 139.019 24.352 139.52C24.6293 140.011 25.008 140.395 25.488 140.672C25.9787 140.939 26.528 141.072 27.136 141.072C27.6373 141.072 28.1013 140.971 28.528 140.768C28.9547 140.565 29.3067 140.256 29.584 139.84L30.432 140.416C30.1013 140.96 29.648 141.376 29.072 141.664C28.496 141.941 27.8507 142.08 27.136 142.08ZM38.3954 134.592H35.2114V142H34.0754V134.592H30.8914V133.584H38.3954V134.592ZM44.3739 133.52C45.1632 133.52 45.8779 133.701 46.5179 134.064C47.1579 134.416 47.6592 134.917 48.0219 135.568C48.3845 136.219 48.5659 136.96 48.5659 137.792C48.5659 138.635 48.3845 139.381 48.0219 140.032C47.6592 140.683 47.1579 141.189 46.5179 141.552C45.8885 141.904 45.1739 142.08 44.3739 142.08C43.6912 142.08 43.0725 141.941 42.5179 141.664C41.9739 141.376 41.5259 140.96 41.1739 140.416V145.104H40.0379V133.584H41.1259V135.248C41.4672 134.693 41.9152 134.267 42.4699 133.968C43.0352 133.669 43.6699 133.52 44.3739 133.52ZM44.2939 141.072C44.8805 141.072 45.4139 140.939 45.8939 140.672C46.3739 140.395 46.7472 140.005 47.0139 139.504C47.2912 139.003 47.4299 138.432 47.4299 137.792C47.4299 137.152 47.2912 136.587 47.0139 136.096C46.7472 135.595 46.3739 135.205 45.8939 134.928C45.4139 134.651 44.8805 134.512 44.2939 134.512C43.6965 134.512 43.1579 134.651 42.6779 134.928C42.2085 135.205 41.8352 135.595 41.5579 136.096C41.2912 136.587 41.1579 137.152 41.1579 137.792C41.1579 138.432 41.2912 139.003 41.5579 139.504C41.8352 140.005 42.2085 140.395 42.6779 140.672C43.1579 140.939 43.6965 141.072 44.2939 141.072ZM53.8558 133.52C54.9544 133.52 55.7971 133.797 56.3838 134.352C56.9704 134.896 57.2638 135.707 57.2638 136.784V142H56.1758V140.688C55.9198 141.125 55.5411 141.467 55.0398 141.712C54.5491 141.957 53.9624 142.08 53.2798 142.08C52.3411 142.08 51.5944 141.856 51.0398 141.408C50.4851 140.96 50.2078 140.368 50.2078 139.632C50.2078 138.917 50.4638 138.341 50.9758 137.904C51.4984 137.467 52.3251 137.248 53.4557 137.248H56.1278V136.736C56.1278 136.011 55.9251 135.461 55.5198 135.088C55.1144 134.704 54.5224 134.512 53.7438 134.512C53.2104 134.512 52.6984 134.603 52.2078 134.784C51.7171 134.955 51.2958 135.195 50.9438 135.504L50.4318 134.656C50.8584 134.293 51.3704 134.016 51.9678 133.824C52.5651 133.621 53.1944 133.52 53.8558 133.52ZM53.4557 141.184C54.0958 141.184 54.6451 141.04 55.1038 140.752C55.5624 140.453 55.9038 140.027 56.1278 139.472V138.096H53.4878C52.0478 138.096 51.3278 138.597 51.3278 139.6C51.3278 140.091 51.5144 140.48 51.8878 140.768C52.2611 141.045 52.7838 141.184 53.4557 141.184ZM66.2079 134.592H63.0239V142H61.8879V134.592H58.7039V133.584H66.2079V134.592ZM74.8198 138.144H67.7798C67.8438 139.019 68.1798 139.728 68.7878 140.272C69.3958 140.805 70.1638 141.072 71.0918 141.072C71.6144 141.072 72.0944 140.981 72.5318 140.8C72.9691 140.608 73.3478 140.331 73.6678 139.968L74.3078 140.704C73.9344 141.152 73.4651 141.493 72.8998 141.728C72.3451 141.963 71.7318 142.08 71.0598 142.08C70.1958 142.08 69.4278 141.899 68.7558 141.536C68.0944 141.163 67.5771 140.651 67.2038 140C66.8304 139.349 66.6438 138.613 66.6438 137.792C66.6438 136.971 66.8198 136.235 67.1718 135.584C67.5344 134.933 68.0251 134.427 68.6438 134.064C69.2731 133.701 69.9771 133.52 70.7558 133.52C71.5344 133.52 72.2331 133.701 72.8518 134.064C73.4704 134.427 73.9558 134.933 74.3078 135.584C74.6598 136.224 74.8358 136.96 74.8358 137.792L74.8198 138.144ZM70.7558 134.496C69.9451 134.496 69.2624 134.757 68.7078 135.28C68.1638 135.792 67.8544 136.464 67.7798 137.296H73.7478C73.6731 136.464 73.3584 135.792 72.8038 135.28C72.2598 134.757 71.5771 134.496 70.7558 134.496ZM83.3024 134.592H78.4864V142H77.3504V133.584H83.3024V134.592ZM84.9441 133.584H86.0801V140.272L91.6961 133.584H92.7041V142H91.5681V135.312L85.9681 142H84.9441V133.584ZM102.424 133.584V142H101.384V139.216H98.7438H98.4238L96.4718 142H95.2398L97.3358 139.056C96.6851 138.875 96.1838 138.565 95.8318 138.128C95.4798 137.691 95.3038 137.136 95.3038 136.464C95.3038 135.525 95.6238 134.811 96.2638 134.32C96.9038 133.829 97.7784 133.584 98.8878 133.584H102.424ZM96.4557 136.496C96.4557 137.744 97.2504 138.368 98.8398 138.368H101.384V134.592H98.9198C97.2771 134.592 96.4557 135.227 96.4557 136.496ZM115.071 133.584V142H114.031V135.344L110.623 140.976H110.111L106.703 135.328V142H105.663V133.584H106.815L110.383 139.648L114.015 133.584H115.071ZM126.827 133.52C127.616 133.52 128.331 133.701 128.971 134.064C129.611 134.416 130.112 134.917 130.475 135.568C130.838 136.219 131.019 136.96 131.019 137.792C131.019 138.635 130.838 139.381 130.475 140.032C130.112 140.683 129.611 141.189 128.971 141.552C128.342 141.904 127.627 142.08 126.827 142.08C126.144 142.08 125.526 141.941 124.971 141.664C124.427 141.376 123.979 140.96 123.627 140.416V145.104H122.491V133.584H123.579V135.248C123.92 134.693 124.368 134.267 124.923 133.968C125.488 133.669 126.123 133.52 126.827 133.52ZM126.747 141.072C127.334 141.072 127.867 140.939 128.347 140.672C128.827 140.395 129.2 140.005 129.467 139.504C129.744 139.003 129.883 138.432 129.883 137.792C129.883 137.152 129.744 136.587 129.467 136.096C129.2 135.595 128.827 135.205 128.347 134.928C127.867 134.651 127.334 134.512 126.747 134.512C126.15 134.512 125.611 134.651 125.131 134.928C124.662 135.205 124.288 135.595 124.011 136.096C123.744 136.587 123.611 137.152 123.611 137.792C123.611 138.432 123.744 139.003 124.011 139.504C124.288 140.005 124.662 140.395 125.131 140.672C125.611 140.939 126.15 141.072 126.747 141.072ZM136.309 133.52C137.408 133.52 138.25 133.797 138.837 134.352C139.424 134.896 139.717 135.707 139.717 136.784V142H138.629V140.688C138.373 141.125 137.994 141.467 137.493 141.712C137.002 141.957 136.416 142.08 135.733 142.08C134.794 142.08 134.048 141.856 133.493 141.408C132.938 140.96 132.661 140.368 132.661 139.632C132.661 138.917 132.917 138.341 133.429 137.904C133.952 137.467 134.778 137.248 135.909 137.248H138.581V136.736C138.581 136.011 138.378 135.461 137.973 135.088C137.568 134.704 136.976 134.512 136.197 134.512C135.664 134.512 135.152 134.603 134.661 134.784C134.17 134.955 133.749 135.195 133.397 135.504L132.885 134.656C133.312 134.293 133.824 134.016 134.421 133.824C135.018 133.621 135.648 133.52 136.309 133.52ZM135.909 141.184C136.549 141.184 137.098 141.04 137.557 140.752C138.016 140.453 138.357 140.027 138.581 139.472V138.096H135.941C134.501 138.096 133.781 138.597 133.781 139.6C133.781 140.091 133.968 140.48 134.341 140.768C134.714 141.045 135.237 141.184 135.909 141.184ZM146.665 137.616C147.262 137.755 147.721 137.995 148.041 138.336C148.372 138.677 148.537 139.093 148.537 139.584C148.537 140.075 148.366 140.512 148.025 140.896C147.694 141.28 147.241 141.579 146.665 141.792C146.089 141.995 145.454 142.096 144.761 142.096C144.153 142.096 143.556 142.011 142.969 141.84C142.382 141.659 141.87 141.397 141.433 141.056L141.817 140.208C142.201 140.496 142.649 140.72 143.161 140.88C143.673 141.04 144.19 141.12 144.713 141.12C145.492 141.12 146.126 140.976 146.617 140.688C147.118 140.389 147.369 139.989 147.369 139.488C147.369 139.04 147.166 138.693 146.761 138.448C146.356 138.192 145.801 138.064 145.097 138.064H143.657V137.232H145.033C145.662 137.232 146.169 137.115 146.553 136.88C146.937 136.635 147.129 136.309 147.129 135.904C147.129 135.456 146.91 135.104 146.473 134.848C146.046 134.592 145.486 134.464 144.793 134.464C143.886 134.464 142.99 134.693 142.105 135.152L141.785 134.272C142.788 133.749 143.828 133.488 144.905 133.488C145.545 133.488 146.121 133.584 146.633 133.776C147.156 133.957 147.561 134.219 147.849 134.56C148.148 134.901 148.297 135.296 148.297 135.744C148.297 136.171 148.148 136.549 147.849 136.88C147.561 137.211 147.166 137.456 146.665 137.616ZM156.476 137.648C157.617 137.915 158.188 138.603 158.188 139.712C158.188 140.448 157.916 141.013 157.372 141.408C156.828 141.803 156.017 142 154.94 142H151.116V133.584H154.828C155.788 133.584 156.54 133.771 157.084 134.144C157.628 134.517 157.9 135.051 157.9 135.744C157.9 136.203 157.772 136.597 157.516 136.928C157.271 137.248 156.924 137.488 156.476 137.648ZM152.22 137.328H154.748C155.399 137.328 155.895 137.205 156.236 136.96C156.588 136.715 156.764 136.357 156.764 135.888C156.764 135.419 156.588 135.067 156.236 134.832C155.895 134.597 155.399 134.48 154.748 134.48H152.22V137.328ZM154.892 141.104C155.617 141.104 156.161 140.987 156.524 140.752C156.887 140.517 157.068 140.149 157.068 139.648C157.068 139.147 156.903 138.779 156.572 138.544C156.241 138.299 155.719 138.176 155.004 138.176H152.22V141.104H154.892ZM160.85 133.584H161.986V140.272L167.602 133.584H168.61V142H167.474V135.312L161.874 142H160.85V133.584ZM177.786 134.592H174.602V142H173.466V134.592H170.282V133.584H177.786V134.592ZM179.429 133.584H180.565V140.272L186.181 133.584H187.189V142H186.053V135.312L180.453 142H179.429V133.584ZM196.908 133.584V142H195.868V139.216H193.228H192.908L190.956 142H189.724L191.82 139.056C191.169 138.875 190.668 138.565 190.316 138.128C189.964 137.691 189.788 137.136 189.788 136.464C189.788 135.525 190.108 134.811 190.748 134.32C191.388 133.829 192.263 133.584 193.372 133.584H196.908ZM190.94 136.496C190.94 137.744 191.735 138.368 193.324 138.368H195.868V134.592H193.404C191.761 134.592 190.94 135.227 190.94 136.496ZM208.415 133.792C209.193 133.792 209.887 133.968 210.495 134.32C211.113 134.661 211.593 135.147 211.935 135.776C212.276 136.395 212.447 137.104 212.447 137.904C212.447 138.725 212.265 139.456 211.903 140.096C211.551 140.725 211.055 141.216 210.415 141.568C209.775 141.92 209.039 142.096 208.207 142.096C206.809 142.096 205.727 141.605 204.959 140.624C204.191 139.643 203.807 138.288 203.807 136.56C203.807 134.757 204.148 133.376 204.831 132.416C205.524 131.456 206.601 130.805 208.063 130.464L211.839 129.6L212.031 130.64L208.479 131.456C207.273 131.723 206.388 132.197 205.823 132.88C205.257 133.552 204.948 134.549 204.895 135.872C205.236 135.221 205.711 134.715 206.319 134.352C206.927 133.979 207.625 133.792 208.415 133.792ZM208.239 141.152C208.825 141.152 209.348 141.019 209.807 140.752C210.276 140.475 210.639 140.091 210.895 139.6C211.161 139.109 211.295 138.555 211.295 137.936C211.295 137.317 211.167 136.773 210.911 136.304C210.655 135.835 210.292 135.472 209.823 135.216C209.364 134.949 208.836 134.816 208.239 134.816C207.641 134.816 207.108 134.949 206.639 135.216C206.18 135.472 205.817 135.835 205.551 136.304C205.295 136.773 205.167 137.317 205.167 137.936C205.167 138.555 205.295 139.109 205.551 139.6C205.817 140.091 206.185 140.475 206.655 140.752C207.124 141.019 207.652 141.152 208.239 141.152ZM214.882 133.584H216.018V140.272L221.634 133.584H222.642V142H221.506V135.312L215.906 142H214.882V133.584ZM229.821 137.616C230.419 137.755 230.877 137.995 231.197 138.336C231.528 138.677 231.693 139.093 231.693 139.584C231.693 140.075 231.523 140.512 231.181 140.896C230.851 141.28 230.397 141.579 229.821 141.792C229.245 141.995 228.611 142.096 227.917 142.096C227.309 142.096 226.712 142.011 226.125 141.84C225.539 141.659 225.027 141.397 224.589 141.056L224.973 140.208C225.357 140.496 225.805 140.72 226.317 140.88C226.829 141.04 227.347 141.12 227.869 141.12C228.648 141.12 229.283 140.976 229.773 140.688C230.275 140.389 230.525 139.989 230.525 139.488C230.525 139.04 230.323 138.693 229.917 138.448C229.512 138.192 228.957 138.064 228.253 138.064H226.813V137.232H228.189C228.819 137.232 229.325 137.115 229.709 136.88C230.093 136.635 230.285 136.309 230.285 135.904C230.285 135.456 230.067 135.104 229.629 134.848C229.203 134.592 228.643 134.464 227.949 134.464C227.043 134.464 226.147 134.693 225.261 135.152L224.941 134.272C225.944 133.749 226.984 133.488 228.061 133.488C228.701 133.488 229.277 133.584 229.789 133.776C230.312 133.957 230.717 134.219 231.005 134.56C231.304 134.901 231.453 135.296 231.453 135.744C231.453 136.171 231.304 136.549 231.005 136.88C230.717 137.211 230.323 137.456 229.821 137.616ZM234.272 133.584H235.408V137.312H240.704V133.584H241.84V142H240.704V138.288H235.408V142H234.272V133.584ZM252.429 138.144H245.389C245.453 139.019 245.789 139.728 246.397 140.272C247.005 140.805 247.773 141.072 248.701 141.072C249.224 141.072 249.704 140.981 250.141 140.8C250.578 140.608 250.957 140.331 251.277 139.968L251.917 140.704C251.544 141.152 251.074 141.493 250.509 141.728C249.954 141.963 249.341 142.08 248.669 142.08C247.805 142.08 247.037 141.899 246.365 141.536C245.704 141.163 245.186 140.651 244.813 140C244.44 139.349 244.253 138.613 244.253 137.792C244.253 136.971 244.429 136.235 244.781 135.584C245.144 134.933 245.634 134.427 246.253 134.064C246.882 133.701 247.586 133.52 248.365 133.52C249.144 133.52 249.842 133.701 250.461 134.064C251.08 134.427 251.565 134.933 251.917 135.584C252.269 136.224 252.445 136.96 252.445 137.792L252.429 138.144ZM248.365 134.496C247.554 134.496 246.872 134.757 246.317 135.28C245.773 135.792 245.464 136.464 245.389 137.296H251.357C251.282 136.464 250.968 135.792 250.413 135.28C249.869 134.757 249.186 134.496 248.365 134.496ZM258.48 142.08C257.648 142.08 256.901 141.899 256.24 141.536C255.589 141.173 255.077 140.667 254.704 140.016C254.33 139.355 254.144 138.613 254.144 137.792C254.144 136.971 254.33 136.235 254.704 135.584C255.077 134.933 255.589 134.427 256.24 134.064C256.901 133.701 257.648 133.52 258.48 133.52C259.205 133.52 259.85 133.664 260.416 133.952C260.992 134.229 261.445 134.64 261.776 135.184L260.928 135.76C260.65 135.344 260.298 135.035 259.872 134.832C259.445 134.619 258.981 134.512 258.48 134.512C257.872 134.512 257.322 134.651 256.832 134.928C256.352 135.195 255.973 135.579 255.696 136.08C255.429 136.581 255.296 137.152 255.296 137.792C255.296 138.443 255.429 139.019 255.696 139.52C255.973 140.011 256.352 140.395 256.832 140.672C257.322 140.939 257.872 141.072 258.48 141.072C258.981 141.072 259.445 140.971 259.872 140.768C260.298 140.565 260.65 140.256 260.928 139.84L261.776 140.416C261.445 140.96 260.992 141.376 260.416 141.664C259.84 141.941 259.194 142.08 258.48 142.08ZM266.871 133.52C267.97 133.52 268.813 133.797 269.399 134.352C269.986 134.896 270.279 135.707 270.279 136.784V142H269.191V140.688C268.935 141.125 268.557 141.467 268.055 141.712C267.565 141.957 266.978 142.08 266.295 142.08C265.357 142.08 264.61 141.856 264.055 141.408C263.501 140.96 263.223 140.368 263.223 139.632C263.223 138.917 263.479 138.341 263.991 137.904C264.514 137.467 265.341 137.248 266.471 137.248H269.143V136.736C269.143 136.011 268.941 135.461 268.535 135.088C268.13 134.704 267.538 134.512 266.759 134.512C266.226 134.512 265.714 134.603 265.223 134.784C264.733 134.955 264.311 135.195 263.959 135.504L263.447 134.656C263.874 134.293 264.386 134.016 264.983 133.824C265.581 133.621 266.21 133.52 266.871 133.52ZM266.471 141.184C267.111 141.184 267.661 141.04 268.119 140.752C268.578 140.453 268.919 140.027 269.143 139.472V138.096H266.503C265.063 138.096 264.343 138.597 264.343 139.6C264.343 140.091 264.53 140.48 264.903 140.768C265.277 141.045 265.799 141.184 266.471 141.184ZM30.768 165.584L26.56 175.008C26.2187 175.797 25.824 176.357 25.376 176.688C24.928 177.019 24.3893 177.184 23.76 177.184C23.3547 177.184 22.976 177.12 22.624 176.992C22.272 176.864 21.968 176.672 21.712 176.416L22.24 175.568C22.6667 175.995 23.1787 176.208 23.776 176.208C24.16 176.208 24.4853 176.101 24.752 175.888C25.0293 175.675 25.2853 175.312 25.52 174.8L25.888 173.984L22.128 165.584H23.312L26.48 172.736L29.648 165.584H30.768ZM37.8979 169.648C39.0392 169.915 39.6099 170.603 39.6099 171.712C39.6099 172.448 39.3379 173.013 38.7939 173.408C38.2499 173.803 37.4392 174 36.3619 174H32.5379V165.584H36.2499C37.2099 165.584 37.9619 165.771 38.5059 166.144C39.0499 166.517 39.3219 167.051 39.3219 167.744C39.3219 168.203 39.1939 168.597 38.9379 168.928C38.6925 169.248 38.3459 169.488 37.8979 169.648ZM33.6419 169.328H36.1699C36.8205 169.328 37.3165 169.205 37.6579 168.96C38.0099 168.715 38.1859 168.357 38.1859 167.888C38.1859 167.419 38.0099 167.067 37.6579 166.832C37.3165 166.597 36.8205 166.48 36.1699 166.48H33.6419V169.328ZM36.3139 173.104C37.0392 173.104 37.5832 172.987 37.9459 172.752C38.3085 172.517 38.4899 172.149 38.4899 171.648C38.4899 171.147 38.3245 170.779 37.9939 170.544C37.6632 170.299 37.1405 170.176 36.4259 170.176H33.6419V173.104H36.3139ZM49.6323 170.144H42.5923C42.6563 171.019 42.9923 171.728 43.6003 172.272C44.2083 172.805 44.9763 173.072 45.9043 173.072C46.4269 173.072 46.9069 172.981 47.3443 172.8C47.7816 172.608 48.1603 172.331 48.4803 171.968L49.1203 172.704C48.7469 173.152 48.2776 173.493 47.7123 173.728C47.1576 173.963 46.5443 174.08 45.8723 174.08C45.0083 174.08 44.2403 173.899 43.5683 173.536C42.9069 173.163 42.3896 172.651 42.0163 172C41.6429 171.349 41.4563 170.613 41.4563 169.792C41.4563 168.971 41.6323 168.235 41.9843 167.584C42.3469 166.933 42.8376 166.427 43.4563 166.064C44.0856 165.701 44.7896 165.52 45.5683 165.52C46.3469 165.52 47.0456 165.701 47.6643 166.064C48.2829 166.427 48.7683 166.933 49.1203 167.584C49.4723 168.224 49.6483 168.96 49.6483 169.792L49.6323 170.144ZM45.5683 166.496C44.7576 166.496 44.0749 166.757 43.5203 167.28C42.9763 167.792 42.6669 168.464 42.5923 169.296H48.5603C48.4856 168.464 48.1709 167.792 47.6163 167.28C47.0723 166.757 46.3896 166.496 45.5683 166.496ZM58.871 165.584V174H57.735V166.592H53.703L53.591 168.672C53.5057 170.421 53.303 171.765 52.983 172.704C52.663 173.643 52.0923 174.112 51.271 174.112C51.047 174.112 50.775 174.069 50.455 173.984L50.535 173.008C50.727 173.051 50.8603 173.072 50.935 173.072C51.3723 173.072 51.703 172.869 51.927 172.464C52.151 172.059 52.3003 171.557 52.375 170.96C52.4497 170.363 52.5137 169.573 52.567 168.592L52.711 165.584H58.871ZM62.1004 165.584H63.2364V172.272L68.8524 165.584H69.8604V174H68.7244V167.312L63.1244 174H62.1004V165.584ZM79.468 165.584V174H78.332V170.496C77.3613 170.923 76.4067 171.136 75.468 171.136C74.4547 171.136 73.6653 170.907 73.1 170.448C72.5347 169.979 72.252 169.28 72.252 168.352V165.584H73.388V168.288C73.388 168.917 73.5907 169.397 73.996 169.728C74.4013 170.048 74.9613 170.208 75.676 170.208C76.4653 170.208 77.3507 170 78.332 169.584V165.584H79.468ZM90.0541 170.144H83.0141C83.0781 171.019 83.4141 171.728 84.0221 172.272C84.6301 172.805 85.3981 173.072 86.3261 173.072C86.8488 173.072 87.3288 172.981 87.7661 172.8C88.2035 172.608 88.5821 172.331 88.9021 171.968L89.5421 172.704C89.1688 173.152 88.6995 173.493 88.1341 173.728C87.5795 173.963 86.9661 174.08 86.2941 174.08C85.4301 174.08 84.6621 173.899 83.9901 173.536C83.3288 173.163 82.8115 172.651 82.4381 172C82.0648 171.349 81.8781 170.613 81.8781 169.792C81.8781 168.971 82.0541 168.235 82.4061 167.584C82.7688 166.933 83.2595 166.427 83.8781 166.064C84.5075 165.701 85.2115 165.52 85.9901 165.52C86.7688 165.52 87.4675 165.701 88.0861 166.064C88.7048 166.427 89.1901 166.933 89.5421 167.584C89.8941 168.224 90.0701 168.96 90.0701 169.792L90.0541 170.144ZM85.9901 166.496C85.1795 166.496 84.4968 166.757 83.9421 167.28C83.3981 167.792 83.0888 168.464 83.0141 169.296H88.9821C88.9075 168.464 88.5928 167.792 88.0381 167.28C87.4941 166.757 86.8115 166.496 85.9901 166.496ZM92.5848 165.584H93.7208V169.312H99.0168V165.584H100.153V174H99.0168V170.288H93.7208V174H92.5848V165.584ZM103.382 165.584H104.518V172.272L110.134 165.584H111.142V174H110.006V167.312L104.406 174H103.382V165.584ZM120.861 165.584V174H119.821V171.216H117.181H116.861L114.909 174H113.677L115.773 171.056C115.123 170.875 114.621 170.565 114.269 170.128C113.917 169.691 113.741 169.136 113.741 168.464C113.741 167.525 114.061 166.811 114.701 166.32C115.341 165.829 116.216 165.584 117.325 165.584H120.861ZM114.893 168.496C114.893 169.744 115.688 170.368 117.277 170.368H119.821V166.592H117.357C115.715 166.592 114.893 167.227 114.893 168.496ZM135.84 165.584V174H134.704V166.592H129.424V174H128.288V165.584H135.84ZM143.405 165.52C144.194 165.52 144.909 165.701 145.549 166.064C146.189 166.416 146.69 166.917 147.053 167.568C147.416 168.219 147.597 168.96 147.597 169.792C147.597 170.635 147.416 171.381 147.053 172.032C146.69 172.683 146.189 173.189 145.549 173.552C144.92 173.904 144.205 174.08 143.405 174.08C142.722 174.08 142.104 173.941 141.549 173.664C141.005 173.376 140.557 172.96 140.205 172.416V177.104H139.069V165.584H140.157V167.248C140.498 166.693 140.946 166.267 141.501 165.968C142.066 165.669 142.701 165.52 143.405 165.52ZM143.325 173.072C143.912 173.072 144.445 172.939 144.925 172.672C145.405 172.395 145.778 172.005 146.045 171.504C146.322 171.003 146.461 170.432 146.461 169.792C146.461 169.152 146.322 168.587 146.045 168.096C145.778 167.595 145.405 167.205 144.925 166.928C144.445 166.651 143.912 166.512 143.325 166.512C142.728 166.512 142.189 166.651 141.709 166.928C141.24 167.205 140.866 167.595 140.589 168.096C140.322 168.587 140.189 169.152 140.189 169.792C140.189 170.432 140.322 171.003 140.589 171.504C140.866 172.005 141.24 172.395 141.709 172.672C142.189 172.939 142.728 173.072 143.325 173.072ZM150.038 165.584H151.174V172.272L156.79 165.584H157.798V174H156.662V167.312L151.062 174H150.038V165.584ZM165.134 165.792C165.912 165.792 166.606 165.968 167.214 166.32C167.832 166.661 168.312 167.147 168.654 167.776C168.995 168.395 169.166 169.104 169.166 169.904C169.166 170.725 168.984 171.456 168.622 172.096C168.27 172.725 167.774 173.216 167.134 173.568C166.494 173.92 165.758 174.096 164.926 174.096C163.528 174.096 162.446 173.605 161.678 172.624C160.91 171.643 160.526 170.288 160.526 168.56C160.526 166.757 160.867 165.376 161.549 164.416C162.243 163.456 163.32 162.805 164.782 162.464L168.558 161.6L168.75 162.64L165.198 163.456C163.992 163.723 163.107 164.197 162.542 164.88C161.976 165.552 161.667 166.549 161.614 167.872C161.955 167.221 162.43 166.715 163.038 166.352C163.646 165.979 164.344 165.792 165.134 165.792ZM164.958 173.152C165.544 173.152 166.067 173.019 166.526 172.752C166.995 172.475 167.358 172.091 167.614 171.6C167.88 171.109 168.014 170.555 168.014 169.936C168.014 169.317 167.886 168.773 167.63 168.304C167.374 167.835 167.011 167.472 166.542 167.216C166.083 166.949 165.555 166.816 164.958 166.816C164.36 166.816 163.827 166.949 163.358 167.216C162.899 167.472 162.536 167.835 162.27 168.304C162.014 168.773 161.886 169.317 161.886 169.936C161.886 170.555 162.014 171.109 162.27 171.6C162.536 172.091 162.904 172.475 163.374 172.752C163.843 173.019 164.371 173.152 164.958 173.152ZM175.136 168.56C176.192 168.571 176.998 168.805 177.552 169.264C178.107 169.723 178.384 170.384 178.384 171.248C178.384 172.144 178.086 172.832 177.488 173.312C176.891 173.792 176.038 174.027 174.928 174.016L171.6 174V165.584H172.736V168.528L175.136 168.56ZM179.792 165.584H180.928V174H179.792V165.584ZM174.864 173.152C175.643 173.163 176.23 173.008 176.624 172.688C177.03 172.357 177.232 171.877 177.232 171.248C177.232 170.629 177.035 170.171 176.64 169.872C176.246 169.573 175.654 169.419 174.864 169.408L172.736 169.376V173.12L174.864 173.152ZM191.043 165.584V174H189.907V166.592H185.875L185.763 168.672C185.678 170.421 185.475 171.765 185.155 172.704C184.835 173.643 184.264 174.112 183.443 174.112C183.219 174.112 182.947 174.069 182.627 173.984L182.707 173.008C182.899 173.051 183.032 173.072 183.107 173.072C183.544 173.072 183.875 172.869 184.099 172.464C184.323 172.059 184.472 171.557 184.547 170.96C184.622 170.363 184.686 169.573 184.739 168.592L184.883 165.584H191.043ZM194.272 165.584H195.408V172.272L201.024 165.584H202.032V174H200.896V167.312L195.296 174H194.272V165.584Z" fill="#1C2D5A"/>
<circle cx="7" cy="42" r="7" fill="url(#paint0_linear)"/>
<circle cx="7" cy="74" r="7" fill="url(#paint1_linear)"/>
<circle cx="7" cy="106" r="7" fill="url(#paint2_linear)"/>
<circle cx="7" cy="138" r="7" fill="url(#paint3_linear)"/>
<circle cx="7" cy="170" r="7" fill="url(#paint4_linear)"/>
<defs>
<linearGradient id="paint0_linear" x1="-4" y1="33.5" x2="18.5" y2="51.5" gradientUnits="userSpaceOnUse">
<stop stop-color="#F09642"/>
<stop offset="1" stop-color="#FDFA7B"/>
</linearGradient>
<linearGradient id="paint1_linear" x1="-4" y1="65.5" x2="18.5" y2="83.5" gradientUnits="userSpaceOnUse">
<stop stop-color="#F09642"/>
<stop offset="1" stop-color="#FDFA7B"/>
</linearGradient>
<linearGradient id="paint2_linear" x1="-4" y1="97.5" x2="18.5" y2="115.5" gradientUnits="userSpaceOnUse">
<stop stop-color="#F09642"/>
<stop offset="1" stop-color="#FDFA7B"/>
</linearGradient>
<linearGradient id="paint3_linear" x1="-4" y1="129.5" x2="18.5" y2="147.5" gradientUnits="userSpaceOnUse">
<stop stop-color="#F09642"/>
<stop offset="1" stop-color="#FDFA7B"/>
</linearGradient>
<linearGradient id="paint4_linear" x1="-4" y1="161.5" x2="18.5" y2="179.5" gradientUnits="userSpaceOnUse">
<stop stop-color="#F09642"/>
<stop offset="1" stop-color="#FDFA7B"/>
</linearGradient>
</defs>
</svg>
