<svg width="818" height="426" viewBox="0 0 818 426" fill="none" xmlns="http://www.w3.org/2000/svg">
<path d="M18.3961 6.2V23H14.5321V9.368H6.94809V23H3.08409V6.2H18.3961ZM29.8807 9.896C31.0807 9.896 32.1687 10.176 33.1447 10.736C34.1367 11.28 34.9127 12.056 35.4727 13.064C36.0327 14.056 36.3127 15.216 36.3127 16.544C36.3127 17.872 36.0327 19.04 35.4727 20.048C34.9127 21.04 34.1367 21.816 33.1447 22.376C32.1687 22.92 31.0807 23.192 29.8807 23.192C28.2327 23.192 26.9367 22.672 25.9927 21.632V27.656H22.2487V10.088H25.8247V11.576C26.7527 10.456 28.1047 9.896 29.8807 9.896ZM29.2327 20.12C30.1927 20.12 30.9767 19.8 31.5847 19.16C32.2087 18.504 32.5207 17.632 32.5207 16.544C32.5207 15.456 32.2087 14.592 31.5847 13.952C30.9767 13.296 30.1927 12.968 29.2327 12.968C28.2727 12.968 27.4807 13.296 26.8567 13.952C26.2487 14.592 25.9447 15.456 25.9447 16.544C25.9447 17.632 26.2487 18.504 26.8567 19.16C27.4807 19.8 28.2727 20.12 29.2327 20.12ZM38.9367 10.088H42.6567V17.768L48.9447 10.088H52.3767V23H48.6567V15.32L42.3927 23H38.9367V10.088ZM65.8398 16.256C67.3598 16.768 68.1198 17.792 68.1198 19.328C68.1198 20.496 67.6798 21.4 66.7998 22.04C65.9198 22.68 64.6078 23 62.8638 23H55.9758V10.088H62.5758C64.1918 10.088 65.4558 10.384 66.3678 10.976C67.2798 11.552 67.7358 12.368 67.7358 13.424C67.7358 14.064 67.5678 14.632 67.2318 15.128C66.9118 15.608 66.4478 15.984 65.8398 16.256ZM59.4078 15.392H62.2398C63.5518 15.392 64.2078 14.928 64.2078 14C64.2078 13.088 63.5518 12.632 62.2398 12.632H59.4078V15.392ZM62.5518 20.456C63.9278 20.456 64.6158 19.984 64.6158 19.04C64.6158 18.544 64.4558 18.184 64.1358 17.96C63.8158 17.72 63.3118 17.6 62.6238 17.6H59.4078V20.456H62.5518ZM70.9055 10.088H74.6255V17.768L80.9135 10.088H84.3455V23H80.6255V15.32L74.3615 23H70.9055V10.088ZM100.329 10.088V23H96.5845V13.16H92.5045L92.3845 15.44C92.3205 17.136 92.1605 18.544 91.9045 19.664C91.6485 20.784 91.2325 21.664 90.6565 22.304C90.0805 22.944 89.2805 23.264 88.2565 23.264C87.7125 23.264 87.0645 23.168 86.3125 22.976L86.5045 19.904C86.7605 19.936 86.9445 19.952 87.0565 19.952C87.6165 19.952 88.0325 19.752 88.3045 19.352C88.5925 18.936 88.7845 18.416 88.8805 17.792C88.9765 17.152 89.0485 16.312 89.0965 15.272L89.2885 10.088H100.329ZM116.481 16.592C116.481 16.64 116.457 16.976 116.409 17.6H106.641C106.817 18.4 107.233 19.032 107.889 19.496C108.545 19.96 109.361 20.192 110.337 20.192C111.009 20.192 111.601 20.096 112.113 19.904C112.641 19.696 113.129 19.376 113.577 18.944L115.569 21.104C114.353 22.496 112.577 23.192 110.241 23.192C108.785 23.192 107.497 22.912 106.377 22.352C105.257 21.776 104.393 20.984 103.785 19.976C103.177 18.968 102.873 17.824 102.873 16.544C102.873 15.28 103.169 14.144 103.761 13.136C104.369 12.112 105.193 11.32 106.233 10.76C107.289 10.184 108.465 9.896 109.761 9.896C111.025 9.896 112.169 10.168 113.193 10.712C114.217 11.256 115.017 12.04 115.593 13.064C116.185 14.072 116.481 15.248 116.481 16.592ZM109.785 12.728C108.937 12.728 108.225 12.968 107.649 13.448C107.073 13.928 106.721 14.584 106.593 15.416H112.953C112.825 14.6 112.473 13.952 111.897 13.472C111.321 12.976 110.617 12.728 109.785 12.728ZM129.695 13.16H123.071V23H119.351V10.088H129.695V13.16ZM131.679 10.088H135.399V17.768L141.687 10.088H145.119V23H141.399V15.32L135.135 23H131.679V10.088ZM148.718 10.088H152.438V17.768L158.726 10.088H162.158V23H158.438V15.32L152.174 23H148.718V10.088ZM187.026 19.928V25.784H183.546V23H174.474V25.784H170.994V19.928H171.522C172.322 19.912 172.874 19.44 173.178 18.512C173.482 17.584 173.674 16.264 173.754 14.552L173.922 10.088H185.178V19.928H187.026ZM177.138 14.816C177.09 16.128 176.986 17.2 176.826 18.032C176.682 18.864 176.402 19.496 175.986 19.928H181.434V13.16H177.21L177.138 14.816ZM201.766 10.088V23H198.022V13.16H193.942L193.822 15.44C193.758 17.136 193.598 18.544 193.342 19.664C193.086 20.784 192.67 21.664 192.094 22.304C191.518 22.944 190.718 23.264 189.694 23.264C189.15 23.264 188.502 23.168 187.75 22.976L187.942 19.904C188.198 19.936 188.382 19.952 188.494 19.952C189.054 19.952 189.47 19.752 189.742 19.352C190.03 18.936 190.222 18.416 190.318 17.792C190.414 17.152 190.486 16.312 190.534 15.272L190.726 10.088H201.766ZM216.838 10.088V23H213.502V19.304H210.742L208.294 23H204.31L207.262 18.776C206.366 18.424 205.678 17.92 205.198 17.264C204.734 16.592 204.502 15.784 204.502 14.84C204.502 13.32 205.046 12.152 206.134 11.336C207.238 10.504 208.75 10.088 210.67 10.088H216.838ZM210.742 13.136C209.942 13.136 209.334 13.28 208.918 13.568C208.518 13.856 208.318 14.32 208.318 14.96C208.318 15.6 208.51 16.072 208.894 16.376C209.294 16.664 209.894 16.808 210.694 16.808H213.502V13.136H210.742ZM240.074 10.088V23H236.33V13.16H230.954V23H227.234V10.088H240.074ZM248.679 9.896C250.679 9.896 252.215 10.376 253.287 11.336C254.359 12.28 254.895 13.712 254.895 15.632V23H251.391V21.392C250.687 22.592 249.375 23.192 247.455 23.192C246.463 23.192 245.599 23.024 244.863 22.688C244.143 22.352 243.591 21.888 243.207 21.296C242.823 20.704 242.631 20.032 242.631 19.28C242.631 18.08 243.079 17.136 243.975 16.448C244.887 15.76 246.287 15.416 248.175 15.416H251.151C251.151 14.6 250.903 13.976 250.407 13.544C249.911 13.096 249.167 12.872 248.175 12.872C247.487 12.872 246.807 12.984 246.135 13.208C245.479 13.416 244.919 13.704 244.455 14.072L243.111 11.456C243.815 10.96 244.655 10.576 245.631 10.304C246.623 10.032 247.639 9.896 248.679 9.896ZM248.391 20.672C249.031 20.672 249.599 20.528 250.095 20.24C250.591 19.936 250.943 19.496 251.151 18.92V17.6H248.583C247.047 17.6 246.279 18.104 246.279 19.112C246.279 19.592 246.463 19.976 246.831 20.264C247.215 20.536 247.735 20.672 248.391 20.672ZM265.756 9.896C266.956 9.896 268.044 10.176 269.02 10.736C270.012 11.28 270.788 12.056 271.348 13.064C271.908 14.056 272.188 15.216 272.188 16.544C272.188 17.872 271.908 19.04 271.348 20.048C270.788 21.04 270.012 21.816 269.02 22.376C268.044 22.92 266.956 23.192 265.756 23.192C264.108 23.192 262.812 22.672 261.868 21.632V27.656H258.124V10.088H261.7V11.576C262.628 10.456 263.98 9.896 265.756 9.896ZM265.108 20.12C266.068 20.12 266.852 19.8 267.46 19.16C268.084 18.504 268.396 17.632 268.396 16.544C268.396 15.456 268.084 14.592 267.46 13.952C266.852 13.296 266.068 12.968 265.108 12.968C264.148 12.968 263.356 13.296 262.732 13.952C262.124 14.592 261.82 15.456 261.82 16.544C261.82 17.632 262.124 18.504 262.732 19.16C263.356 19.8 264.148 20.12 265.108 20.12ZM285.191 13.16H280.823V23H277.103V13.16H272.735V10.088H285.191V13.16ZM287.187 10.088H290.907V15.128H296.523V10.088H300.267V23H296.523V18.176H290.907V23H287.187V10.088ZM316.403 16.592C316.403 16.64 316.379 16.976 316.331 17.6H306.563C306.739 18.4 307.155 19.032 307.811 19.496C308.467 19.96 309.283 20.192 310.259 20.192C310.931 20.192 311.523 20.096 312.035 19.904C312.563 19.696 313.051 19.376 313.499 18.944L315.491 21.104C314.275 22.496 312.499 23.192 310.163 23.192C308.707 23.192 307.419 22.912 306.299 22.352C305.179 21.776 304.315 20.984 303.707 19.976C303.099 18.968 302.795 17.824 302.795 16.544C302.795 15.28 303.091 14.144 303.683 13.136C304.291 12.112 305.115 11.32 306.155 10.76C307.211 10.184 308.387 9.896 309.683 9.896C310.947 9.896 312.091 10.168 313.115 10.712C314.139 11.256 314.939 12.04 315.515 13.064C316.107 14.072 316.403 15.248 316.403 16.592ZM309.707 12.728C308.859 12.728 308.147 12.968 307.571 13.448C306.995 13.928 306.643 14.584 306.515 15.416H312.875C312.747 14.6 312.395 13.952 311.819 13.472C311.243 12.976 310.539 12.728 309.707 12.728ZM326.881 9.896C328.081 9.896 329.169 10.176 330.145 10.736C331.137 11.28 331.913 12.056 332.473 13.064C333.033 14.056 333.313 15.216 333.313 16.544C333.313 17.872 333.033 19.04 332.473 20.048C331.913 21.04 331.137 21.816 330.145 22.376C329.169 22.92 328.081 23.192 326.881 23.192C325.233 23.192 323.937 22.672 322.993 21.632V27.656H319.249V10.088H322.825V11.576C323.753 10.456 325.105 9.896 326.881 9.896ZM326.233 20.12C327.193 20.12 327.977 19.8 328.585 19.16C329.209 18.504 329.521 17.632 329.521 16.544C329.521 15.456 329.209 14.592 328.585 13.952C327.977 13.296 327.193 12.968 326.233 12.968C325.273 12.968 324.481 13.296 323.857 13.952C323.249 14.592 322.945 15.456 322.945 16.544C322.945 17.632 323.249 18.504 323.857 19.16C324.481 19.8 325.273 20.12 326.233 20.12ZM341.985 23.192C340.625 23.192 339.401 22.912 338.313 22.352C337.241 21.776 336.401 20.984 335.793 19.976C335.185 18.968 334.881 17.824 334.881 16.544C334.881 15.264 335.185 14.12 335.793 13.112C336.401 12.104 337.241 11.32 338.313 10.76C339.401 10.184 340.625 9.896 341.985 9.896C343.345 9.896 344.561 10.184 345.633 10.76C346.705 11.32 347.545 12.104 348.153 13.112C348.761 14.12 349.065 15.264 349.065 16.544C349.065 17.824 348.761 18.968 348.153 19.976C347.545 20.984 346.705 21.776 345.633 22.352C344.561 22.912 343.345 23.192 341.985 23.192ZM341.985 20.12C342.945 20.12 343.729 19.8 344.337 19.16C344.961 18.504 345.273 17.632 345.273 16.544C345.273 15.456 344.961 14.592 344.337 13.952C343.729 13.296 342.945 12.968 341.985 12.968C341.025 12.968 340.233 13.296 339.609 13.952C338.985 14.592 338.673 15.456 338.673 16.544C338.673 17.632 338.985 18.504 339.609 19.16C340.233 19.8 341.025 20.12 341.985 20.12ZM361.504 16.256C363.024 16.768 363.784 17.792 363.784 19.328C363.784 20.496 363.344 21.4 362.464 22.04C361.584 22.68 360.272 23 358.528 23H351.64V10.088H358.24C359.856 10.088 361.12 10.384 362.032 10.976C362.944 11.552 363.4 12.368 363.4 13.424C363.4 14.064 363.232 14.632 362.896 15.128C362.576 15.608 362.112 15.984 361.504 16.256ZM355.072 15.392H357.904C359.216 15.392 359.872 14.928 359.872 14C359.872 13.088 359.216 12.632 357.904 12.632H355.072V15.392ZM358.216 20.456C359.592 20.456 360.28 19.984 360.28 19.04C360.28 18.544 360.12 18.184 359.8 17.96C359.48 17.72 358.976 17.6 358.288 17.6H355.072V20.456H358.216Z" fill="white"/>
<path d="M81 150.757C81 172.074 64.184 182.613 42.5094 182.613C20.8349 182.613 1 166.075 1 144.758C1 123.442 11.566 116.614 21.3774 116.613C30.7626 116.613 39.001 125.403 47.0377 129.232C57.5613 134.245 81 138.671 81 150.757Z" fill="url(#paint0_linear)"/>
<path d="M28.1323 135.927L28.1321 135.927C27.38 136.027 26.8 136.629 26.8 137.362V147.486C26.7925 149.522 28.1316 151.343 30.1566 152.085C30.1566 152.085 30.1567 152.085 30.1568 152.085L34.5285 153.709L34.5289 153.71C34.7113 153.777 34.9051 153.811 35.1002 153.811H35.448C36.3056 155.953 38.1477 157.627 40.4696 158.381C44.7206 159.76 49.3859 157.73 50.9535 153.811H86.7481C87.6056 155.953 89.4472 157.627 91.7697 158.381C96.0207 159.76 100.686 157.73 102.254 153.811H106.65C107.491 153.811 108.2 153.176 108.2 152.361V144.939V144.939C108.197 142.819 106.97 140.869 104.997 139.822L104.996 139.821C100.275 137.33 94.9472 135.988 89.5148 135.925L84.9282 133.608L84.9281 133.608C78.1761 130.204 70.6125 128.418 62.9265 128.413L62.9264 128.413L61.3336 128.413L61.3334 128.413V128.613C54.8465 128.607 48.4338 129.885 42.5254 132.363L28.1323 135.927ZM28.1323 135.927L37.2639 134.719L28.1323 135.927ZM89.3002 151.111V151.111C89.2997 148.842 91.0257 146.868 93.4561 146.408C96.2845 145.873 99.0241 147.565 99.5957 150.152C100.166 152.734 98.3693 155.277 95.5439 155.812C92.7156 156.347 89.976 154.655 89.4049 152.068L89.3002 151.111ZM89.3002 151.111C89.3002 151.432 89.3354 151.753 89.4048 152.068L89.3002 151.111ZM29.6999 147.487V142.562H29.8999M29.6999 147.487L33.75 142.362H33.55H29.8999V142.562M29.6999 147.487C29.6966 148.408 30.3031 149.237 31.2281 149.575M29.6999 147.487L31.2281 149.575M29.8999 142.562H33.75H33.95V142.362V139.862V139.662H33.75H29.8999L35.2755 149.558L35.0809 149.511C35.0608 149.596 35.0455 149.691 35.0314 149.779C35.0253 149.817 35.0195 149.853 35.0137 149.887L35.0135 149.887C35.0082 149.918 35.0021 149.951 34.9957 149.986C34.9789 150.077 34.9604 150.178 34.9498 150.274L34.9497 150.275C34.941 150.357 34.9361 150.453 34.9318 150.536C34.9295 150.581 34.9274 150.622 34.9249 150.657C34.9232 150.68 34.9209 150.706 34.9184 150.734M29.8999 142.562L29.8999 147.487L29.8999 147.487C29.8969 148.317 30.4436 149.075 31.2968 149.387L31.2978 149.387L34.9184 150.734M34.9184 150.734L35.1126 150.806L31.2281 149.575M34.9184 150.734C34.9178 150.74 34.9172 150.746 34.9166 150.752C34.9111 150.811 34.905 150.876 34.9021 150.941L31.2281 149.575M36.2884 147.209L36.1178 147.105C36.1178 147.105 36.1177 147.105 36.1177 147.105C36.0922 147.146 36.0646 147.187 36.0329 147.233L36.0265 147.242C35.993 147.291 35.9559 147.345 35.9203 147.405L35.92 147.406C35.8753 147.482 35.8316 147.567 35.7924 147.644C35.774 147.679 35.7566 147.713 35.7405 147.744C35.7275 147.768 35.7125 147.795 35.6965 147.824C35.6534 147.901 35.6029 147.991 35.5652 148.081L35.565 148.081C35.5401 148.141 35.5169 148.201 35.4948 148.259L35.4886 148.275C35.4685 148.327 35.4492 148.378 35.4291 148.427L35.4287 148.428C35.417 148.457 35.4045 148.488 35.3916 148.519C35.3577 148.601 35.3213 148.69 35.2908 148.778L35.4798 148.843L39.7479 144.113C39.7114 144.129 39.675 144.146 39.6385 144.162C39.6058 144.177 39.5709 144.192 39.5351 144.207C39.4424 144.248 39.3437 144.29 39.2613 144.331M36.2884 147.209C36.3488 147.109 36.423 146.995 36.4999 146.893C36.5491 146.827 36.5958 146.771 36.6424 146.715C36.6691 146.682 36.6958 146.65 36.7229 146.616C36.7376 146.598 36.7527 146.579 36.7682 146.56C36.8305 146.481 36.8982 146.396 36.9674 146.319C37.0511 146.226 37.1297 146.152 37.2111 146.076L37.2184 146.069C37.2595 146.03 37.3029 145.985 37.3476 145.938C37.3936 145.89 37.441 145.841 37.4881 145.797C37.5536 145.735 37.6182 145.683 37.683 145.631C37.7106 145.608 37.7383 145.586 37.7661 145.563C37.8039 145.531 37.8428 145.498 37.8825 145.463C37.9409 145.413 38.001 145.361 38.0622 145.312C38.1298 145.259 38.1983 145.213 38.2666 145.168C38.3015 145.145 38.3363 145.122 38.3709 145.098C38.3995 145.078 38.4281 145.058 38.4569 145.037C38.5312 144.985 38.6063 144.932 38.684 144.884C38.7383 144.851 38.7959 144.819 38.8545 144.788C38.9126 144.756 38.9718 144.724 39.0295 144.689C39.146 144.619 39.2404 144.564 39.3498 144.51M36.2884 147.209C36.2601 147.255 36.2296 147.3 36.1986 147.345C36.1628 147.397 36.1265 147.45 36.0923 147.507M36.2884 147.209L36.0923 147.507M39.3498 144.51L39.2613 144.331M39.3498 144.51C39.4275 144.472 39.5188 144.432 39.6096 144.393C39.6466 144.377 39.6835 144.361 39.7194 144.345C39.7617 144.326 39.8008 144.308 39.8386 144.291C39.9118 144.257 39.9799 144.226 40.0556 144.197L39.2613 144.331M39.3498 144.51L39.262 144.331C39.2617 144.331 39.2615 144.331 39.2613 144.331M38.5153 137.172L38.6152 137.345C38.6153 137.345 38.6153 137.345 38.6154 137.345C39.953 136.574 41.3351 135.872 42.7557 135.241L46.1598 138.392L29.6999 138.446M38.5153 137.172C38.356 137.264 38.1781 137.325 37.9918 137.35L29.6999 138.446M38.5153 137.172C39.8969 136.376 41.3256 135.652 42.7951 135.005L38.5153 137.172ZM29.6999 138.446H29.8999V138.621L29.7261 138.644L29.6999 138.446ZM36.0923 147.507C36.0505 147.579 36.012 147.654 35.9743 147.727C35.9552 147.765 35.9362 147.802 35.9171 147.838C35.9002 147.869 35.8827 147.901 35.8652 147.932C35.824 148.006 35.7827 148.08 35.7495 148.158C35.7236 148.22 35.6993 148.284 35.6751 148.347C35.6551 148.399 35.6352 148.451 35.6144 148.502L36.0923 147.507ZM44.2443 155.812C41.4155 156.347 38.6759 154.655 38.1048 152.068L44.2443 155.812ZM44.2443 155.812C47.0692 155.277 48.8655 152.734 48.2956 150.152M44.2443 155.812L48.2956 150.152M48.2956 150.152C47.7245 147.565 44.9844 145.873 42.156 146.408M48.2956 150.152L42.156 146.408M42.156 146.408C39.7257 146.868 37.9996 148.842 38.0001 151.111M42.156 146.408L38.0001 151.111M38.0001 151.111C38.0001 151.432 38.0353 151.753 38.1047 152.068L38.0001 151.111ZM47.887 135.913H61.9002V131.313H61.3361L61.3359 131.313C56.0289 131.308 50.7694 132.221 45.8276 134.006L47.887 135.913ZM65.0001 150.911H86.2031C86.3175 146.738 90.0023 143.412 94.5 143.412C98.9977 143.412 102.683 146.738 102.797 150.911H105.1L105.1 144.939C105.1 144.939 105.1 144.939 105.1 144.939C105.099 143.874 104.482 142.882 103.469 142.345C99.0929 140.032 94.1406 138.814 89.1002 138.812C89.1002 138.812 89.1002 138.812 89.1002 138.812H65.0001V150.911ZM65.0001 135.913H82.9565C77.4025 133.205 71.2734 131.656 65.0001 131.377V135.913Z" fill="white" stroke="white" stroke-width="0.4"/>
<path d="M11.256 215H12.936L7.848 203.8H6.264L1.192 215H2.84L4.072 212.2H10.024L11.256 215ZM4.632 210.92L7.048 205.432L9.464 210.92H4.632ZM20.389 210.6C21.237 210.264 21.749 209.608 21.749 208.696C21.749 207.304 20.549 206.52 18.549 206.52H14.613V215H18.693C20.949 215 22.037 214.136 22.037 212.664C22.037 211.592 21.509 210.888 20.389 210.6ZM16.117 207.704H18.421C19.589 207.704 20.213 208.104 20.213 208.92C20.213 209.736 19.589 210.168 18.421 210.168H16.117V207.704ZM18.581 213.816H16.117V211.272H18.677C19.941 211.272 20.501 211.688 20.501 212.568C20.501 213.432 19.845 213.816 18.581 213.816ZM30.7611 206.52H23.0171V207.864H26.1211V215H27.6571V207.864H30.7611V206.52ZM35.5888 215.096C38.1328 215.096 39.9888 213.288 39.9888 210.76C39.9888 208.232 38.1328 206.44 35.5888 206.44C33.0448 206.44 31.1728 208.232 31.1728 210.76C31.1728 213.288 33.0448 215.096 35.5888 215.096ZM35.5888 213.752C33.9568 213.752 32.7248 212.568 32.7248 210.76C32.7248 208.952 33.9568 207.784 35.5888 207.784C37.2208 207.784 38.4368 208.952 38.4368 210.76C38.4368 212.568 37.2208 213.752 35.5888 213.752ZM46.5036 215H47.9116L53.0956 208.824V215H54.6316V206.52H53.2396L48.0396 212.696V206.52H46.5036V215ZM61.9099 215H63.4459V211.448H68.2779V215H69.8139V206.52H68.2779V210.12H63.4459V206.52H61.9099V215ZM80.4645 210.808C80.4645 208.2 78.7205 206.44 76.2725 206.44C73.8245 206.44 72.0165 208.248 72.0165 210.76C72.0165 213.288 73.8405 215.096 76.5765 215.096C77.9845 215.096 79.1525 214.616 79.9205 213.72L79.0725 212.728C78.4485 213.416 77.6165 213.752 76.6245 213.752C74.9445 213.752 73.7445 212.76 73.5525 211.272H80.4325C80.4485 211.128 80.4645 210.936 80.4645 210.808ZM76.2725 207.736C77.7605 207.736 78.8325 208.744 78.9925 210.168H73.5525C73.7125 208.728 74.8005 207.736 76.2725 207.736ZM90.0347 213.656V206.52H83.4588L83.3307 209.384C83.2188 211.528 83.0108 213.592 81.7948 213.656H81.3468V216.968H82.8028V215H89.8908V216.968H91.3308V213.656H90.0347ZM84.7388 209.496L84.8188 207.864H88.4988V213.656H83.7468C84.5148 212.984 84.6748 211.256 84.7388 209.496ZM99.1078 210.6C99.9558 210.264 100.468 209.608 100.468 208.696C100.468 207.304 99.2678 206.52 97.2678 206.52H93.3318V215H97.4118C99.6678 215 100.756 214.136 100.756 212.664C100.756 211.592 100.228 210.888 99.1078 210.6ZM94.8358 207.704H97.1398C98.3078 207.704 98.9318 208.104 98.9318 208.92C98.9318 209.736 98.3078 210.168 97.1398 210.168H94.8358V207.704ZM97.2998 213.816H94.8358V211.272H97.3958C98.6598 211.272 99.2198 211.688 99.2198 212.568C99.2198 213.432 98.5638 213.816 97.2998 213.816ZM103.16 215H104.568L109.752 208.824V215H111.288V206.52H109.896L104.696 212.696V206.52H103.16V215ZM124.333 215H126.157L123.245 210.632L125.933 206.52H124.285L121.997 210.104H120.333V206.52H118.797V210.104H117.133L114.845 206.52H113.213L115.901 210.616L112.989 215H114.813L117.149 211.416H118.797V215H120.333V211.416H121.981L124.333 215ZM127.847 215H129.255L134.439 208.824V215H135.975V206.52H134.583L129.383 212.696V206.52H127.847V215ZM147.293 206.52L143.869 212.248L140.541 206.52H138.957V215H140.365V208.792L143.501 214.04H144.173L147.341 208.808V215H148.733V206.52H147.293ZM155.354 215.096C157.898 215.096 159.754 213.288 159.754 210.76C159.754 208.232 157.898 206.44 155.354 206.44C152.81 206.44 150.938 208.232 150.938 210.76C150.938 213.288 152.81 215.096 155.354 215.096ZM155.354 213.752C153.722 213.752 152.49 212.568 152.49 210.76C152.49 208.952 153.722 207.784 155.354 207.784C156.986 207.784 158.202 208.952 158.202 210.76C158.202 212.568 156.986 213.752 155.354 213.752ZM165.668 215.096C167.188 215.096 168.452 214.456 169.124 213.272L167.956 212.536C167.412 213.368 166.58 213.752 165.652 213.752C163.988 213.752 162.74 212.6 162.74 210.76C162.74 208.952 163.988 207.784 165.652 207.784C166.58 207.784 167.412 208.168 167.956 209L169.124 208.248C168.452 207.064 167.188 206.44 165.668 206.44C163.06 206.44 161.188 208.232 161.188 210.76C161.188 213.288 163.06 215.096 165.668 215.096ZM177.324 206.52H169.58V207.864H172.684V215H174.22V207.864H177.324V206.52ZM182.814 209.4L180.43 209.384V206.52H178.894V215L182.574 215.016C184.846 215.032 186.126 214.008 186.126 212.168C186.126 210.424 184.974 209.416 182.814 209.4ZM182.446 213.848L180.43 213.832V210.504L182.446 210.536C183.854 210.552 184.558 211.032 184.558 212.152C184.558 213.288 183.838 213.864 182.446 213.848ZM6.12 235.096C8.664 235.096 10.52 233.288 10.52 230.76C10.52 228.232 8.664 226.44 6.12 226.44C3.576 226.44 1.704 228.232 1.704 230.76C1.704 233.288 3.576 235.096 6.12 235.096ZM6.12 233.752C4.488 233.752 3.256 232.568 3.256 230.76C3.256 228.952 4.488 227.784 6.12 227.784C7.752 227.784 8.968 228.952 8.968 230.76C8.968 232.568 7.752 233.752 6.12 233.752ZM18.7455 226.52H11.0015V227.864H14.1055V235H15.6415V227.864H18.7455V226.52ZM30.757 235H32.565L29.125 230.6L32.341 226.52H30.693L27.941 230.104H26.149V226.52H24.613V235H26.149V231.416H27.909L30.757 235ZM37.5263 235.096C40.0703 235.096 41.9263 233.288 41.9263 230.76C41.9263 228.232 40.0703 226.44 37.5263 226.44C34.9823 226.44 33.1103 228.232 33.1103 230.76C33.1103 233.288 34.9823 235.096 37.5263 235.096ZM37.5263 233.752C35.8943 233.752 34.6623 232.568 34.6623 230.76C34.6623 228.952 35.8943 227.784 37.5263 227.784C39.1583 227.784 40.3743 228.952 40.3743 230.76C40.3743 232.568 39.1583 233.752 37.5263 233.752ZM52.4803 226.52L49.0563 232.248L45.7283 226.52H44.1443V235H45.5523V228.792L48.6883 234.04H49.3603L52.5283 228.808V235H53.9203V226.52H52.4803ZM56.9099 226.52V235H58.4459V227.864H63.2299V235H64.7659V226.52H56.9099ZM70.762 226.44C69.402 226.44 68.138 226.824 67.258 227.528L67.898 228.68C68.554 228.12 69.578 227.768 70.586 227.768C72.106 227.768 72.858 228.52 72.858 229.816V230.12H70.426C67.898 230.12 67.018 231.24 67.018 232.6C67.018 234.072 68.234 235.096 70.154 235.096C71.482 235.096 72.426 234.648 72.938 233.88V235H74.394V229.88C74.394 227.56 73.082 226.44 70.762 226.44ZM70.41 233.912C69.242 233.912 68.538 233.384 68.538 232.536C68.538 231.816 68.97 231.224 70.49 231.224H72.858V232.408C72.474 233.384 71.562 233.912 70.41 233.912ZM77.1599 235H78.6959V231.448H83.5279V235H85.0639V226.52H83.5279V230.12H78.6959V226.52H77.1599V235ZM88.0505 235H89.4585L94.6425 228.824V235H96.1785V226.52H94.7865L89.5865 232.696V226.52H88.0505V235ZM99.1599 235H100.568L105.752 228.824V235H107.288V226.52H105.896L100.696 232.696V226.52H99.1599V235Z" fill="white"/>
<path d="M64.217 346.171C64.2273 353.298 58.3609 367.493 38.6217 369.613C19.0211 369.613 1.06314 355.08 1.03593 336.347C1.00872 317.614 10.555 311.614 19.4275 311.613C27.9146 311.613 28.3848 328.35 35.6574 331.714C45.1804 336.12 64.2016 335.549 64.217 346.171Z" fill="url(#paint1_linear)"/>
<mask id="path-6-outside-1" maskUnits="userSpaceOnUse" x="29.5" y="304.613" width="43" height="54" fill="black">
<rect fill="white" x="29.5" y="304.613" width="43" height="54"/>
<path d="M51 305.613C39.6963 305.613 30.5 314.809 30.5 326.113C30.5 333.158 34.0722 339.384 39.5 343.075V356.113C39.5 356.622 39.758 357.097 40.1855 357.373C40.6128 357.649 41.1513 357.69 41.6155 357.481L51 353.258L60.3845 357.481C60.581 357.57 60.7907 357.613 60.9998 357.613C61.2846 357.613 61.568 357.532 61.8145 357.373C62.2418 357.097 62.5 356.622 62.5 356.113V343.075C67.9278 339.384 71.5 333.158 71.5 326.113C71.5 314.809 62.3037 305.613 51 305.613ZM59.5 353.794L51.6155 350.246C51.4197 350.157 51.2098 350.113 51 350.113C50.7902 350.113 50.5802 350.157 50.3845 350.245L42.5 353.793V344.771C43.2539 345.115 44.0277 345.41 44.8162 345.659C44.8608 345.673 44.9054 345.688 44.9503 345.702C45.051 345.733 45.1519 345.763 45.253 345.792C45.3278 345.814 45.4027 345.836 45.4777 345.857C45.5593 345.88 45.6411 345.902 45.723 345.923C45.8185 345.949 45.9141 345.974 46.0101 345.998C46.078 346.015 46.1459 346.031 46.214 346.048C46.3244 346.074 46.4351 346.1 46.5462 346.124C46.6038 346.137 46.6614 346.15 46.7191 346.162C46.8408 346.188 46.9629 346.213 47.0855 346.237C47.1353 346.246 47.1852 346.256 47.2352 346.265C47.365 346.29 47.4953 346.312 47.6259 346.334C47.6707 346.342 47.7155 346.349 47.7603 346.356C47.8951 346.378 48.0305 346.398 48.1663 346.417C48.2083 346.422 48.2503 346.429 48.2923 346.434C48.4297 346.452 48.5678 346.469 48.7059 346.484C48.7471 346.489 48.7882 346.494 48.8294 346.498C48.9672 346.513 49.1055 346.526 49.2442 346.537C49.2862 346.541 49.3281 346.545 49.3702 346.548C49.5068 346.559 49.644 346.568 49.7814 346.576C49.8255 346.579 49.8694 346.582 49.9137 346.584C50.0525 346.592 50.1919 346.597 50.3314 346.601C50.3734 346.603 50.4152 346.605 50.4572 346.606C50.6376 346.611 50.8186 346.613 51.0002 346.613C51.1817 346.613 51.3627 346.611 51.543 346.606C51.5851 346.605 51.6268 346.603 51.6689 346.601C51.8084 346.597 51.9478 346.592 52.0866 346.584C52.1307 346.582 52.1747 346.579 52.2188 346.576C52.3563 346.568 52.4935 346.559 52.6301 346.548C52.6722 346.545 52.7141 346.541 52.7561 346.537C52.8947 346.526 53.0331 346.513 53.1709 346.498C53.2121 346.494 53.2532 346.489 53.2944 346.484C53.4326 346.469 53.5705 346.452 53.7079 346.434C53.7501 346.429 53.7919 346.422 53.834 346.417C53.9697 346.398 54.1051 346.378 54.2399 346.356C54.2848 346.349 54.3295 346.341 54.3744 346.334C54.505 346.312 54.6353 346.29 54.7651 346.265C54.8151 346.256 54.8649 346.246 54.9148 346.237C55.0373 346.213 55.1594 346.188 55.2812 346.162C55.3389 346.15 55.3965 346.137 55.4541 346.124C55.5652 346.1 55.6759 346.074 55.7863 346.048C55.8543 346.031 55.9222 346.015 55.9902 345.998C56.0861 345.974 56.1817 345.949 56.2773 345.923C56.3591 345.901 56.441 345.88 56.5226 345.857C56.5976 345.836 56.6726 345.814 56.7473 345.792C56.8484 345.763 56.9494 345.733 57.05 345.702C57.0949 345.688 57.1394 345.673 57.1841 345.659C57.9726 345.41 58.7464 345.115 59.5003 344.771V353.794H59.5ZM56.7107 342.656C56.6509 342.676 56.5911 342.697 56.5311 342.717C56.4399 342.747 56.3483 342.777 56.2564 342.806C56.1494 342.84 56.0422 342.872 55.9346 342.904C55.8587 342.926 55.7828 342.948 55.7065 342.97C55.5642 343.009 55.4214 343.047 55.2781 343.083C55.2247 343.097 55.1711 343.11 55.1175 343.123C54.9773 343.157 54.8364 343.189 54.6952 343.219C54.6597 343.227 54.6244 343.235 54.5889 343.243C54.4067 343.281 54.2239 343.316 54.0404 343.348C54.0217 343.352 54.0029 343.354 53.9841 343.358C53.8188 343.386 53.6529 343.412 53.4867 343.436C53.4493 343.441 53.4118 343.447 53.3741 343.452C53.1969 343.476 53.0194 343.498 52.8412 343.517C52.8345 343.517 52.8278 343.518 52.8211 343.519C52.6346 343.538 52.4475 343.554 52.2601 343.568C52.2194 343.571 52.1786 343.573 52.1379 343.575C51.9922 343.585 51.8464 343.592 51.7003 343.598C51.6506 343.6 51.6009 343.602 51.5513 343.604C51.3677 343.609 51.184 343.613 51 343.613C50.816 343.613 50.6322 343.61 50.4487 343.604C50.3989 343.602 50.3493 343.6 50.2997 343.598C50.1536 343.592 50.0078 343.585 49.8621 343.575C49.8214 343.573 49.7806 343.57 49.7399 343.567C49.5525 343.554 49.3654 343.538 49.1789 343.519C49.1722 343.518 49.1655 343.517 49.1588 343.516C48.9806 343.498 48.8031 343.476 48.6259 343.452C48.5884 343.446 48.5509 343.441 48.5133 343.436C48.3471 343.412 48.1812 343.386 48.0159 343.358C47.9972 343.354 47.9784 343.351 47.9596 343.348C47.7761 343.316 47.5932 343.28 47.4111 343.242C47.3756 343.235 47.3403 343.227 47.3047 343.219C47.1636 343.189 47.0227 343.156 46.8824 343.123C46.8288 343.11 46.7752 343.097 46.7219 343.083C46.5786 343.047 46.4358 343.009 46.2935 342.969C46.2172 342.948 46.1412 342.926 46.0654 342.904C45.9579 342.872 45.8506 342.84 45.7435 342.806C45.6516 342.777 45.5601 342.747 45.4688 342.717C45.4087 342.697 45.3488 342.676 45.2891 342.655C38.4353 340.283 33.5 333.764 33.5 326.113C33.5 316.464 41.3504 308.613 51 308.613C60.6495 308.613 68.5 316.464 68.5 326.113C68.5 333.764 63.5646 340.283 56.7107 342.656Z"/>
</mask>
<path d="M51 305.613C39.6963 305.613 30.5 314.809 30.5 326.113C30.5 333.158 34.0722 339.384 39.5 343.075V356.113C39.5 356.622 39.758 357.097 40.1855 357.373C40.6128 357.649 41.1513 357.69 41.6155 357.481L51 353.258L60.3845 357.481C60.581 357.57 60.7907 357.613 60.9998 357.613C61.2846 357.613 61.568 357.532 61.8145 357.373C62.2418 357.097 62.5 356.622 62.5 356.113V343.075C67.9278 339.384 71.5 333.158 71.5 326.113C71.5 314.809 62.3037 305.613 51 305.613ZM59.5 353.794L51.6155 350.246C51.4197 350.157 51.2098 350.113 51 350.113C50.7902 350.113 50.5802 350.157 50.3845 350.245L42.5 353.793V344.771C43.2539 345.115 44.0277 345.41 44.8162 345.659C44.8608 345.673 44.9054 345.688 44.9503 345.702C45.051 345.733 45.1519 345.763 45.253 345.792C45.3278 345.814 45.4027 345.836 45.4777 345.857C45.5593 345.88 45.6411 345.902 45.723 345.923C45.8185 345.949 45.9141 345.974 46.0101 345.998C46.078 346.015 46.1459 346.031 46.214 346.048C46.3244 346.074 46.4351 346.1 46.5462 346.124C46.6038 346.137 46.6614 346.15 46.7191 346.162C46.8408 346.188 46.9629 346.213 47.0855 346.237C47.1353 346.246 47.1852 346.256 47.2352 346.265C47.365 346.29 47.4953 346.312 47.6259 346.334C47.6707 346.342 47.7155 346.349 47.7603 346.356C47.8951 346.378 48.0305 346.398 48.1663 346.417C48.2083 346.422 48.2503 346.429 48.2923 346.434C48.4297 346.452 48.5678 346.469 48.7059 346.484C48.7471 346.489 48.7882 346.494 48.8294 346.498C48.9672 346.513 49.1055 346.526 49.2442 346.537C49.2862 346.541 49.3281 346.545 49.3702 346.548C49.5068 346.559 49.644 346.568 49.7814 346.576C49.8255 346.579 49.8694 346.582 49.9137 346.584C50.0525 346.592 50.1919 346.597 50.3314 346.601C50.3734 346.603 50.4152 346.605 50.4572 346.606C50.6376 346.611 50.8186 346.613 51.0002 346.613C51.1817 346.613 51.3627 346.611 51.543 346.606C51.5851 346.605 51.6268 346.603 51.6689 346.601C51.8084 346.597 51.9478 346.592 52.0866 346.584C52.1307 346.582 52.1747 346.579 52.2188 346.576C52.3563 346.568 52.4935 346.559 52.6301 346.548C52.6722 346.545 52.7141 346.541 52.7561 346.537C52.8947 346.526 53.0331 346.513 53.1709 346.498C53.2121 346.494 53.2532 346.489 53.2944 346.484C53.4326 346.469 53.5705 346.452 53.7079 346.434C53.7501 346.429 53.7919 346.422 53.834 346.417C53.9697 346.398 54.1051 346.378 54.2399 346.356C54.2848 346.349 54.3295 346.341 54.3744 346.334C54.505 346.312 54.6353 346.29 54.7651 346.265C54.8151 346.256 54.8649 346.246 54.9148 346.237C55.0373 346.213 55.1594 346.188 55.2812 346.162C55.3389 346.15 55.3965 346.137 55.4541 346.124C55.5652 346.1 55.6759 346.074 55.7863 346.048C55.8543 346.031 55.9222 346.015 55.9902 345.998C56.0861 345.974 56.1817 345.949 56.2773 345.923C56.3591 345.901 56.441 345.88 56.5226 345.857C56.5976 345.836 56.6726 345.814 56.7473 345.792C56.8484 345.763 56.9494 345.733 57.05 345.702C57.0949 345.688 57.1394 345.673 57.1841 345.659C57.9726 345.41 58.7464 345.115 59.5003 344.771V353.794H59.5ZM56.7107 342.656C56.6509 342.676 56.5911 342.697 56.5311 342.717C56.4399 342.747 56.3483 342.777 56.2564 342.806C56.1494 342.84 56.0422 342.872 55.9346 342.904C55.8587 342.926 55.7828 342.948 55.7065 342.97C55.5642 343.009 55.4214 343.047 55.2781 343.083C55.2247 343.097 55.1711 343.11 55.1175 343.123C54.9773 343.157 54.8364 343.189 54.6952 343.219C54.6597 343.227 54.6244 343.235 54.5889 343.243C54.4067 343.281 54.2239 343.316 54.0404 343.348C54.0217 343.352 54.0029 343.354 53.9841 343.358C53.8188 343.386 53.6529 343.412 53.4867 343.436C53.4493 343.441 53.4118 343.447 53.3741 343.452C53.1969 343.476 53.0194 343.498 52.8412 343.517C52.8345 343.517 52.8278 343.518 52.8211 343.519C52.6346 343.538 52.4475 343.554 52.2601 343.568C52.2194 343.571 52.1786 343.573 52.1379 343.575C51.9922 343.585 51.8464 343.592 51.7003 343.598C51.6506 343.6 51.6009 343.602 51.5513 343.604C51.3677 343.609 51.184 343.613 51 343.613C50.816 343.613 50.6322 343.61 50.4487 343.604C50.3989 343.602 50.3493 343.6 50.2997 343.598C50.1536 343.592 50.0078 343.585 49.8621 343.575C49.8214 343.573 49.7806 343.57 49.7399 343.567C49.5525 343.554 49.3654 343.538 49.1789 343.519C49.1722 343.518 49.1655 343.517 49.1588 343.516C48.9806 343.498 48.8031 343.476 48.6259 343.452C48.5884 343.446 48.5509 343.441 48.5133 343.436C48.3471 343.412 48.1812 343.386 48.0159 343.358C47.9972 343.354 47.9784 343.351 47.9596 343.348C47.7761 343.316 47.5932 343.28 47.4111 343.242C47.3756 343.235 47.3403 343.227 47.3047 343.219C47.1636 343.189 47.0227 343.156 46.8824 343.123C46.8288 343.11 46.7752 343.097 46.7219 343.083C46.5786 343.047 46.4358 343.009 46.2935 342.969C46.2172 342.948 46.1412 342.926 46.0654 342.904C45.9579 342.872 45.8506 342.84 45.7435 342.806C45.6516 342.777 45.5601 342.747 45.4688 342.717C45.4087 342.697 45.3488 342.676 45.2891 342.655C38.4353 340.283 33.5 333.764 33.5 326.113C33.5 316.464 41.3504 308.613 51 308.613C60.6495 308.613 68.5 316.464 68.5 326.113C68.5 333.764 63.5646 340.283 56.7107 342.656Z" fill="white"/>
<path d="M51 305.613C39.6963 305.613 30.5 314.809 30.5 326.113C30.5 333.158 34.0722 339.384 39.5 343.075V356.113C39.5 356.622 39.758 357.097 40.1855 357.373C40.6128 357.649 41.1513 357.69 41.6155 357.481L51 353.258L60.3845 357.481C60.581 357.57 60.7907 357.613 60.9998 357.613C61.2846 357.613 61.568 357.532 61.8145 357.373C62.2418 357.097 62.5 356.622 62.5 356.113V343.075C67.9278 339.384 71.5 333.158 71.5 326.113C71.5 314.809 62.3037 305.613 51 305.613ZM59.5 353.794L51.6155 350.246C51.4197 350.157 51.2098 350.113 51 350.113C50.7902 350.113 50.5802 350.157 50.3845 350.245L42.5 353.793V344.771C43.2539 345.115 44.0277 345.41 44.8162 345.659C44.8608 345.673 44.9054 345.688 44.9503 345.702C45.051 345.733 45.1519 345.763 45.253 345.792C45.3278 345.814 45.4027 345.836 45.4777 345.857C45.5593 345.88 45.6411 345.902 45.723 345.923C45.8185 345.949 45.9141 345.974 46.0101 345.998C46.078 346.015 46.1459 346.031 46.214 346.048C46.3244 346.074 46.4351 346.1 46.5462 346.124C46.6038 346.137 46.6614 346.15 46.7191 346.162C46.8408 346.188 46.9629 346.213 47.0855 346.237C47.1353 346.246 47.1852 346.256 47.2352 346.265C47.365 346.29 47.4953 346.312 47.6259 346.334C47.6707 346.342 47.7155 346.349 47.7603 346.356C47.8951 346.378 48.0305 346.398 48.1663 346.417C48.2083 346.422 48.2503 346.429 48.2923 346.434C48.4297 346.452 48.5678 346.469 48.7059 346.484C48.7471 346.489 48.7882 346.494 48.8294 346.498C48.9672 346.513 49.1055 346.526 49.2442 346.537C49.2862 346.541 49.3281 346.545 49.3702 346.548C49.5068 346.559 49.644 346.568 49.7814 346.576C49.8255 346.579 49.8694 346.582 49.9137 346.584C50.0525 346.592 50.1919 346.597 50.3314 346.601C50.3734 346.603 50.4152 346.605 50.4572 346.606C50.6376 346.611 50.8186 346.613 51.0002 346.613C51.1817 346.613 51.3627 346.611 51.543 346.606C51.5851 346.605 51.6268 346.603 51.6689 346.601C51.8084 346.597 51.9478 346.592 52.0866 346.584C52.1307 346.582 52.1747 346.579 52.2188 346.576C52.3563 346.568 52.4935 346.559 52.6301 346.548C52.6722 346.545 52.7141 346.541 52.7561 346.537C52.8947 346.526 53.0331 346.513 53.1709 346.498C53.2121 346.494 53.2532 346.489 53.2944 346.484C53.4326 346.469 53.5705 346.452 53.7079 346.434C53.7501 346.429 53.7919 346.422 53.834 346.417C53.9697 346.398 54.1051 346.378 54.2399 346.356C54.2848 346.349 54.3295 346.341 54.3744 346.334C54.505 346.312 54.6353 346.29 54.7651 346.265C54.8151 346.256 54.8649 346.246 54.9148 346.237C55.0373 346.213 55.1594 346.188 55.2812 346.162C55.3389 346.15 55.3965 346.137 55.4541 346.124C55.5652 346.1 55.6759 346.074 55.7863 346.048C55.8543 346.031 55.9222 346.015 55.9902 345.998C56.0861 345.974 56.1817 345.949 56.2773 345.923C56.3591 345.901 56.441 345.88 56.5226 345.857C56.5976 345.836 56.6726 345.814 56.7473 345.792C56.8484 345.763 56.9494 345.733 57.05 345.702C57.0949 345.688 57.1394 345.673 57.1841 345.659C57.9726 345.41 58.7464 345.115 59.5003 344.771V353.794H59.5ZM56.7107 342.656C56.6509 342.676 56.5911 342.697 56.5311 342.717C56.4399 342.747 56.3483 342.777 56.2564 342.806C56.1494 342.84 56.0422 342.872 55.9346 342.904C55.8587 342.926 55.7828 342.948 55.7065 342.97C55.5642 343.009 55.4214 343.047 55.2781 343.083C55.2247 343.097 55.1711 343.11 55.1175 343.123C54.9773 343.157 54.8364 343.189 54.6952 343.219C54.6597 343.227 54.6244 343.235 54.5889 343.243C54.4067 343.281 54.2239 343.316 54.0404 343.348C54.0217 343.352 54.0029 343.354 53.9841 343.358C53.8188 343.386 53.6529 343.412 53.4867 343.436C53.4493 343.441 53.4118 343.447 53.3741 343.452C53.1969 343.476 53.0194 343.498 52.8412 343.517C52.8345 343.517 52.8278 343.518 52.8211 343.519C52.6346 343.538 52.4475 343.554 52.2601 343.568C52.2194 343.571 52.1786 343.573 52.1379 343.575C51.9922 343.585 51.8464 343.592 51.7003 343.598C51.6506 343.6 51.6009 343.602 51.5513 343.604C51.3677 343.609 51.184 343.613 51 343.613C50.816 343.613 50.6322 343.61 50.4487 343.604C50.3989 343.602 50.3493 343.6 50.2997 343.598C50.1536 343.592 50.0078 343.585 49.8621 343.575C49.8214 343.573 49.7806 343.57 49.7399 343.567C49.5525 343.554 49.3654 343.538 49.1789 343.519C49.1722 343.518 49.1655 343.517 49.1588 343.516C48.9806 343.498 48.8031 343.476 48.6259 343.452C48.5884 343.446 48.5509 343.441 48.5133 343.436C48.3471 343.412 48.1812 343.386 48.0159 343.358C47.9972 343.354 47.9784 343.351 47.9596 343.348C47.7761 343.316 47.5932 343.28 47.4111 343.242C47.3756 343.235 47.3403 343.227 47.3047 343.219C47.1636 343.189 47.0227 343.156 46.8824 343.123C46.8288 343.11 46.7752 343.097 46.7219 343.083C46.5786 343.047 46.4358 343.009 46.2935 342.969C46.2172 342.948 46.1412 342.926 46.0654 342.904C45.9579 342.872 45.8506 342.84 45.7435 342.806C45.6516 342.777 45.5601 342.747 45.4688 342.717C45.4087 342.697 45.3488 342.676 45.2891 342.655C38.4353 340.283 33.5 333.764 33.5 326.113C33.5 316.464 41.3504 308.613 51 308.613C60.6495 308.613 68.5 316.464 68.5 326.113C68.5 333.764 63.5646 340.283 56.7107 342.656Z" stroke="white" stroke-width="0.8" mask="url(#path-6-outside-1)"/>
<path d="M52.4436 313.213L52.4435 313.213C52.1329 312.716 51.588 312.413 51.0016 312.413C50.4153 312.413 49.8704 312.716 49.5598 313.213L49.5597 313.213L46.4389 318.21L40.5506 318.414C40.5505 318.414 40.5505 318.414 40.5505 318.414C39.9645 318.434 39.4303 318.756 39.1372 319.263C38.844 319.771 38.8331 320.394 39.1086 320.912C39.1086 320.912 39.1086 320.912 39.1086 320.912L41.8761 326.113L39.1086 331.315C39.1086 331.315 39.1086 331.315 39.1086 331.315C38.8331 331.832 38.844 332.455 39.1372 332.963C39.4303 333.471 39.9645 333.792 40.5506 333.812L46.4389 334.016L49.5597 339.014L49.7294 338.908L49.5597 339.014C49.8703 339.511 50.4153 339.813 51.0016 339.813C51.588 339.813 52.1329 339.511 52.4435 339.014L52.4436 339.014L55.5644 334.016L61.4527 333.812C62.0388 333.792 62.573 333.471 62.8661 332.963C63.1593 332.455 63.1702 331.832 62.8946 331.315L60.1273 326.113L62.8947 320.912C62.8947 320.912 62.8948 320.912 62.8948 320.912C63.1703 320.394 63.1594 319.771 62.8662 319.263C62.5731 318.756 62.0389 318.434 61.4528 318.414L55.5645 318.21L52.4436 313.213ZM47.4606 330.65L47.4606 330.65L43.3889 330.508L45.3025 326.912C45.3025 326.912 45.3025 326.912 45.3025 326.912C45.5682 326.412 45.5682 325.814 45.3025 325.315C45.3025 325.315 45.3025 325.315 45.3025 325.315L43.3889 321.718L47.4606 321.577C48.0256 321.557 48.5442 321.258 48.8436 320.778C48.8436 320.778 48.8436 320.778 48.8436 320.778L51.0016 317.323L53.1597 320.778C53.4592 321.258 53.9776 321.557 54.5427 321.577L54.5427 321.577L58.6144 321.718L56.7008 325.315L56.7008 325.315C56.4352 325.814 56.4352 326.413 56.7009 326.912C56.7009 326.912 56.7009 326.912 56.7009 326.912L58.6145 330.508L54.5428 330.649C53.9778 330.669 53.4592 330.968 53.1598 331.448C53.1598 331.448 53.1598 331.448 53.1598 331.448L51.0016 334.904L48.8436 331.448C48.5441 330.968 48.0256 330.669 47.4606 330.65Z" fill="white" stroke="white" stroke-width="0.4"/>
<path d="M7.752 402.128C9.496 402.128 11 401.52 12.024 400.368L10.984 399.36C10.12 400.272 9.064 400.704 7.832 400.704C5.304 400.704 3.432 398.88 3.432 396.4C3.432 393.92 5.304 392.096 7.832 392.096C9.064 392.096 10.12 392.512 10.984 393.424L12.024 392.416C11 391.264 9.496 390.672 7.768 390.672C4.36 390.672 1.832 393.088 1.832 396.4C1.832 399.712 4.36 402.128 7.752 402.128ZM20.058 393.52H12.314V394.864H15.418V402H16.954V394.864H20.058V393.52ZM24.6526 393.44C23.2926 393.44 22.0286 393.824 21.1486 394.528L21.7886 395.68C22.4446 395.12 23.4686 394.768 24.4766 394.768C25.9966 394.768 26.7486 395.52 26.7486 396.816V397.12H24.3166C21.7886 397.12 20.9086 398.24 20.9086 399.6C20.9086 401.072 22.1246 402.096 24.0446 402.096C25.3726 402.096 26.3166 401.648 26.8286 400.88V402H28.2846V396.88C28.2846 394.56 26.9726 393.44 24.6526 393.44ZM24.3006 400.912C23.1326 400.912 22.4286 400.384 22.4286 399.536C22.4286 398.816 22.8606 398.224 24.3806 398.224H26.7486V399.408C26.3646 400.384 25.4526 400.912 24.3006 400.912ZM37.3705 393.52H29.6265V394.864H32.7305V402H34.2665V394.864H37.3705V393.52ZM45.052 393.52L42.124 400.304L39.164 393.52H37.564L41.308 401.984L41.036 402.576C40.62 403.552 40.156 403.888 39.42 403.888C38.844 403.888 38.316 403.664 37.9 403.264L37.244 404.416C37.772 404.928 38.604 405.2 39.42 405.2C40.716 405.2 41.692 404.64 42.444 402.848L46.556 393.52H45.052ZM51.5903 402.096C53.1103 402.096 54.3743 401.456 55.0463 400.272L53.8783 399.536C53.3343 400.368 52.5023 400.752 51.5743 400.752C49.9103 400.752 48.6623 399.6 48.6623 397.76C48.6623 395.952 49.9103 394.784 51.5743 394.784C52.5023 394.784 53.3343 395.168 53.8783 396L55.0463 395.248C54.3743 394.064 53.1103 393.44 51.5903 393.44C48.9823 393.44 47.1103 395.232 47.1103 397.76C47.1103 400.288 48.9823 402.096 51.5903 402.096ZM57.0349 402H58.5709V398.448H63.4029V402H64.9389V393.52H63.4029V397.12H58.5709V393.52H57.0349V402ZM71.7495 396.4L69.4615 396.384V393.52H67.9255V402L71.4935 402.016C73.7655 402.032 75.0455 401.008 75.0455 399.168C75.0455 397.424 73.8935 396.416 71.7495 396.4ZM76.3095 402H77.8455V393.52H76.3095V402ZM71.3815 400.848L69.4615 400.832V397.504L71.3815 397.536C72.7735 397.552 73.4935 398.032 73.4935 399.152C73.4935 400.288 72.7575 400.864 71.3815 400.848ZM88.4958 397.808C88.4958 395.2 86.7518 393.44 84.3038 393.44C81.8558 393.44 80.0478 395.248 80.0478 397.76C80.0478 400.288 81.8718 402.096 84.6078 402.096C86.0158 402.096 87.1838 401.616 87.9518 400.72L87.1038 399.728C86.4798 400.416 85.6478 400.752 84.6558 400.752C82.9758 400.752 81.7758 399.76 81.5838 398.272H88.4638C88.4798 398.128 88.4958 397.936 88.4958 397.808ZM84.3038 394.736C85.7918 394.736 86.8638 395.744 87.0238 397.168H81.5838C81.7438 395.728 82.8318 394.736 84.3038 394.736ZM99.7675 397.584C100.696 397.248 101.304 396.56 101.304 395.712C101.304 394.336 99.7835 393.408 97.7195 393.408C96.6315 393.408 95.5755 393.632 94.4715 394.192L94.8875 395.376C95.8155 394.944 96.6955 394.72 97.5595 394.72C98.8555 394.72 99.7195 395.168 99.7195 395.936C99.7195 396.656 98.9995 397.072 97.8635 397.072H96.4235V398.176H97.9755C99.2235 398.176 99.9595 398.624 99.9595 399.408C99.9595 400.272 99.0155 400.8 97.5755 400.8C96.5355 400.8 95.4155 400.512 94.5995 399.984L94.1355 401.152C95.0795 401.76 96.3275 402.112 97.5915 402.112C99.8475 402.112 101.544 401.072 101.544 399.536C101.544 398.56 100.904 397.872 99.7675 397.584ZM103.879 402H105.415V398.448H110.247V402H111.783V393.52H110.247V397.12H105.415V393.52H103.879V402ZM117.793 393.44C116.433 393.44 115.169 393.824 114.289 394.528L114.929 395.68C115.585 395.12 116.609 394.768 117.617 394.768C119.137 394.768 119.889 395.52 119.889 396.816V397.12H117.457C114.929 397.12 114.049 398.24 114.049 399.6C114.049 401.072 115.265 402.096 117.185 402.096C118.513 402.096 119.457 401.648 119.969 400.88V402H121.425V396.88C121.425 394.56 120.113 393.44 117.793 393.44ZM117.441 400.912C116.273 400.912 115.569 400.384 115.569 399.536C115.569 398.816 116.001 398.224 117.521 398.224H119.889V399.408C119.505 400.384 118.593 400.912 117.441 400.912ZM129.423 393.52V397.392C128.607 397.744 127.775 397.952 127.007 397.952C125.711 397.952 124.911 397.376 124.911 396.176V393.52H123.375V396.272C123.375 398.288 124.623 399.216 126.687 399.216C127.631 399.216 128.559 398.976 129.423 398.576V402H130.959V393.52H129.423ZM140.085 402H141.893L138.453 397.6L141.669 393.52H140.021L137.269 397.104H135.477V393.52H133.941V402H135.477V398.416H137.237L140.085 402ZM143.504 402H144.912L150.096 395.824V402H151.632V393.52H150.24L145.04 399.696V393.52H143.504V402ZM2.488 422H3.896L9.08 415.824V422H10.616V413.52H9.224L4.024 419.696V413.52H2.488V422ZM18.0488 417.584C18.9768 417.248 19.5848 416.56 19.5848 415.712C19.5848 414.336 18.0648 413.408 16.0008 413.408C14.9128 413.408 13.8568 413.632 12.7528 414.192L13.1688 415.376C14.0968 414.944 14.9768 414.72 15.8408 414.72C17.1368 414.72 18.0008 415.168 18.0008 415.936C18.0008 416.656 17.2808 417.072 16.1448 417.072H14.7048V418.176H16.2568C17.5048 418.176 18.2408 418.624 18.2408 419.408C18.2408 420.272 17.2968 420.8 15.8568 420.8C14.8168 420.8 13.6968 420.512 12.8808 419.984L12.4168 421.152C13.3608 421.76 14.6088 422.112 15.8728 422.112C18.1288 422.112 19.8248 421.072 19.8248 419.536C19.8248 418.56 19.1848 417.872 18.0488 417.584ZM33.7847 420.656V413.52H27.2088L27.0807 416.384C26.9688 418.528 26.7608 420.592 25.5448 420.656H25.0968V423.968H26.5528V422H33.6408V423.968H35.0808V420.656H33.7847ZM28.4888 416.496L28.5688 414.864H32.2488V420.656H27.4968C28.2648 419.984 28.4248 418.256 28.4888 416.496ZM41.5778 413.44C40.3298 413.44 39.2418 413.92 38.5538 414.864V413.52H37.0818V425.104H38.6178V420.72C39.3218 421.632 40.3778 422.096 41.5778 422.096C44.0578 422.096 45.8658 420.368 45.8658 417.76C45.8658 415.168 44.0578 413.44 41.5778 413.44ZM41.4498 420.752C39.8338 420.752 38.6018 419.568 38.6018 417.76C38.6018 415.968 39.8338 414.784 41.4498 414.784C43.0818 414.784 44.3138 415.968 44.3138 417.76C44.3138 419.568 43.0818 420.752 41.4498 420.752ZM51.0433 413.44C49.6833 413.44 48.4193 413.824 47.5393 414.528L48.1793 415.68C48.8353 415.12 49.8593 414.768 50.8673 414.768C52.3873 414.768 53.1393 415.52 53.1393 416.816V417.12H50.7073C48.1793 417.12 47.2993 418.24 47.2993 419.6C47.2993 421.072 48.5153 422.096 50.4353 422.096C51.7633 422.096 52.7073 421.648 53.2193 420.88V422H54.6753V416.88C54.6753 414.56 53.3633 413.44 51.0433 413.44ZM50.6913 420.912C49.5233 420.912 48.8193 420.384 48.8193 419.536C48.8193 418.816 49.2513 418.224 50.7713 418.224H53.1393V419.408C52.7553 420.384 51.8433 420.912 50.6913 420.912ZM63.6811 413.52H57.4411V422H58.9771V414.864H63.6811V413.52ZM68.5106 422.096C71.0546 422.096 72.9106 420.288 72.9106 417.76C72.9106 415.232 71.0546 413.44 68.5106 413.44C65.9666 413.44 64.0946 415.232 64.0946 417.76C64.0946 420.288 65.9666 422.096 68.5106 422.096ZM68.5106 420.752C66.8786 420.752 65.6466 419.568 65.6466 417.76C65.6466 415.952 66.8786 414.784 68.5106 414.784C70.1426 414.784 71.3586 415.952 71.3586 417.76C71.3586 419.568 70.1426 420.752 68.5106 420.752ZM82.8406 420.656V413.52H81.3046V420.656H76.6646V413.52H75.1286V422H82.7286V424.032H84.1846V420.656H82.8406ZM93.8395 417.808C93.8395 415.2 92.0955 413.44 89.6475 413.44C87.1995 413.44 85.3915 415.248 85.3915 417.76C85.3915 420.288 87.2155 422.096 89.9515 422.096C91.3595 422.096 92.5275 421.616 93.2955 420.72L92.4475 419.728C91.8235 420.416 90.9915 420.752 89.9995 420.752C88.3195 420.752 87.1195 419.76 86.9275 418.272H93.8075C93.8235 418.128 93.8395 417.936 93.8395 417.808ZM89.6475 414.736C91.1355 414.736 92.2075 415.744 92.3675 417.168H86.9275C87.0875 415.728 88.1755 414.736 89.6475 414.736ZM96.2224 422H97.7584V418.448H102.59V422H104.126V413.52H102.59V417.12H97.7584V413.52H96.2224V422ZM107.113 422H108.649V418.448H113.481V422H115.017V413.52H113.481V417.12H108.649V413.52H107.113V422ZM121.828 416.4L119.54 416.384V413.52H118.004V422L121.572 422.016C123.844 422.032 125.124 421.008 125.124 419.168C125.124 417.424 123.972 416.416 121.828 416.4ZM126.388 422H127.924V413.52H126.388V422ZM121.46 420.848L119.54 420.832V417.504L121.46 417.536C122.852 417.552 123.572 418.032 123.572 419.152C123.572 420.288 122.836 420.864 121.46 420.848ZM137.95 422L134.574 417.664L137.774 413.52H136.094L133.774 416.576L131.438 413.52H129.726L132.91 417.664L129.566 422H131.278L133.758 418.752L136.206 422H137.95ZM152.199 413.52L148.775 419.248L145.447 413.52H143.863V422H145.271V415.792L148.407 421.04H149.079L152.247 415.808V422H153.639V413.52H152.199ZM164.293 417.808C164.293 415.2 162.549 413.44 160.101 413.44C157.653 413.44 155.845 415.248 155.845 417.76C155.845 420.288 157.669 422.096 160.405 422.096C161.813 422.096 162.981 421.616 163.749 420.72L162.901 419.728C162.277 420.416 161.445 420.752 160.453 420.752C158.773 420.752 157.573 419.76 157.381 418.272H164.261C164.277 418.128 164.293 417.936 164.293 417.808ZM160.101 414.736C161.589 414.736 162.661 415.744 162.821 417.168H157.381C157.541 415.728 158.629 414.736 160.101 414.736ZM172.636 413.52H164.892V414.864H167.996V422H169.532V414.864H172.636V413.52ZM177.231 413.44C175.871 413.44 174.607 413.824 173.727 414.528L174.367 415.68C175.023 415.12 176.047 414.768 177.055 414.768C178.575 414.768 179.327 415.52 179.327 416.816V417.12H176.895C174.367 417.12 173.487 418.24 173.487 419.6C173.487 421.072 174.703 422.096 176.623 422.096C177.951 422.096 178.895 421.648 179.407 420.88V422H180.863V416.88C180.863 414.56 179.551 413.44 177.231 413.44ZM176.879 420.912C175.711 420.912 175.007 420.384 175.007 419.536C175.007 418.816 175.439 418.224 176.959 418.224H179.327V419.408C178.943 420.384 178.031 420.912 176.879 420.912ZM184.397 413.52L184.253 416.656C184.141 418.656 184.077 420.736 182.701 420.736C182.589 420.736 182.461 420.72 182.317 420.688L182.221 421.984C182.573 422.08 182.877 422.128 183.165 422.128C185.085 422.128 185.485 419.744 185.629 416.752L185.725 414.864H189.373V422H190.909V413.52H184.397ZM194.647 413.52L194.503 416.656C194.391 418.656 194.327 420.736 192.951 420.736C192.839 420.736 192.711 420.72 192.567 420.688L192.471 421.984C192.823 422.08 193.127 422.128 193.415 422.128C195.335 422.128 195.735 419.744 195.879 416.752L195.975 414.864H199.623V422H201.159V413.52H194.647ZM207.761 422.096C210.305 422.096 212.161 420.288 212.161 417.76C212.161 415.232 210.305 413.44 207.761 413.44C205.217 413.44 203.345 415.232 203.345 417.76C203.345 420.288 205.217 422.096 207.761 422.096ZM207.761 420.752C206.129 420.752 204.897 419.568 204.897 417.76C204.897 415.952 206.129 414.784 207.761 414.784C209.393 414.784 210.609 415.952 210.609 417.76C210.609 419.568 209.393 420.752 207.761 420.752ZM220.155 417.6C221.003 417.264 221.515 416.608 221.515 415.696C221.515 414.304 220.315 413.52 218.315 413.52H214.379V422H218.459C220.715 422 221.803 421.136 221.803 419.664C221.803 418.592 221.275 417.888 220.155 417.6ZM215.883 414.704H218.187C219.355 414.704 219.979 415.104 219.979 415.92C219.979 416.736 219.355 417.168 218.187 417.168H215.883V414.704ZM218.347 420.816H215.883V418.272H218.443C219.707 418.272 220.267 418.688 220.267 419.568C220.267 420.432 219.611 420.816 218.347 420.816Z" fill="white"/>
<path d="M336.585 121.397C343.347 123.621 354.97 133.634 350.793 153.017C344.649 171.604 325.239 184.078 307.466 178.232C289.693 172.386 286.995 161.453 289.776 153.039C292.436 144.991 308.454 149.791 313.925 143.949C321.088 136.299 326.508 118.083 336.585 121.397Z" fill="url(#paint2_linear)"/>
<g clip-path="url(#clip0)">
<path d="M304.084 119.426C304.084 126.051 309.483 131.44 316.12 131.44C322.756 131.44 328.156 126.051 328.156 119.426C328.156 112.802 322.756 107.413 316.12 107.413C309.483 107.413 304.084 112.802 304.084 119.426ZM325.604 119.426C325.604 124.645 321.35 128.892 316.12 128.892C310.89 128.892 306.635 124.645 306.635 119.426C306.635 114.208 310.89 109.961 316.12 109.961C321.35 109.961 325.604 114.208 325.604 119.426Z" fill="white" stroke="white" stroke-width="0.4"/>
<path d="M303.322 157.318L303.323 157.316C304.234 156.408 304.531 155.079 304.177 153.9L305.209 152.906L305.209 152.906C305.776 152.36 306.522 152.059 307.311 152.059H321.615C324.203 152.059 326.65 151.067 328.506 149.267C328.516 149.259 328.524 149.251 328.533 149.242C328.547 149.226 328.573 149.197 328.627 149.133C328.739 149.001 328.989 148.703 329.558 148.023C329.766 147.776 330.015 147.477 330.316 147.118C331.67 145.503 334.058 142.652 338.282 137.614C339.885 135.721 339.645 132.879 337.747 131.277L337.746 131.277C335.862 129.692 333.04 129.918 331.432 131.774L325.239 138.126C324.402 137.196 323.19 136.624 321.884 136.624H309.926C308.204 135.911 306.379 135.55 304.497 135.55C299.3 135.55 294.74 137.926 292.256 142.396C291.214 142.245 290.132 142.579 289.344 143.365L289.344 143.365L284.225 148.489L284.225 148.489C283.729 148.986 283.728 149.789 284.223 150.287L284.223 150.287L296.305 162.437C296.305 162.437 296.305 162.437 296.305 162.437C296.799 162.934 297.604 162.94 298.106 162.447L297.965 162.304L298.106 162.447L303.322 157.318ZM336.329 135.973L336.329 135.974L326.685 147.481C325.314 148.791 323.516 149.511 321.615 149.511H307.311C305.857 149.511 304.481 150.066 303.437 151.073C303.437 151.073 303.437 151.073 303.437 151.073L302.664 151.817L294.478 143.649C296.427 140.113 300.019 138.098 304.497 138.098C306.118 138.098 307.684 138.423 309.154 139.065C309.315 139.136 309.489 139.172 309.665 139.172H321.884C322.943 139.172 323.837 140.034 323.837 141.12C323.837 142.193 322.961 143.068 321.884 143.068H313.105C312.401 143.068 311.829 143.638 311.829 144.341C311.829 145.046 312.401 145.615 313.105 145.615H321.884C324.368 145.615 326.388 143.599 326.388 141.12C326.388 140.954 326.379 140.791 326.361 140.629C328.329 138.61 329.751 137.152 330.774 136.102C331.326 135.536 331.762 135.089 332.106 134.736C332.6 134.229 332.904 133.917 333.087 133.729C333.261 133.549 333.332 133.476 333.348 133.457C334.044 132.637 335.28 132.533 336.101 133.224C336.923 133.918 337.027 135.149 336.329 135.973ZM292.236 145.044L292.237 145.044C292.262 145.06 292.268 145.063 292.271 145.064C292.273 145.065 292.273 145.065 292.279 145.069C292.29 145.078 292.314 145.098 292.378 145.158C292.503 145.277 292.753 145.526 293.303 146.076C293.52 146.292 293.783 146.555 294.103 146.875C295.402 148.174 297.639 150.411 301.519 154.279C301.869 154.627 301.85 155.184 301.526 155.508C301.526 155.509 301.525 155.509 301.525 155.509L297.221 159.741L286.929 149.391L291.15 145.166C291.15 145.166 291.15 145.166 291.15 145.166C291.439 144.878 291.881 144.825 292.236 145.044Z" fill="white" stroke="white" stroke-width="0.4"/>
<path d="M312.864 121.552L312.864 121.552C312.324 122.005 312.254 122.808 312.708 123.347C313.268 124.011 313.925 124.492 314.63 124.758V125.87C314.63 126.574 315.202 127.144 315.906 127.144C316.61 127.144 317.182 126.574 317.182 125.87V124.75C318.441 124.244 319.334 123.012 319.334 121.575C319.334 119.687 317.796 118.153 315.906 118.153C315.423 118.153 315.03 117.76 315.03 117.279C315.03 116.798 315.423 116.405 315.906 116.405C316.218 116.405 316.573 116.565 316.931 116.91L316.931 116.91C317.437 117.399 318.245 117.386 318.735 116.881L318.735 116.881C319.225 116.375 319.212 115.568 318.705 115.079L318.705 115.079C318.187 114.578 317.665 114.273 317.182 114.093V112.983C317.182 112.279 316.61 111.709 315.906 111.709C315.202 111.709 314.63 112.279 314.63 112.983V114.104C313.37 114.609 312.478 115.841 312.478 117.279C312.478 119.166 314.016 120.701 315.906 120.701C316.389 120.701 316.782 121.093 316.782 121.575C316.782 122.056 316.389 122.448 315.906 122.448C315.529 122.448 315.084 122.209 314.662 121.707L314.662 121.707C314.208 121.169 313.403 121.1 312.864 121.552Z" fill="white" stroke="white" stroke-width="0.4"/>
</g>
<path d="M285.744 203.8V215H287.328V205.192H293.824V215H295.392V203.8H285.744ZM303.125 206.44C301.877 206.44 300.789 206.92 300.101 207.864V206.52H298.629V218.104H300.165V213.72C300.869 214.632 301.925 215.096 303.125 215.096C305.605 215.096 307.413 213.368 307.413 210.76C307.413 208.168 305.605 206.44 303.125 206.44ZM302.997 213.752C301.381 213.752 300.149 212.568 300.149 210.76C300.149 208.968 301.381 207.784 302.997 207.784C304.629 207.784 305.861 208.968 305.861 210.76C305.861 212.568 304.629 213.752 302.997 213.752ZM317.308 210.808C317.308 208.2 315.564 206.44 313.116 206.44C310.668 206.44 308.86 208.248 308.86 210.76C308.86 213.288 310.684 215.096 313.42 215.096C314.828 215.096 315.996 214.616 316.764 213.72L315.916 212.728C315.292 213.416 314.46 213.752 313.468 213.752C311.788 213.752 310.588 212.76 310.396 211.272H317.276C317.292 211.128 317.308 210.936 317.308 210.808ZM313.116 207.736C314.604 207.736 315.676 208.744 315.836 210.168H310.396C310.556 208.728 311.644 207.736 313.116 207.736ZM328.027 206.52L324.603 212.248L321.275 206.52H319.691V215H321.099V208.792L324.235 214.04H324.907L328.075 208.808V215H329.467V206.52H328.027ZM332.457 215H333.865L339.049 208.824V215H340.585V206.52H339.193L333.993 212.696V206.52H332.457V215ZM343.566 215H344.974L350.158 208.824V215H351.694V206.52H350.302L345.102 212.696V206.52H343.566V215ZM362.604 215.096C365.148 215.096 367.004 213.288 367.004 210.76C367.004 208.232 365.148 206.44 362.604 206.44C360.06 206.44 358.188 208.232 358.188 210.76C358.188 213.288 360.06 215.096 362.604 215.096ZM362.604 213.752C360.972 213.752 359.74 212.568 359.74 210.76C359.74 208.952 360.972 207.784 362.604 207.784C364.236 207.784 365.452 208.952 365.452 210.76C365.452 212.568 364.236 213.752 362.604 213.752ZM375.23 206.52H367.486V207.864H370.59V215H372.126V207.864H375.23V206.52ZM379.737 203.8V205.192H382.265V215H383.849V203.8H379.737ZM390.875 215.128C393.483 215.128 395.435 213.048 395.435 209.4C395.435 205.752 393.483 203.672 390.875 203.672C388.251 203.672 386.299 205.752 386.299 209.4C386.299 213.048 388.251 215.128 390.875 215.128ZM390.875 213.704C389.115 213.704 387.899 212.264 387.899 209.4C387.899 206.536 389.115 205.096 390.875 205.096C392.619 205.096 393.835 206.536 393.835 209.4C393.835 212.264 392.619 213.704 390.875 213.704ZM405.844 215.128C408.452 215.128 410.404 213.048 410.404 209.4C410.404 205.752 408.452 203.672 405.844 203.672C403.22 203.672 401.268 205.752 401.268 209.4C401.268 213.048 403.22 215.128 405.844 215.128ZM405.844 213.704C404.084 213.704 402.868 212.264 402.868 209.4C402.868 206.536 404.084 205.096 405.844 205.096C407.588 205.096 408.804 206.536 408.804 209.4C408.804 212.264 407.588 213.704 405.844 213.704ZM416.516 215.128C419.124 215.128 421.076 213.048 421.076 209.4C421.076 205.752 419.124 203.672 416.516 203.672C413.892 203.672 411.94 205.752 411.94 209.4C411.94 213.048 413.892 215.128 416.516 215.128ZM416.516 213.704C414.756 213.704 413.54 212.264 413.54 209.4C413.54 206.536 414.756 205.096 416.516 205.096C418.26 205.096 419.476 206.536 419.476 209.4C419.476 212.264 418.26 213.704 416.516 213.704ZM427.188 215.128C429.796 215.128 431.748 213.048 431.748 209.4C431.748 205.752 429.796 203.672 427.188 203.672C424.564 203.672 422.612 205.752 422.612 209.4C422.612 213.048 424.564 215.128 427.188 215.128ZM427.188 213.704C425.428 213.704 424.212 212.264 424.212 209.4C424.212 206.536 425.428 205.096 427.188 205.096C428.932 205.096 430.148 206.536 430.148 209.4C430.148 212.264 428.932 213.704 427.188 213.704ZM292.816 233.656V226.52H286.24L286.112 229.384C286 231.528 285.792 233.592 284.576 233.656H284.128V236.968H285.584V235H292.672V236.968H294.112V233.656H292.816ZM287.52 229.496L287.6 227.864H291.28V233.656H286.528C287.296 232.984 287.456 231.256 287.52 229.496ZM299.745 235.096C302.289 235.096 304.145 233.288 304.145 230.76C304.145 228.232 302.289 226.44 299.745 226.44C297.201 226.44 295.329 228.232 295.329 230.76C295.329 233.288 297.201 235.096 299.745 235.096ZM299.745 233.752C298.113 233.752 296.881 232.568 296.881 230.76C296.881 228.952 298.113 227.784 299.745 227.784C301.377 227.784 302.593 228.952 302.593 230.76C302.593 232.568 301.377 233.752 299.745 233.752ZM309.3 223.8V225.192H311.828V235H313.412V223.8H309.3ZM329.215 226.52L325.791 232.248L322.463 226.52H320.879V235H322.287V228.792L325.423 234.04H326.095L329.263 228.808V235H330.655V226.52H329.215ZM334.412 226.52L334.268 229.656C334.156 231.656 334.092 233.736 332.716 233.736C332.604 233.736 332.476 233.72 332.332 233.688L332.236 234.984C332.588 235.08 332.892 235.128 333.18 235.128C335.1 235.128 335.5 232.744 335.644 229.752L335.74 227.864H339.388V235H340.924V226.52H334.412ZM343.894 235H345.43V231.448H350.262V235H351.798V226.52H350.262V230.12H345.43V226.52H343.894V235ZM355.121 235.096C355.697 235.096 356.177 234.632 356.177 233.992C356.177 233.352 355.697 232.904 355.121 232.904C354.529 232.904 354.033 233.352 354.033 233.992C354.033 234.632 354.529 235.096 355.121 235.096ZM367.203 226.44C365.955 226.44 364.867 226.92 364.179 227.864V226.52H362.707V238.104H364.243V233.72C364.947 234.632 366.003 235.096 367.203 235.096C369.683 235.096 371.491 233.368 371.491 230.76C371.491 228.168 369.683 226.44 367.203 226.44ZM367.075 233.752C365.459 233.752 364.227 232.568 364.227 230.76C364.227 228.968 365.459 227.784 367.075 227.784C368.707 227.784 369.939 228.968 369.939 230.76C369.939 232.568 368.707 233.752 367.075 233.752ZM379.552 226.52L376.624 233.304L373.664 226.52H372.064L375.808 234.984L375.536 235.576C375.12 236.552 374.656 236.888 373.92 236.888C373.344 236.888 372.816 236.664 372.4 236.264L371.744 237.416C372.272 237.928 373.104 238.2 373.92 238.2C375.216 238.2 376.192 237.64 376.944 235.848L381.056 226.52H379.552ZM386.839 226.808C385.415 226.808 384.215 227.432 383.495 228.52C383.655 226.312 384.695 225.224 386.903 224.744L390.471 223.976L390.247 222.568L386.375 223.432C383.447 224.072 382.023 225.976 382.023 229.48C382.023 233.048 383.639 235.128 386.535 235.128C389.127 235.128 390.919 233.432 390.919 230.936C390.919 228.504 389.239 226.808 386.839 226.808ZM386.567 233.848C384.935 233.848 383.767 232.664 383.767 230.984C383.767 229.304 384.903 228.184 386.567 228.184C388.231 228.184 389.351 229.304 389.351 230.984C389.351 232.664 388.215 233.848 386.567 233.848ZM393.819 226.52L393.674 229.656C393.562 231.656 393.499 233.736 392.123 233.736C392.011 233.736 391.883 233.72 391.739 233.688L391.643 234.984C391.995 235.08 392.299 235.128 392.587 235.128C394.507 235.128 394.907 232.744 395.051 229.752L395.147 227.864H398.795V235H400.331V226.52H393.819ZM410.965 230.808C410.965 228.2 409.221 226.44 406.773 226.44C404.325 226.44 402.517 228.248 402.517 230.76C402.517 233.288 404.341 235.096 407.077 235.096C408.485 235.096 409.653 234.616 410.421 233.72L409.573 232.728C408.949 233.416 408.117 233.752 407.125 233.752C405.445 233.752 404.245 232.76 404.053 231.272H410.933C410.949 231.128 410.965 230.936 410.965 230.808ZM406.773 227.736C408.261 227.736 409.333 228.744 409.493 230.168H404.053C404.213 228.728 405.301 227.736 406.773 227.736ZM417.315 225.416C418.867 225.416 419.811 224.648 419.843 223.208H418.771C418.755 224.008 418.179 224.52 417.299 224.52C416.435 224.52 415.859 224.008 415.843 223.208H414.803C414.819 224.648 415.763 225.416 417.315 225.416ZM413.347 235H414.755L419.939 228.824V235H421.475V226.52H420.083L414.883 232.696V226.52H413.347V235Z" fill="white"/>
<path d="M629.24 164.623C639.574 162.424 636.839 136.506 631.5 126.613C621.786 108.613 601.302 99.5392 579.659 110.867C572.229 114.755 566.609 124.015 571.354 133.024C575.893 141.642 594.963 141.762 602.738 147.106C612.918 154.105 613.314 168.011 629.24 164.623Z" fill="url(#paint3_linear)"/>
<path d="M569.744 203.8V215H571.328V205.192H577.824V215H579.392V203.8H569.744ZM588.693 206.52L585.765 213.304L582.805 206.52H581.205L584.949 214.984L584.677 215.576C584.261 216.552 583.797 216.888 583.061 216.888C582.485 216.888 581.957 216.664 581.541 216.264L580.885 217.416C581.413 217.928 582.245 218.2 583.061 218.2C584.357 218.2 585.333 217.64 586.085 215.848L590.197 206.52H588.693ZM598.136 206.52H590.392V207.864H593.496V215H595.032V207.864H598.136V206.52ZM606.996 210.808C606.996 208.2 605.252 206.44 602.804 206.44C600.356 206.44 598.548 208.248 598.548 210.76C598.548 213.288 600.372 215.096 603.108 215.096C604.516 215.096 605.684 214.616 606.452 213.72L605.604 212.728C604.98 213.416 604.148 213.752 603.156 213.752C601.476 213.752 600.276 212.76 600.084 211.272H606.964C606.98 211.128 606.996 210.936 606.996 210.808ZM602.804 207.736C604.292 207.736 605.364 208.744 605.524 210.168H600.084C600.244 208.728 601.332 207.736 602.804 207.736ZM619.923 206.52V213.656H616.195V206.52H614.659V213.656H610.915V206.52H609.379V215H621.459V206.52H619.923ZM632.105 210.808C632.105 208.2 630.361 206.44 627.913 206.44C625.465 206.44 623.657 208.248 623.657 210.76C623.657 213.288 625.481 215.096 628.217 215.096C629.625 215.096 630.793 214.616 631.561 213.72L630.713 212.728C630.089 213.416 629.257 213.752 628.265 213.752C626.585 213.752 625.385 212.76 625.193 211.272H632.073C632.089 211.128 632.105 210.936 632.105 210.808ZM627.913 207.736C629.401 207.736 630.473 208.744 630.633 210.168H625.193C625.353 208.728 626.441 207.736 627.913 207.736ZM638.184 215.096C639.704 215.096 640.968 214.456 641.64 213.272L640.472 212.536C639.928 213.368 639.096 213.752 638.168 213.752C636.504 213.752 635.256 212.6 635.256 210.76C635.256 208.952 636.504 207.784 638.168 207.784C639.096 207.784 639.928 208.168 640.472 209L641.64 208.248C640.968 207.064 639.704 206.44 638.184 206.44C635.576 206.44 633.704 208.232 633.704 210.76C633.704 213.288 635.576 215.096 638.184 215.096ZM649.839 206.52H642.095V207.864H645.199V215H646.735V207.864H649.839V206.52ZM657.186 210.6C658.034 210.264 658.546 209.608 658.546 208.696C658.546 207.304 657.346 206.52 655.346 206.52H651.41V215H655.49C657.746 215 658.834 214.136 658.834 212.664C658.834 211.592 658.306 210.888 657.186 210.6ZM652.914 207.704H655.218C656.386 207.704 657.01 208.104 657.01 208.92C657.01 209.736 656.386 210.168 655.218 210.168H652.914V207.704ZM655.378 213.816H652.914V211.272H655.474C656.738 211.272 657.298 211.688 657.298 212.568C657.298 213.432 656.642 213.816 655.378 213.816ZM661.238 215H662.646L667.83 208.824V215H669.366V206.52H667.974L662.774 212.696V206.52H661.238V215ZM675.435 206.52C673.163 206.52 671.707 207.528 671.707 209.496C671.707 210.84 672.427 211.72 673.691 212.104L671.627 215H673.275L675.131 212.312H675.307H677.771V215H679.147V206.52H675.435ZM673.275 209.544C673.275 208.36 674.075 207.864 675.483 207.864H677.771V211.208H675.419C673.995 211.208 673.275 210.68 673.275 209.544ZM686.441 206.52V215H687.977V207.864H692.761V215H694.297V206.52H686.441ZM700.901 215.096C703.445 215.096 705.301 213.288 705.301 210.76C705.301 208.232 703.445 206.44 700.901 206.44C698.357 206.44 696.485 208.232 696.485 210.76C696.485 213.288 698.357 215.096 700.901 215.096ZM700.901 213.752C699.269 213.752 698.037 212.568 698.037 210.76C698.037 208.952 699.269 207.784 700.901 207.784C702.533 207.784 703.749 208.952 703.749 210.76C703.749 212.568 702.533 213.752 700.901 213.752ZM720.152 206.52L716.728 212.248L713.4 206.52H711.816V215H713.224V208.792L716.36 214.04H717.032L720.2 208.808V215H721.592V206.52H720.152ZM724.582 215H725.99L731.174 208.824V215H732.71V206.52H731.318L726.118 212.696V206.52H724.582V215ZM740.187 206.44C738.939 206.44 737.851 206.92 737.163 207.864V206.52H735.691V218.104H737.227V213.72C737.931 214.632 738.987 215.096 740.187 215.096C742.667 215.096 744.475 213.368 744.475 210.76C744.475 208.168 742.667 206.44 740.187 206.44ZM740.059 213.752C738.443 213.752 737.211 212.568 737.211 210.76C737.211 208.968 738.443 207.784 740.059 207.784C741.691 207.784 742.923 208.968 742.923 210.76C742.923 212.568 741.691 213.752 740.059 213.752ZM752.536 206.52L749.608 213.304L746.648 206.52H745.048L748.792 214.984L748.52 215.576C748.104 216.552 747.64 216.888 746.904 216.888C746.328 216.888 745.8 216.664 745.384 216.264L744.728 217.416C745.256 217.928 746.088 218.2 746.904 218.2C748.2 218.2 749.176 217.64 749.928 215.848L754.04 206.52H752.536Z" fill="white"/>
<g clip-path="url(#clip1)">
<path d="M619.365 141.84L619.365 141.84L618.025 143.18L620.224 150.561L620.224 150.561C620.341 150.954 620.234 151.38 619.943 151.67L617.992 153.621C617.513 154.101 616.701 154.038 616.301 153.491L605.847 139.208C605.482 138.71 605.59 138.011 606.088 137.647L606.088 137.647C606.585 137.283 607.284 137.391 607.648 137.888C607.648 137.888 607.648 137.888 607.648 137.888L617.334 151.121L617.894 150.561L610.893 127.06C608.795 129.038 606.514 131.117 604.203 133.182L605.622 135.12L605.622 135.12C605.95 135.568 605.895 136.205 605.491 136.588C605.008 137.047 604.215 136.979 603.82 136.439L603.82 136.439L602.527 134.673C597.846 138.819 593.185 142.798 589.789 145.664L591.863 151.057C592.022 151.469 591.923 151.936 591.611 152.248L589.298 154.561C588.866 154.993 588.151 154.993 587.719 154.56L576.155 142.996C575.719 142.56 575.719 141.854 576.155 141.418L576.155 141.417L578.468 139.105C578.78 138.792 579.246 138.694 579.658 138.852L579.658 138.852L585.052 140.927C587.917 137.53 591.897 132.87 596.043 128.188L577.225 114.414C577.225 114.414 577.225 114.414 577.225 114.414C576.678 114.014 576.615 113.203 577.095 112.724M619.365 141.84L577.342 112.972M619.365 141.84C620.438 140.767 620.438 139.021 619.365 137.948L619.365 137.948M619.365 141.84L619.365 137.948M577.095 112.724L577.342 112.972M577.095 112.724L577.095 112.724L577.342 112.972M577.095 112.724L579.046 110.773L579.294 111.02M577.342 112.972L579.294 111.02M579.294 111.02L579.046 110.773L579.046 110.773L579.294 111.02ZM619.365 137.948C618.846 137.429 618.154 137.142 617.419 137.142C617.027 137.142 616.646 137.224 616.298 137.38L616.168 136.943L617.63 135.48C617.63 135.48 617.63 135.48 617.63 135.48C618.704 134.406 618.704 132.661 617.63 131.588C616.763 130.721 615.459 130.556 614.424 131.09L612.708 125.33C613.416 124.647 614.096 123.981 614.739 123.338L614.739 123.338M619.365 137.948L614.739 123.338M614.739 123.338C616.739 121.338 618.376 119.211 619.342 117.341L619.342 117.341M614.739 123.338L619.342 117.341M619.342 117.341C620.159 115.759 620.417 114.507 620.337 113.518C620.257 112.522 619.838 111.823 619.365 111.351M619.342 117.341L613.374 111.374M613.374 111.374L613.374 111.374C614.957 110.556 616.208 110.299 617.197 110.379C618.194 110.459 618.892 110.878 619.365 111.351M613.374 111.374C611.505 112.34 609.378 113.977 607.378 115.976M613.374 111.374L599.626 116.292M619.365 111.351L619.117 111.598L619.365 111.351C619.365 111.351 619.365 111.351 619.365 111.351ZM599.626 116.292L605.385 118.007C606.069 117.299 606.735 116.62 607.378 115.976M599.626 116.292C600.159 115.257 599.995 113.953 599.128 113.085L599.128 113.085C598.054 112.012 596.309 112.012 595.236 113.085C595.236 113.085 595.236 113.085 595.236 113.085L593.773 114.548L593.336 114.418C593.491 114.069 593.573 113.689 593.573 113.296C593.573 112.562 593.286 111.87 592.767 111.351C591.694 110.277 589.949 110.277 588.876 111.351C588.876 111.351 588.876 111.351 588.876 111.351L599.626 116.292ZM607.378 115.976L607.626 116.224M607.378 115.976L607.626 116.224M607.626 116.224C609.608 114.241 611.707 112.629 613.535 111.685L605.49 118.404C606.223 117.641 606.938 116.912 607.626 116.224ZM587.536 112.69L587.388 112.838L587.636 113.085L587.736 112.75L587.536 112.69ZM596.276 127.925L596.559 128.133C596.482 128.221 596.404 128.308 596.326 128.396L596.276 127.925ZM596.815 114.664L596.815 114.664C597.013 114.466 597.351 114.466 597.549 114.664C597.751 114.866 597.751 115.196 597.549 115.398L597.337 115.61L596.206 115.273L596.815 114.664ZM590.455 112.93L590.455 112.93C590.657 112.728 590.986 112.728 591.188 112.93C591.391 113.132 591.391 113.461 591.189 113.663L591.188 113.663L591.1 113.752L589.969 113.415L590.455 112.93ZM608.957 117.555L608.957 117.555C610.788 115.725 612.774 114.198 614.399 113.358L614.399 113.358C615.012 113.041 615.707 112.751 616.339 112.641C616.978 112.53 617.47 112.614 617.786 112.93C618.102 113.245 618.186 113.737 618.075 114.377C617.964 115.009 617.674 115.704 617.358 116.317C616.518 117.942 614.991 119.928 613.16 121.758C604.083 130.836 587.714 144.516 583.954 147.637L583.079 146.762C586.199 143.002 599.879 126.633 608.957 117.555ZM615.318 133.167L615.318 133.167C615.519 132.965 615.849 132.965 616.052 133.167C616.25 133.365 616.25 133.703 616.052 133.901L615.442 134.51L615.106 133.379L615.318 133.167ZM580.155 112.822L603.656 119.822C601.678 121.921 599.599 124.201 597.533 126.512L579.595 113.382L580.155 112.822ZM578.524 142.207L579.534 141.197L583.531 142.734C582.671 143.76 581.977 144.592 581.493 145.176L578.524 142.207ZM587.981 147.184L589.519 151.182L588.509 152.192L585.54 149.223C586.123 148.738 586.956 148.044 587.981 147.184ZM617.052 139.527C617.254 139.325 617.584 139.325 617.786 139.527C617.988 139.729 617.988 140.059 617.786 140.261L617.3 140.747L616.963 139.616L617.052 139.527Z" fill="white" stroke="white" stroke-width="0.7"/>
</g>
<path d="M293.328 390.8L289.6 397.904L285.968 390.8H284.256L288.768 399.296L288.512 399.696C288.016 400.496 287.424 400.816 286.768 400.816C286.432 400.816 286.08 400.736 285.712 400.608L285.296 401.888C285.808 402.112 286.32 402.224 286.8 402.224C288.016 402.224 289.136 401.536 289.936 400.032L294.912 390.8H293.328ZM301.267 393.52V397.392C300.451 397.744 299.619 397.952 298.851 397.952C297.555 397.952 296.755 397.376 296.755 396.176V393.52H295.219V396.272C295.219 398.288 296.467 399.216 298.531 399.216C299.475 399.216 300.403 398.976 301.267 398.576V402H302.803V393.52H301.267ZM308.809 393.44C307.449 393.44 306.185 393.824 305.305 394.528L305.945 395.68C306.601 395.12 307.625 394.768 308.633 394.768C310.153 394.768 310.905 395.52 310.905 396.816V397.12H308.473C305.945 397.12 305.065 398.24 305.065 399.6C305.065 401.072 306.281 402.096 308.201 402.096C309.529 402.096 310.473 401.648 310.985 400.88V402H312.441V396.88C312.441 394.56 311.129 393.44 308.809 393.44ZM308.457 400.912C307.289 400.912 306.585 400.384 306.585 399.536C306.585 398.816 307.017 398.224 308.537 398.224H310.905V399.408C310.521 400.384 309.609 400.912 308.457 400.912ZM318.903 402.096C320.423 402.096 321.687 401.456 322.359 400.272L321.191 399.536C320.647 400.368 319.815 400.752 318.887 400.752C317.223 400.752 315.975 399.6 315.975 397.76C315.975 395.952 317.223 394.784 318.887 394.784C319.815 394.784 320.647 395.168 321.191 396L322.359 395.248C321.687 394.064 320.423 393.44 318.903 393.44C316.295 393.44 314.423 395.232 314.423 397.76C314.423 400.288 316.295 402.096 318.903 402.096ZM330.558 393.52H322.814V394.864H325.918V402H327.454V394.864H330.558V393.52ZM332.129 402H333.537L338.721 395.824V402H340.257V393.52H338.865L333.665 399.696V393.52H332.129V402ZM350.902 397.808C350.902 395.2 349.158 393.44 346.71 393.44C344.262 393.44 342.454 395.248 342.454 397.76C342.454 400.288 344.278 402.096 347.014 402.096C348.422 402.096 349.59 401.616 350.358 400.72L349.51 399.728C348.886 400.416 348.054 400.752 347.062 400.752C345.382 400.752 344.182 399.76 343.99 398.272H350.87C350.886 398.128 350.902 397.936 350.902 397.808ZM346.71 394.736C348.198 394.736 349.27 395.744 349.43 397.168H343.99C344.15 395.728 345.238 394.736 346.71 394.736ZM363.358 397.6C364.206 397.264 364.718 396.608 364.718 395.696C364.718 394.304 363.518 393.52 361.518 393.52H357.582V402H361.662C363.918 402 365.006 401.136 365.006 399.664C365.006 398.592 364.478 397.888 363.358 397.6ZM359.086 394.704H361.39C362.558 394.704 363.182 395.104 363.182 395.92C363.182 396.736 362.558 397.168 361.39 397.168H359.086V394.704ZM361.55 400.816H359.086V398.272H361.646C362.91 398.272 363.47 398.688 363.47 399.568C363.47 400.432 362.814 400.816 361.55 400.816ZM376.299 397.584C377.227 397.248 377.835 396.56 377.835 395.712C377.835 394.336 376.315 393.408 374.251 393.408C373.163 393.408 372.107 393.632 371.003 394.192L371.419 395.376C372.347 394.944 373.227 394.72 374.091 394.72C375.387 394.72 376.251 395.168 376.251 395.936C376.251 396.656 375.531 397.072 374.395 397.072H372.955V398.176H374.507C375.755 398.176 376.491 398.624 376.491 399.408C376.491 400.272 375.547 400.8 374.107 400.8C373.067 400.8 371.947 400.512 371.131 399.984L370.667 401.152C371.611 401.76 372.859 402.112 374.123 402.112C376.379 402.112 378.075 401.072 378.075 399.536C378.075 398.56 377.435 397.872 376.299 397.584ZM383.434 393.44C382.074 393.44 380.81 393.824 379.93 394.528L380.57 395.68C381.226 395.12 382.25 394.768 383.258 394.768C384.778 394.768 385.53 395.52 385.53 396.816V397.12H383.098C380.57 397.12 379.69 398.24 379.69 399.6C379.69 401.072 380.906 402.096 382.826 402.096C384.154 402.096 385.098 401.648 385.61 400.88V402H387.066V396.88C387.066 394.56 385.754 393.44 383.434 393.44ZM383.082 400.912C381.914 400.912 381.21 400.384 381.21 399.536C381.21 398.816 381.642 398.224 383.162 398.224H385.53V399.408C385.146 400.384 384.234 400.912 383.082 400.912ZM395.976 402H397.784L394.344 397.6L397.56 393.52H395.912L393.16 397.104H391.368V393.52H389.832V402H391.368V398.416H393.128L395.976 402ZM403.89 393.44C402.642 393.44 401.554 393.92 400.866 394.864V393.52H399.394V405.104H400.93V400.72C401.634 401.632 402.69 402.096 403.89 402.096C406.37 402.096 408.178 400.368 408.178 397.76C408.178 395.168 406.37 393.44 403.89 393.44ZM403.762 400.752C402.146 400.752 400.914 399.568 400.914 397.76C400.914 395.968 402.146 394.784 403.762 394.784C405.394 394.784 406.626 395.968 406.626 397.76C406.626 399.568 405.394 400.752 403.762 400.752ZM414.234 396.4L411.946 396.384V393.52H410.41V402L413.978 402.016C416.25 402.032 417.53 401.008 417.53 399.168C417.53 397.424 416.378 396.416 414.234 396.4ZM418.794 402H420.33V393.52H418.794V402ZM413.866 400.848L411.946 400.832V397.504L413.866 397.536C415.258 397.552 415.978 398.032 415.978 399.152C415.978 400.288 415.242 400.864 413.866 400.848ZM429.636 393.52H421.892V394.864H424.996V402H426.532V394.864H429.636V393.52ZM434.464 402.096C437.008 402.096 438.864 400.288 438.864 397.76C438.864 395.232 437.008 393.44 434.464 393.44C431.92 393.44 430.048 395.232 430.048 397.76C430.048 400.288 431.92 402.096 434.464 402.096ZM434.464 400.752C432.832 400.752 431.6 399.568 431.6 397.76C431.6 395.952 432.832 394.784 434.464 394.784C436.096 394.784 437.312 395.952 437.312 397.76C437.312 399.568 436.096 400.752 434.464 400.752ZM449.418 393.52L445.994 399.248L442.666 393.52H441.082V402H442.49V395.792L445.626 401.04H446.298L449.466 395.808V402H450.858V393.52H449.418ZM464.288 402H466.096L462.656 397.6L465.872 393.52H464.224L461.472 397.104H459.68V393.52H458.144V402H459.68V398.416H461.44L464.288 402ZM468.475 393.52L468.331 396.656C468.219 398.656 468.155 400.736 466.779 400.736C466.667 400.736 466.539 400.72 466.395 400.688L466.299 401.984C466.651 402.08 466.955 402.128 467.243 402.128C469.163 402.128 469.563 399.744 469.707 396.752L469.803 394.864H473.451V402H474.987V393.52H468.475ZM484.021 393.52L481.093 400.304L478.133 393.52H476.533L480.277 401.984L480.005 402.576C479.589 403.552 479.125 403.888 478.389 403.888C477.813 403.888 477.285 403.664 476.869 403.264L476.213 404.416C476.741 404.928 477.573 405.2 478.389 405.2C479.685 405.2 480.661 404.64 481.413 402.848L485.525 393.52H484.021ZM491.308 393.808C489.884 393.808 488.684 394.432 487.964 395.52C488.124 393.312 489.164 392.224 491.372 391.744L494.94 390.976L494.716 389.568L490.844 390.432C487.916 391.072 486.492 392.976 486.492 396.48C486.492 400.048 488.108 402.128 491.004 402.128C493.596 402.128 495.388 400.432 495.388 397.936C495.388 395.504 493.708 393.808 491.308 393.808ZM491.036 400.848C489.404 400.848 488.236 399.664 488.236 397.984C488.236 396.304 489.372 395.184 491.036 395.184C492.7 395.184 493.82 396.304 493.82 397.984C493.82 399.664 492.684 400.848 491.036 400.848ZM505.246 397.808C505.246 395.2 503.502 393.44 501.054 393.44C498.606 393.44 496.798 395.248 496.798 397.76C496.798 400.288 498.622 402.096 501.358 402.096C502.766 402.096 503.934 401.616 504.702 400.72L503.854 399.728C503.23 400.416 502.398 400.752 501.406 400.752C499.726 400.752 498.526 399.76 498.334 398.272H505.214C505.23 398.128 505.246 397.936 505.246 397.808ZM501.054 394.736C502.542 394.736 503.614 395.744 503.774 397.168H498.334C498.494 395.728 499.582 394.736 501.054 394.736ZM285.488 413.52V422H287.024V414.864H291.808V422H293.344V413.52H285.488ZM300.812 413.44C299.564 413.44 298.476 413.92 297.788 414.864V413.52H296.316V425.104H297.852V420.72C298.556 421.632 299.612 422.096 300.812 422.096C303.292 422.096 305.1 420.368 305.1 417.76C305.1 415.168 303.292 413.44 300.812 413.44ZM300.684 420.752C299.068 420.752 297.836 419.568 297.836 417.76C297.836 415.968 299.068 414.784 300.684 414.784C302.316 414.784 303.548 415.968 303.548 417.76C303.548 419.568 302.316 420.752 300.684 420.752ZM314.996 417.808C314.996 415.2 313.252 413.44 310.804 413.44C308.356 413.44 306.548 415.248 306.548 417.76C306.548 420.288 308.372 422.096 311.108 422.096C312.516 422.096 313.684 421.616 314.452 420.72L313.604 419.728C312.98 420.416 312.148 420.752 311.156 420.752C309.476 420.752 308.276 419.76 308.084 418.272H314.964C314.98 418.128 314.996 417.936 314.996 417.808ZM310.804 414.736C312.292 414.736 313.364 415.744 313.524 417.168H308.084C308.244 415.728 309.332 414.736 310.804 414.736ZM324.566 420.656V413.52H317.99L317.862 416.384C317.75 418.528 317.542 420.592 316.326 420.656H315.878V423.968H317.334V422H324.422V423.968H325.862V420.656H324.566ZM319.27 416.496L319.35 414.864H323.03V420.656H318.278C319.046 419.984 319.206 418.256 319.27 416.496ZM327.863 413.52V422H329.399V414.864H334.183V422H335.719V413.52H327.863ZM343.187 413.44C341.939 413.44 340.851 413.92 340.163 414.864V413.52H338.691V425.104H340.227V420.72C340.931 421.632 341.987 422.096 343.187 422.096C345.667 422.096 347.475 420.368 347.475 417.76C347.475 415.168 345.667 413.44 343.187 413.44ZM343.059 420.752C341.443 420.752 340.211 419.568 340.211 417.76C340.211 415.968 341.443 414.784 343.059 414.784C344.691 414.784 345.923 415.968 345.923 417.76C345.923 419.568 344.691 420.752 343.059 420.752ZM349.707 422H351.115L356.299 415.824V422H357.835V413.52H356.443L351.243 419.696V413.52H349.707V422ZM360.816 422H362.352V418.448H367.184V422H368.72V413.52H367.184V417.12H362.352V413.52H360.816V422ZM371.707 422H373.115L378.299 415.824V422H379.835V413.52H378.443L373.243 419.696V413.52H371.707V422ZM391.152 413.52L387.728 419.248L384.4 413.52H382.816V422H384.224V415.792L387.36 421.04H388.032L391.2 415.808V422H392.592V413.52H391.152ZM398.606 413.44C397.246 413.44 395.982 413.824 395.102 414.528L395.742 415.68C396.398 415.12 397.422 414.768 398.43 414.768C399.95 414.768 400.702 415.52 400.702 416.816V417.12H398.27C395.742 417.12 394.862 418.24 394.862 419.6C394.862 421.072 396.078 422.096 397.998 422.096C399.326 422.096 400.27 421.648 400.782 420.88V422H402.238V416.88C402.238 414.56 400.926 413.44 398.606 413.44ZM398.254 420.912C397.086 420.912 396.382 420.384 396.382 419.536C396.382 418.816 396.814 418.224 398.334 418.224H400.702V419.408C400.318 420.384 399.406 420.912 398.254 420.912ZM411.324 413.52H403.58V414.864H406.684V422H408.22V414.864H411.324V413.52ZM420.183 417.808C420.183 415.2 418.439 413.44 415.991 413.44C413.543 413.44 411.735 415.248 411.735 417.76C411.735 420.288 413.559 422.096 416.295 422.096C417.703 422.096 418.871 421.616 419.639 420.72L418.791 419.728C418.167 420.416 417.335 420.752 416.343 420.752C414.663 420.752 413.463 419.76 413.271 418.272H420.151C420.167 418.128 420.183 417.936 420.183 417.808ZM415.991 414.736C417.479 414.736 418.551 415.744 418.711 417.168H413.271C413.431 415.728 414.519 414.736 415.991 414.736ZM423.194 413.52L423.049 416.656C422.938 418.656 422.874 420.736 421.498 420.736C421.386 420.736 421.258 420.72 421.114 420.688L421.018 421.984C421.37 422.08 421.674 422.128 421.962 422.128C423.882 422.128 424.282 419.744 424.426 416.752L424.522 414.864H428.17V422H429.706V413.52H423.194ZM440.34 417.808C440.34 415.2 438.596 413.44 436.148 413.44C433.7 413.44 431.892 415.248 431.892 417.76C431.892 420.288 433.716 422.096 436.452 422.096C437.86 422.096 439.028 421.616 439.796 420.72L438.948 419.728C438.324 420.416 437.492 420.752 436.5 420.752C434.82 420.752 433.62 419.76 433.428 418.272H440.308C440.324 418.128 440.34 417.936 440.34 417.808ZM436.148 414.736C437.636 414.736 438.708 415.744 438.868 417.168H433.428C433.588 415.728 434.676 414.736 436.148 414.736ZM446.69 412.416C448.242 412.416 449.186 411.648 449.218 410.208H448.146C448.13 411.008 447.554 411.52 446.674 411.52C445.81 411.52 445.234 411.008 445.218 410.208H444.178C444.194 411.648 445.138 412.416 446.69 412.416ZM442.722 422H444.13L449.314 415.824V422H450.85V413.52H449.458L444.258 419.696V413.52H442.722V422Z" fill="white"/>
<path d="M361.556 332.458C364.351 323.146 348.501 312.387 328.993 313.92C310.878 315.344 284.479 330.1 285.204 352.21C285.452 359.8 291.824 367.991 302.913 367.599C313.521 367.223 322.769 351.658 331.723 347.365C343.447 341.744 357.247 346.811 361.556 332.458Z" fill="url(#paint4_linear)"/>
<g clip-path="url(#clip2)">
<path d="M328.787 350.719C328.787 351.558 329.467 352.237 330.306 352.237C331.144 352.237 331.823 351.558 331.823 350.719C331.823 340.737 323.703 332.616 313.72 332.616C303.738 332.616 295.617 340.737 295.617 350.719C295.617 351.558 296.297 352.237 297.135 352.237C297.973 352.237 298.653 351.558 298.653 350.719C298.653 342.412 305.413 335.652 313.72 335.652C322.028 335.652 328.787 342.412 328.787 350.719Z" fill="white" stroke="white" stroke-width="0.4"/>
<path d="M303.135 324.575C303.135 330.412 307.884 335.16 313.721 335.16C319.558 335.16 324.306 330.412 324.306 324.575C324.306 318.739 319.558 313.991 313.721 313.991C307.884 313.991 303.135 318.739 303.135 324.575ZM306.172 324.575C306.172 320.414 309.558 317.027 313.721 317.027C317.883 317.027 321.269 320.414 321.269 324.575C321.269 328.738 317.883 332.124 313.721 332.124C309.558 332.124 306.172 328.738 306.172 324.575Z" fill="white" stroke="white" stroke-width="0.4"/>
<path d="M306.715 334.011L306.715 334.011C304.214 332.565 301.605 331.829 298.962 331.829C290.323 331.829 283.8 338.322 283.8 346.928C283.8 347.766 284.48 348.446 285.318 348.446H295.464C296.303 348.446 296.983 347.766 296.983 346.928C296.983 346.09 296.303 345.409 295.464 345.409H286.923C287.627 339.301 292.563 334.865 298.962 334.865C301.058 334.865 303.154 335.459 305.195 336.641L305.195 336.641C305.921 337.06 306.85 336.812 307.27 336.086L307.27 336.086C307.689 335.36 307.441 334.432 306.715 334.011Z" fill="white" stroke="white" stroke-width="0.4"/>
<path d="M305.395 319.266L305.395 319.266C303.693 317.565 301.43 316.628 299.023 316.628C294.054 316.628 290.012 320.669 290.012 325.638C290.012 330.607 294.054 334.649 299.023 334.649C301.978 334.649 304.747 333.196 306.432 330.767C306.911 330.078 306.738 329.132 306.049 328.654C305.36 328.176 304.415 328.347 303.937 329.037L303.937 329.037C302.819 330.649 300.982 331.613 299.023 331.613C295.729 331.613 293.049 328.931 293.049 325.638C293.049 322.344 295.729 319.664 299.023 319.664C300.62 319.664 302.118 320.285 303.248 321.414C303.84 322.007 304.802 322.007 305.395 321.414C305.988 320.822 305.988 319.859 305.395 319.266Z" fill="white" stroke="white" stroke-width="0.4"/>
<path d="M323.854 333.553C323.887 334.301 324.463 334.912 325.207 334.992C330.933 335.612 335.363 339.973 336.066 345.409H330.618C329.779 345.409 329.099 346.089 329.099 346.927C329.099 347.765 329.779 348.446 330.618 348.446H337.682C338.52 348.446 339.2 347.765 339.2 346.927C339.2 340.709 335.35 335.313 329.754 333.036C331.731 331.392 332.938 328.947 332.938 326.225C332.938 321.289 328.507 316.975 323.458 316.975C322.62 316.975 321.939 317.654 321.939 318.494C321.939 319.333 322.62 320.012 323.458 320.012C326.831 320.012 329.902 322.985 329.902 326.225C329.902 329.046 327.92 331.42 325.069 331.995C324.335 332.143 323.819 332.805 323.854 333.553ZM323.854 333.553C323.854 333.553 323.854 333.553 323.854 333.553L324.054 333.544L323.854 333.552C323.854 333.553 323.854 333.553 323.854 333.553ZM336.291 345.609C336.284 345.542 336.276 345.476 336.268 345.409L336.291 345.609Z" fill="white" stroke="white" stroke-width="0.4"/>
</g>
<defs>
<linearGradient id="paint0_linear" x1="1" y1="116.613" x2="81" y2="192.613" gradientUnits="userSpaceOnUse">
<stop stop-color="#F09642" stop-opacity="0.78"/>
<stop offset="1" stop-color="#F0D542" stop-opacity="0.79"/>
</linearGradient>
<linearGradient id="paint1_linear" x1="1" y1="311.613" x2="70.622" y2="370.939" gradientUnits="userSpaceOnUse">
<stop stop-color="#F09642" stop-opacity="0.78"/>
<stop offset="1" stop-color="#F0D542" stop-opacity="0.79"/>
</linearGradient>
<linearGradient id="paint2_linear" x1="284" y1="170.514" x2="362.081" y2="123.087" gradientUnits="userSpaceOnUse">
<stop stop-color="#F09642" stop-opacity="0.78"/>
<stop offset="1" stop-color="#F0D542" stop-opacity="0.79"/>
</linearGradient>
<linearGradient id="paint3_linear" x1="564" y1="119.062" x2="656.564" y2="150.292" gradientUnits="userSpaceOnUse">
<stop stop-color="#F09642" stop-opacity="0.78"/>
<stop offset="1" stop-color="#F0D542" stop-opacity="0.79"/>
</linearGradient>
<linearGradient id="paint4_linear" x1="285.728" y1="368.207" x2="346.663" y2="293.2" gradientUnits="userSpaceOnUse">
<stop stop-color="#F09642" stop-opacity="0.78"/>
<stop offset="1" stop-color="#F0D542" stop-opacity="0.79"/>
</linearGradient>
<clipPath id="clip0">
<rect width="55" height="55" fill="white" transform="translate(284 107.613)"/>
</clipPath>
<clipPath id="clip1">
<rect width="52" height="52" fill="white" transform="translate(568 110.613)"/>
</clipPath>
<clipPath id="clip2">
<rect width="55" height="55" fill="white" transform="translate(284 305.613)"/>
</clipPath>
</defs>
</svg>
