<svg width="569" height="294" viewBox="0 0 569 294" fill="none" xmlns="http://www.w3.org/2000/svg">
<path d="M24.88 24.4C26.5867 24.9067 27.8933 25.7333 28.8 26.88C29.7067 28.0267 30.16 29.44 30.16 31.12C30.16 33.6 29.2133 35.5333 27.32 36.92C25.4533 38.3067 22.7733 39 19.28 39H5.48V11H18.52C21.7733 11 24.3067 11.6267 26.12 12.88C27.9333 14.1333 28.84 15.92 28.84 18.24C28.84 19.6267 28.4933 20.8533 27.8 21.92C27.1067 22.96 26.1333 23.7867 24.88 24.4ZM11.92 22.6H17.96C19.3733 22.6 20.44 22.32 21.16 21.76C21.88 21.1733 22.24 20.32 22.24 19.2C22.24 18.1067 21.8667 17.2667 21.12 16.68C20.4 16.0933 19.3467 15.8 17.96 15.8H11.92V22.6ZM19.04 34.2C22.08 34.2 23.6 33 23.6 30.6C23.6 28.28 22.08 27.12 19.04 27.12H11.92V34.2H19.04ZM48.8447 20.2C52.258 20.2 54.8714 20.96 56.6847 22.48C58.5247 24 59.4447 26.2533 59.4447 29.24C59.4447 32.4133 58.4314 34.84 56.4047 36.52C54.4047 38.1733 51.578 39 47.9247 39H35.2847V11H41.7247V20.2H48.8447ZM47.5647 34.2C49.2447 34.2 50.5514 33.7867 51.4847 32.96C52.4447 32.1333 52.9247 30.9333 52.9247 29.36C52.9247 26.4533 51.138 25 47.5647 25H41.7247V34.2H47.5647ZM63.0047 11H69.4447V39H63.0047V11ZM81.4575 11L87.2575 19.48L93.0575 11H100.658L91.3375 24.4L101.418 39H93.7775L87.2575 29.72L80.8175 39H73.3375L83.3375 24.68L73.9775 11H81.4575ZM117.629 39.48C114.722 39.48 112.096 38.8533 109.749 37.6C107.429 36.3467 105.602 34.6267 104.269 32.44C102.962 30.2267 102.309 27.7467 102.309 25C102.309 22.2533 102.962 19.7867 104.269 17.6C105.602 15.3867 107.429 13.6533 109.749 12.4C112.096 11.1467 114.722 10.52 117.629 10.52C120.536 10.52 123.149 11.1467 125.469 12.4C127.789 13.6533 129.616 15.3867 130.949 17.6C132.282 19.7867 132.949 22.2533 132.949 25C132.949 27.7467 132.282 30.2267 130.949 32.44C129.616 34.6267 127.789 36.3467 125.469 37.6C123.149 38.8533 120.536 39.48 117.629 39.48ZM117.629 33.96C119.282 33.96 120.776 33.5867 122.109 32.84C123.442 32.0667 124.482 31 125.229 29.64C126.002 28.28 126.389 26.7333 126.389 25C126.389 23.2667 126.002 21.72 125.229 20.36C124.482 19 123.442 17.9467 122.109 17.2C120.776 16.4267 119.282 16.04 117.629 16.04C115.976 16.04 114.482 16.4267 113.149 17.2C111.816 17.9467 110.762 19 109.989 20.36C109.242 21.72 108.869 23.2667 108.869 25C108.869 26.7333 109.242 28.28 109.989 29.64C110.762 31 111.816 32.0667 113.149 32.84C114.482 33.5867 115.976 33.96 117.629 33.96ZM166.04 33.72V44.8H160.04V39H140.28V44.8H134.28L134.32 33.72H135.44C137.12 33.6667 138.306 32.44 139 30.04C139.693 27.64 140.12 24.2133 140.28 19.76L140.6 11H162.12V33.72H166.04ZM146 20.36C145.866 23.6933 145.586 26.4933 145.16 28.76C144.733 31 144.08 32.6533 143.2 33.72H155.72V16.28H146.12L146 20.36ZM207.41 11V39H200.93V27.52H188.21V39H181.73V11H188.21V22.04H200.93V11H207.41ZM233.385 33H220.385L217.905 39H211.265L223.745 11H230.145L242.665 39H235.865L233.385 33ZM231.345 28.08L226.905 17.36L222.465 28.08H231.345ZM283.387 11V39H276.907V27.52H264.187V39H257.707V11H264.187V22.04H276.907V11H283.387ZM303.762 39.48C300.855 39.48 298.229 38.8533 295.882 37.6C293.562 36.3467 291.735 34.6267 290.402 32.44C289.095 30.2267 288.442 27.7467 288.442 25C288.442 22.2533 289.095 19.7867 290.402 17.6C291.735 15.3867 293.562 13.6533 295.882 12.4C298.229 11.1467 300.855 10.52 303.762 10.52C306.669 10.52 309.282 11.1467 311.602 12.4C313.922 13.6533 315.749 15.3867 317.082 17.6C318.415 19.7867 319.082 22.2533 319.082 25C319.082 27.7467 318.415 30.2267 317.082 32.44C315.749 34.6267 313.922 36.3467 311.602 37.6C309.282 38.8533 306.669 39.48 303.762 39.48ZM303.762 33.96C305.415 33.96 306.909 33.5867 308.242 32.84C309.575 32.0667 310.615 31 311.362 29.64C312.135 28.28 312.522 26.7333 312.522 25C312.522 23.2667 312.135 21.72 311.362 20.36C310.615 19 309.575 17.9467 308.242 17.2C306.909 16.4267 305.415 16.04 303.762 16.04C302.109 16.04 300.615 16.4267 299.282 17.2C297.949 17.9467 296.895 19 296.122 20.36C295.375 21.72 295.002 23.2667 295.002 25C295.002 26.7333 295.375 28.28 296.122 29.64C296.895 31 297.949 32.0667 299.282 32.84C300.615 33.5867 302.109 33.96 303.762 33.96ZM343.474 24.4C345.18 24.9067 346.487 25.7333 347.394 26.88C348.3 28.0267 348.754 29.44 348.754 31.12C348.754 33.6 347.807 35.5333 345.914 36.92C344.047 38.3067 341.367 39 337.874 39H324.074V11H337.114C340.367 11 342.9 11.6267 344.714 12.88C346.527 14.1333 347.434 15.92 347.434 18.24C347.434 19.6267 347.087 20.8533 346.394 21.92C345.7 22.96 344.727 23.7867 343.474 24.4ZM330.514 22.6H336.554C337.967 22.6 339.034 22.32 339.754 21.76C340.474 21.1733 340.834 20.32 340.834 19.2C340.834 18.1067 340.46 17.2667 339.714 16.68C338.994 16.0933 337.94 15.8 336.554 15.8H330.514V22.6ZM337.634 34.2C340.674 34.2 342.194 33 342.194 30.6C342.194 28.28 340.674 27.12 337.634 27.12H330.514V34.2H337.634ZM367.438 20.2C370.852 20.2 373.465 20.96 375.278 22.48C377.118 24 378.038 26.2533 378.038 29.24C378.038 32.4133 377.025 34.84 374.998 36.52C372.998 38.1733 370.172 39 366.518 39H353.878V11H360.318V20.2H367.438ZM366.158 34.2C367.838 34.2 369.145 33.7867 370.078 32.96C371.038 32.1333 371.518 30.9333 371.518 29.36C371.518 26.4533 369.732 25 366.158 25H360.318V34.2H366.158ZM381.598 11H388.038V39H381.598V11ZM395.011 11H401.451V29.24L414.811 11H420.891V39H414.491V20.8L401.131 39H395.011V11ZM407.931 9.2C402.811 9.2 400.225 7.16 400.171 3.08H404.611C404.665 5.02666 405.771 6 407.931 6C408.998 6 409.811 5.76 410.371 5.28C410.931 4.77333 411.225 4.04 411.251 3.08H415.691C415.665 5.08 415.011 6.6 413.731 7.64C412.451 8.68 410.518 9.2 407.931 9.2ZM30.76 60L18.84 82.16C17.6933 84.2933 16.3067 85.9067 14.68 87C13.08 88.0933 11.3333 88.64 9.44 88.64C7.97333 88.64 6.45333 88.32 4.88 87.68L6.44 82.76C7.56 83.1067 8.49333 83.28 9.24 83.28C10.04 83.28 10.76 83.0933 11.4 82.72C12.04 82.32 12.6267 81.7067 13.16 80.88L13.4 80.56L2.36 60H9.28L16.72 75.04L24.4 60H30.76ZM45.9594 60C48.4394 60 50.586 60.4133 52.3994 61.24C54.2394 62.0667 55.6527 63.24 56.6394 64.76C57.626 66.28 58.1194 68.08 58.1194 70.16C58.1194 72.2133 57.626 74.0133 56.6394 75.56C55.6527 77.08 54.2394 78.2533 52.3994 79.08C50.586 79.88 48.4394 80.28 45.9594 80.28H40.3194V88H33.8394V60H45.9594ZM45.5994 75C47.546 75 49.026 74.5867 50.0394 73.76C51.0527 72.9067 51.5594 71.7067 51.5594 70.16C51.5594 68.5867 51.0527 67.3867 50.0394 66.56C49.026 65.7067 47.546 65.28 45.5994 65.28H40.3194V75H45.5994ZM76.1447 88.48C73.238 88.48 70.6114 87.8533 68.2647 86.6C65.9447 85.3467 64.118 83.6267 62.7847 81.44C61.478 79.2267 60.8247 76.7467 60.8247 74C60.8247 71.2533 61.478 68.7867 62.7847 66.6C64.118 64.3867 65.9447 62.6533 68.2647 61.4C70.6114 60.1467 73.238 59.52 76.1447 59.52C79.0514 59.52 81.6647 60.1467 83.9847 61.4C86.3047 62.6533 88.1314 64.3867 89.4647 66.6C90.798 68.7867 91.4647 71.2533 91.4647 74C91.4647 76.7467 90.798 79.2267 89.4647 81.44C88.1314 83.6267 86.3047 85.3467 83.9847 86.6C81.6647 87.8533 79.0514 88.48 76.1447 88.48ZM76.1447 82.96C77.798 82.96 79.2914 82.5867 80.6247 81.84C81.958 81.0667 82.998 80 83.7447 78.64C84.518 77.28 84.9047 75.7333 84.9047 74C84.9047 72.2667 84.518 70.72 83.7447 69.36C82.998 68 81.958 66.9467 80.6247 66.2C79.2914 65.4267 77.798 65.04 76.1447 65.04C74.4914 65.04 72.998 65.4267 71.6647 66.2C70.3314 66.9467 69.278 68 68.5047 69.36C67.758 70.72 67.3847 72.2667 67.3847 74C67.3847 75.7333 67.758 77.28 68.5047 78.64C69.278 80 70.3314 81.0667 71.6647 81.84C72.998 82.5867 74.4914 82.96 76.1447 82.96ZM115.857 73.4C117.563 73.9067 118.87 74.7333 119.777 75.88C120.683 77.0267 121.137 78.44 121.137 80.12C121.137 82.6 120.19 84.5333 118.297 85.92C116.43 87.3067 113.75 88 110.257 88H96.4566V60H109.497C112.75 60 115.283 60.6267 117.097 61.88C118.91 63.1333 119.817 64.92 119.817 67.24C119.817 68.6267 119.47 69.8533 118.777 70.92C118.083 71.96 117.11 72.7867 115.857 73.4ZM102.897 71.6H108.937C110.35 71.6 111.417 71.32 112.137 70.76C112.857 70.1733 113.217 69.32 113.217 68.2C113.217 67.1067 112.843 66.2667 112.097 65.68C111.377 65.0933 110.323 64.8 108.937 64.8H102.897V71.6ZM110.017 83.2C113.057 83.2 114.577 82 114.577 79.6C114.577 77.28 113.057 76.12 110.017 76.12H102.897V83.2H110.017ZM147.941 82.8V88H126.261V60H147.421V65.2H132.701V71.28H145.701V76.32H132.701V82.8H147.941ZM178.855 60V88H172.375V76.52H159.655V88H153.175V60H159.655V71.04H172.375V60H178.855ZM199.431 69.2C202.844 69.2 205.457 69.96 207.271 71.48C209.111 73 210.031 75.2533 210.031 78.24C210.031 81.4133 209.017 83.84 206.991 85.52C204.991 87.1733 202.164 88 198.511 88H185.871V60H192.311V69.2H199.431ZM198.151 83.2C199.831 83.2 201.137 82.7867 202.071 81.96C203.031 81.1333 203.511 79.9333 203.511 78.36C203.511 75.4533 201.724 74 198.151 74H192.311V83.2H198.151ZM251.427 76.72H247.347V88H240.987V76.72H236.827L230.547 88H223.067L231.467 73.36L223.587 60H230.427L236.707 71.32H240.987V60H247.347V71.32H251.507L257.827 60H264.667L256.827 73.36L265.187 88H257.707L251.427 76.72ZM268.293 60H274.733V78.24L288.093 60H294.173V88H287.773V69.8L274.413 88H268.293V60ZM317.064 73.4C318.691 73.96 319.957 74.84 320.864 76.04C321.797 77.2133 322.264 78.5867 322.264 80.16C322.264 81.8667 321.704 83.3467 320.584 84.6C319.464 85.8533 317.944 86.8133 316.024 87.48C314.131 88.1467 312.051 88.48 309.784 88.48C307.864 88.48 305.944 88.24 304.024 87.76C302.131 87.28 300.331 86.5467 298.624 85.56L300.624 80.92C301.851 81.6667 303.197 82.24 304.664 82.64C306.157 83.0133 307.611 83.2 309.024 83.2C310.944 83.2 312.531 82.8533 313.784 82.16C315.064 81.4667 315.704 80.4933 315.704 79.24C315.704 78.2 315.264 77.4133 314.384 76.88C313.531 76.3467 312.357 76.08 310.864 76.08H304.024V71.2H310.384C311.691 71.2 312.704 70.9333 313.424 70.4C314.171 69.8667 314.544 69.1333 314.544 68.2C314.544 67.1067 314.011 66.2533 312.944 65.64C311.904 65.0267 310.557 64.72 308.904 64.72C307.677 64.72 306.411 64.8933 305.104 65.24C303.797 65.56 302.557 66.0533 301.384 66.72L299.424 61.68C302.384 60.16 305.584 59.4 309.024 59.4C311.211 59.4 313.224 59.72 315.064 60.36C316.904 61 318.371 61.9333 319.464 63.16C320.557 64.3867 321.104 65.8133 321.104 67.44C321.104 68.7733 320.744 69.96 320.024 71C319.304 72.04 318.317 72.84 317.064 73.4ZM353.074 60V88H346.594V76.52H333.874V88H327.394V60H333.874V71.04H346.594V60H353.074ZM360.089 60H366.529V78.24L379.889 60H385.969V88H379.569V69.8L366.209 88H360.089V60Z" fill="white"/>
<path d="M10.528 172.224C11.3067 172.384 11.8987 172.699 12.304 173.168C12.7093 173.627 12.912 174.229 12.912 174.976C12.912 175.947 12.5653 176.693 11.872 177.216C11.1893 177.739 10.1813 178 8.848 178H3.888V166.8H8.544C9.73867 166.8 10.672 167.045 11.344 167.536C12.016 168.027 12.352 168.736 12.352 169.664C12.352 170.293 12.192 170.827 11.872 171.264C11.552 171.691 11.104 172.011 10.528 172.224ZM5.056 171.872H8.48C9.344 171.872 10.0053 171.696 10.464 171.344C10.9333 170.992 11.168 170.48 11.168 169.808C11.168 169.136 10.9333 168.624 10.464 168.272C10.0053 167.92 9.344 167.744 8.48 167.744H5.056V171.872ZM8.848 177.056C10.7787 177.056 11.744 176.336 11.744 174.896C11.744 173.488 10.7787 172.784 8.848 172.784H5.056V177.056H8.848ZM27.3399 169.584V178H26.2039V170.592H20.9239V178H19.7879V169.584H27.3399ZM33.4651 169.52C34.5638 169.52 35.4065 169.797 35.9931 170.352C36.5798 170.896 36.8731 171.707 36.8731 172.784V178H35.7851V176.688C35.5291 177.125 35.1505 177.467 34.6491 177.712C34.1585 177.957 33.5718 178.08 32.8891 178.08C31.9505 178.08 31.2038 177.856 30.6491 177.408C30.0945 176.96 29.8171 176.368 29.8171 175.632C29.8171 174.917 30.0731 174.341 30.5851 173.904C31.1078 173.467 31.9345 173.248 33.0651 173.248H35.7371V172.736C35.7371 172.011 35.5345 171.461 35.1291 171.088C34.7238 170.704 34.1318 170.512 33.3531 170.512C32.8198 170.512 32.3078 170.603 31.8171 170.784C31.3265 170.955 30.9051 171.195 30.5531 171.504L30.0411 170.656C30.4678 170.293 30.9798 170.016 31.5771 169.824C32.1745 169.621 32.8038 169.52 33.4651 169.52ZM33.0651 177.184C33.7051 177.184 34.2545 177.04 34.7131 176.752C35.1718 176.453 35.5131 176.027 35.7371 175.472V174.096H33.0971C31.6571 174.096 30.9371 174.597 30.9371 175.6C30.9371 176.091 31.1238 176.48 31.4971 176.768C31.8705 177.045 32.3931 177.184 33.0651 177.184ZM44.2333 169.52C45.0226 169.52 45.7373 169.701 46.3773 170.064C47.0173 170.416 47.5186 170.917 47.8813 171.568C48.2439 172.219 48.4253 172.96 48.4253 173.792C48.4253 174.635 48.2439 175.381 47.8813 176.032C47.5186 176.683 47.0173 177.189 46.3773 177.552C45.7479 177.904 45.0333 178.08 44.2333 178.08C43.5506 178.08 42.9319 177.941 42.3773 177.664C41.8333 177.376 41.3853 176.96 41.0333 176.416V181.104H39.8973V169.584H40.9853V171.248C41.3266 170.693 41.7746 170.267 42.3293 169.968C42.8946 169.669 43.5293 169.52 44.2333 169.52ZM44.1533 177.072C44.7399 177.072 45.2733 176.939 45.7533 176.672C46.2333 176.395 46.6066 176.005 46.8733 175.504C47.1506 175.003 47.2893 174.432 47.2893 173.792C47.2893 173.152 47.1506 172.587 46.8733 172.096C46.6066 171.595 46.2333 171.205 45.7533 170.928C45.2733 170.651 44.7399 170.512 44.1533 170.512C43.5559 170.512 43.0173 170.651 42.5373 170.928C42.0679 171.205 41.6946 171.595 41.4173 172.096C41.1506 172.587 41.0173 173.152 41.0173 173.792C41.0173 174.432 41.1506 175.003 41.4173 175.504C41.6946 176.005 42.0679 176.395 42.5373 176.672C43.0173 176.939 43.5559 177.072 44.1533 177.072ZM56.4735 170.592H53.2895V178H52.1535V170.592H48.9695V169.584H56.4735V170.592ZM58.116 169.584H59.252V173.312H64.548V169.584H65.684V178H64.548V174.288H59.252V178H58.116V169.584ZM76.2729 174.144H69.2329C69.2969 175.019 69.6329 175.728 70.2409 176.272C70.8489 176.805 71.6169 177.072 72.5449 177.072C73.0675 177.072 73.5475 176.981 73.9849 176.8C74.4222 176.608 74.8009 176.331 75.1209 175.968L75.7609 176.704C75.3875 177.152 74.9182 177.493 74.3529 177.728C73.7982 177.963 73.1849 178.08 72.5129 178.08C71.6489 178.08 70.8809 177.899 70.2089 177.536C69.5475 177.163 69.0302 176.651 68.6569 176C68.2835 175.349 68.0969 174.613 68.0969 173.792C68.0969 172.971 68.2729 172.235 68.6249 171.584C68.9875 170.933 69.4782 170.427 70.0969 170.064C70.7262 169.701 71.4302 169.52 72.2089 169.52C72.9875 169.52 73.6862 169.701 74.3049 170.064C74.9235 170.427 75.4089 170.933 75.7609 171.584C76.1129 172.224 76.2889 172.96 76.2889 173.792L76.2729 174.144ZM72.2089 170.496C71.3982 170.496 70.7155 170.757 70.1609 171.28C69.6169 171.792 69.3075 172.464 69.2329 173.296H75.2009C75.1262 172.464 74.8115 171.792 74.2569 171.28C73.7129 170.757 73.0302 170.496 72.2089 170.496ZM83.1395 169.52C83.9288 169.52 84.6435 169.701 85.2835 170.064C85.9235 170.416 86.4248 170.917 86.7875 171.568C87.1502 172.219 87.3315 172.96 87.3315 173.792C87.3315 174.635 87.1502 175.381 86.7875 176.032C86.4248 176.683 85.9235 177.189 85.2835 177.552C84.6542 177.904 83.9395 178.08 83.1395 178.08C82.4568 178.08 81.8382 177.941 81.2835 177.664C80.7395 177.376 80.2915 176.96 79.9395 176.416V181.104H78.8035V169.584H79.8915V171.248C80.2328 170.693 80.6808 170.267 81.2355 169.968C81.8008 169.669 82.4355 169.52 83.1395 169.52ZM83.0595 177.072C83.6462 177.072 84.1795 176.939 84.6595 176.672C85.1395 176.395 85.5128 176.005 85.7795 175.504C86.0568 175.003 86.1955 174.432 86.1955 173.792C86.1955 173.152 86.0568 172.587 85.7795 172.096C85.5128 171.595 85.1395 171.205 84.6595 170.928C84.1795 170.651 83.6462 170.512 83.0595 170.512C82.4622 170.512 81.9235 170.651 81.4435 170.928C80.9742 171.205 80.6008 171.595 80.3235 172.096C80.0568 172.587 79.9235 173.152 79.9235 173.792C79.9235 174.432 80.0568 175.003 80.3235 175.504C80.6008 176.005 80.9742 176.395 81.4435 176.672C81.9235 176.939 82.4622 177.072 83.0595 177.072ZM93.2923 178.08C92.4603 178.08 91.7136 177.899 91.0523 177.536C90.4016 177.173 89.8896 176.667 89.5163 176.016C89.1429 175.355 88.9563 174.613 88.9563 173.792C88.9563 172.971 89.1429 172.235 89.5163 171.584C89.8896 170.933 90.4016 170.427 91.0523 170.064C91.7136 169.701 92.4603 169.52 93.2923 169.52C94.0176 169.52 94.6629 169.664 95.2283 169.952C95.8043 170.229 96.2576 170.64 96.5883 171.184L95.7403 171.76C95.4629 171.344 95.1109 171.035 94.6843 170.832C94.2576 170.619 93.7936 170.512 93.2923 170.512C92.6843 170.512 92.1349 170.651 91.6443 170.928C91.1643 171.195 90.7856 171.579 90.5082 172.08C90.2416 172.581 90.1083 173.152 90.1083 173.792C90.1083 174.443 90.2416 175.019 90.5082 175.52C90.7856 176.011 91.1643 176.395 91.6443 176.672C92.1349 176.939 92.6843 177.072 93.2923 177.072C93.7936 177.072 94.2576 176.971 94.6843 176.768C95.1109 176.565 95.4629 176.256 95.7403 175.84L96.5883 176.416C96.2576 176.96 95.8043 177.376 95.2283 177.664C94.6523 177.941 94.0069 178.08 93.2923 178.08ZM104.552 170.592H101.368V178H100.232V170.592H97.0476V169.584H104.552V170.592ZM111.554 173.648C112.695 173.915 113.266 174.603 113.266 175.712C113.266 176.448 112.994 177.013 112.45 177.408C111.906 177.803 111.095 178 110.018 178H106.194V169.584H109.906C110.866 169.584 111.618 169.771 112.162 170.144C112.706 170.517 112.978 171.051 112.978 171.744C112.978 172.203 112.85 172.597 112.594 172.928C112.349 173.248 112.002 173.488 111.554 173.648ZM107.298 173.328H109.826C110.477 173.328 110.973 173.205 111.314 172.96C111.666 172.715 111.842 172.357 111.842 171.888C111.842 171.419 111.666 171.067 111.314 170.832C110.973 170.597 110.477 170.48 109.826 170.48H107.298V173.328ZM109.97 177.104C110.695 177.104 111.239 176.987 111.602 176.752C111.965 176.517 112.146 176.149 112.146 175.648C112.146 175.147 111.981 174.779 111.65 174.544C111.319 174.299 110.797 174.176 110.082 174.176H107.298V177.104H109.97ZM123.289 174.144H116.249C116.313 175.019 116.649 175.728 117.257 176.272C117.865 176.805 118.633 177.072 119.561 177.072C120.083 177.072 120.563 176.981 121.001 176.8C121.438 176.608 121.817 176.331 122.137 175.968L122.777 176.704C122.403 177.152 121.934 177.493 121.369 177.728C120.814 177.963 120.201 178.08 119.529 178.08C118.665 178.08 117.897 177.899 117.225 177.536C116.563 177.163 116.046 176.651 115.673 176C115.299 175.349 115.113 174.613 115.113 173.792C115.113 172.971 115.289 172.235 115.641 171.584C116.003 170.933 116.494 170.427 117.113 170.064C117.742 169.701 118.446 169.52 119.225 169.52C120.003 169.52 120.702 169.701 121.321 170.064C121.939 170.427 122.425 170.933 122.777 171.584C123.129 172.224 123.305 172.96 123.305 173.792L123.289 174.144ZM119.225 170.496C118.414 170.496 117.731 170.757 117.177 171.28C116.633 171.792 116.323 172.464 116.249 173.296H122.217C122.142 172.464 121.827 171.792 121.273 171.28C120.729 170.757 120.046 170.496 119.225 170.496ZM133.527 178.08C132.695 178.08 131.948 177.899 131.287 177.536C130.636 177.173 130.124 176.667 129.751 176.016C129.377 175.355 129.191 174.613 129.191 173.792C129.191 172.971 129.377 172.235 129.751 171.584C130.124 170.933 130.636 170.427 131.287 170.064C131.948 169.701 132.695 169.52 133.527 169.52C134.252 169.52 134.897 169.664 135.463 169.952C136.039 170.229 136.492 170.64 136.823 171.184L135.975 171.76C135.697 171.344 135.345 171.035 134.919 170.832C134.492 170.619 134.028 170.512 133.527 170.512C132.919 170.512 132.369 170.651 131.879 170.928C131.399 171.195 131.02 171.579 130.743 172.08C130.476 172.581 130.343 173.152 130.343 173.792C130.343 174.443 130.476 175.019 130.743 175.52C131.02 176.011 131.399 176.395 131.879 176.672C132.369 176.939 132.919 177.072 133.527 177.072C134.028 177.072 134.492 176.971 134.919 176.768C135.345 176.565 135.697 176.256 135.975 175.84L136.823 176.416C136.492 176.96 136.039 177.376 135.463 177.664C134.887 177.941 134.241 178.08 133.527 178.08ZM143.21 169.584H144.346V173.312H149.642V169.584H150.778V178H149.642V174.288H144.346V178H143.21V169.584ZM156.903 169.52C158.001 169.52 158.844 169.797 159.431 170.352C160.017 170.896 160.311 171.707 160.311 172.784V178H159.223V176.688C158.967 177.125 158.588 177.467 158.087 177.712C157.596 177.957 157.009 178.08 156.327 178.08C155.388 178.08 154.641 177.856 154.087 177.408C153.532 176.96 153.255 176.368 153.255 175.632C153.255 174.917 153.511 174.341 154.023 173.904C154.545 173.467 155.372 173.248 156.503 173.248H159.175V172.736C159.175 172.011 158.972 171.461 158.567 171.088C158.161 170.704 157.569 170.512 156.791 170.512C156.257 170.512 155.745 170.603 155.255 170.784C154.764 170.955 154.343 171.195 153.991 171.504L153.479 170.656C153.905 170.293 154.417 170.016 155.015 169.824C155.612 169.621 156.241 169.52 156.903 169.52ZM156.503 177.184C157.143 177.184 157.692 177.04 158.151 176.752C158.609 176.453 158.951 176.027 159.175 175.472V174.096H156.535C155.095 174.096 154.375 174.597 154.375 175.6C154.375 176.091 154.561 176.48 154.935 176.768C155.308 177.045 155.831 177.184 156.503 177.184ZM172.743 169.584V178H171.703V171.344L168.295 176.976H167.783L164.375 171.328V178H163.335V169.584H164.487L168.055 175.648L171.687 169.584H172.743ZM175.975 169.584H177.111V176.272L182.727 169.584H183.735V178H182.599V171.312L176.999 178H175.975V169.584ZM196.539 173.648C197.68 173.915 198.251 174.603 198.251 175.712C198.251 176.448 197.979 177.013 197.435 177.408C196.891 177.803 196.08 178 195.003 178H191.179V169.584H194.891C195.851 169.584 196.603 169.771 197.147 170.144C197.691 170.517 197.963 171.051 197.963 171.744C197.963 172.203 197.835 172.597 197.579 172.928C197.333 173.248 196.987 173.488 196.539 173.648ZM192.283 173.328H194.811C195.461 173.328 195.957 173.205 196.299 172.96C196.651 172.715 196.827 172.357 196.827 171.888C196.827 171.419 196.651 171.067 196.299 170.832C195.957 170.597 195.461 170.48 194.811 170.48H192.283V173.328ZM194.955 177.104C195.68 177.104 196.224 176.987 196.587 176.752C196.949 176.517 197.131 176.149 197.131 175.648C197.131 175.147 196.965 174.779 196.635 174.544C196.304 174.299 195.781 174.176 195.067 174.176H192.283V177.104H194.955ZM204.449 172.56C205.505 172.571 206.31 172.805 206.865 173.264C207.42 173.723 207.697 174.384 207.697 175.248C207.697 176.144 207.398 176.832 206.801 177.312C206.204 177.792 205.35 178.027 204.241 178.016L200.913 178V169.584H202.049V172.528L204.449 172.56ZM209.105 169.584H210.241V178H209.105V169.584ZM204.177 177.152C204.956 177.163 205.542 177.008 205.937 176.688C206.342 176.357 206.545 175.877 206.545 175.248C206.545 174.629 206.348 174.171 205.953 173.872C205.558 173.573 204.966 173.419 204.177 173.408L202.049 173.376V177.12L204.177 177.152ZM225.215 169.584V178H224.079V170.592H218.799V178H217.663V169.584H225.215ZM231.916 178.08C231.105 178.08 230.375 177.899 229.724 177.536C229.073 177.163 228.561 176.651 228.188 176C227.815 175.349 227.628 174.613 227.628 173.792C227.628 172.971 227.815 172.235 228.188 171.584C228.561 170.933 229.073 170.427 229.724 170.064C230.375 169.701 231.105 169.52 231.916 169.52C232.727 169.52 233.457 169.701 234.108 170.064C234.759 170.427 235.265 170.933 235.628 171.584C236.001 172.235 236.188 172.971 236.188 173.792C236.188 174.613 236.001 175.349 235.628 176C235.265 176.651 234.759 177.163 234.108 177.536C233.457 177.899 232.727 178.08 231.916 178.08ZM231.916 177.072C232.513 177.072 233.047 176.939 233.516 176.672C233.996 176.395 234.369 176.005 234.636 175.504C234.903 175.003 235.036 174.432 235.036 173.792C235.036 173.152 234.903 172.581 234.636 172.08C234.369 171.579 233.996 171.195 233.516 170.928C233.047 170.651 232.513 170.512 231.916 170.512C231.319 170.512 230.78 170.651 230.3 170.928C229.831 171.195 229.457 171.579 229.18 172.08C228.913 172.581 228.78 173.152 228.78 173.792C228.78 174.432 228.913 175.003 229.18 175.504C229.457 176.005 229.831 176.395 230.3 176.672C230.78 176.939 231.319 177.072 231.916 177.072ZM242.136 178.08C241.304 178.08 240.557 177.899 239.896 177.536C239.245 177.173 238.733 176.667 238.36 176.016C237.987 175.355 237.8 174.613 237.8 173.792C237.8 172.971 237.987 172.235 238.36 171.584C238.733 170.933 239.245 170.427 239.896 170.064C240.557 169.701 241.304 169.52 242.136 169.52C242.861 169.52 243.507 169.664 244.072 169.952C244.648 170.229 245.101 170.64 245.432 171.184L244.584 171.76C244.307 171.344 243.955 171.035 243.528 170.832C243.101 170.619 242.637 170.512 242.136 170.512C241.528 170.512 240.979 170.651 240.488 170.928C240.008 171.195 239.629 171.579 239.352 172.08C239.085 172.581 238.952 173.152 238.952 173.792C238.952 174.443 239.085 175.019 239.352 175.52C239.629 176.011 240.008 176.395 240.488 176.672C240.979 176.939 241.528 177.072 242.136 177.072C242.637 177.072 243.101 176.971 243.528 176.768C243.955 176.565 244.307 176.256 244.584 175.84L245.432 176.416C245.101 176.96 244.648 177.376 244.072 177.664C243.496 177.941 242.851 178.08 242.136 178.08ZM257.04 169.584V178H256V171.344L252.592 176.976H252.08L248.672 171.328V178H247.632V169.584H248.784L252.352 175.648L255.984 169.584H257.04ZM263.744 178.08C262.934 178.08 262.203 177.899 261.552 177.536C260.902 177.163 260.39 176.651 260.016 176C259.643 175.349 259.456 174.613 259.456 173.792C259.456 172.971 259.643 172.235 260.016 171.584C260.39 170.933 260.902 170.427 261.552 170.064C262.203 169.701 262.934 169.52 263.744 169.52C264.555 169.52 265.286 169.701 265.936 170.064C266.587 170.427 267.094 170.933 267.456 171.584C267.83 172.235 268.016 172.971 268.016 173.792C268.016 174.613 267.83 175.349 267.456 176C267.094 176.651 266.587 177.163 265.936 177.536C265.286 177.899 264.555 178.08 263.744 178.08ZM263.744 177.072C264.342 177.072 264.875 176.939 265.344 176.672C265.824 176.395 266.198 176.005 266.464 175.504C266.731 175.003 266.864 174.432 266.864 173.792C266.864 173.152 266.731 172.581 266.464 172.08C266.198 171.579 265.824 171.195 265.344 170.928C264.875 170.651 264.342 170.512 263.744 170.512C263.147 170.512 262.608 170.651 262.128 170.928C261.659 171.195 261.286 171.579 261.008 172.08C260.742 172.581 260.608 173.152 260.608 173.792C260.608 174.432 260.742 175.003 261.008 175.504C261.286 176.005 261.659 176.395 262.128 176.672C262.608 176.939 263.147 177.072 263.744 177.072ZM276.052 170.592H272.868V178H271.732V170.592H268.548V169.584H276.052V170.592ZM282.03 169.52C282.819 169.52 283.534 169.701 284.174 170.064C284.814 170.416 285.315 170.917 285.678 171.568C286.041 172.219 286.222 172.96 286.222 173.792C286.222 174.635 286.041 175.381 285.678 176.032C285.315 176.683 284.814 177.189 284.174 177.552C283.545 177.904 282.83 178.08 282.03 178.08C281.347 178.08 280.729 177.941 280.174 177.664C279.63 177.376 279.182 176.96 278.83 176.416V181.104H277.694V169.584H278.782V171.248C279.123 170.693 279.571 170.267 280.126 169.968C280.691 169.669 281.326 169.52 282.03 169.52ZM281.95 177.072C282.537 177.072 283.07 176.939 283.55 176.672C284.03 176.395 284.403 176.005 284.67 175.504C284.947 175.003 285.086 174.432 285.086 173.792C285.086 173.152 284.947 172.587 284.67 172.096C284.403 171.595 284.03 171.205 283.55 170.928C283.07 170.651 282.537 170.512 281.95 170.512C281.353 170.512 280.814 170.651 280.334 170.928C279.865 171.205 279.491 171.595 279.214 172.096C278.947 172.587 278.814 173.152 278.814 173.792C278.814 174.432 278.947 175.003 279.214 175.504C279.491 176.005 279.865 176.395 280.334 176.672C280.814 176.939 281.353 177.072 281.95 177.072ZM288.663 169.584H289.799V176.272L295.415 169.584H296.423V178H295.287V171.312L289.687 178H288.663V169.584ZM305.599 170.592H302.415V178H301.279V170.592H298.095V169.584H305.599V170.592ZM314.21 174.144H307.17C307.234 175.019 307.57 175.728 308.178 176.272C308.786 176.805 309.554 177.072 310.482 177.072C311.005 177.072 311.485 176.981 311.922 176.8C312.36 176.608 312.738 176.331 313.058 175.968L313.698 176.704C313.325 177.152 312.856 177.493 312.29 177.728C311.736 177.963 311.122 178.08 310.45 178.08C309.586 178.08 308.818 177.899 308.146 177.536C307.485 177.163 306.968 176.651 306.594 176C306.221 175.349 306.034 174.613 306.034 173.792C306.034 172.971 306.21 172.235 306.562 171.584C306.925 170.933 307.416 170.427 308.034 170.064C308.664 169.701 309.368 169.52 310.146 169.52C310.925 169.52 311.624 169.701 312.242 170.064C312.861 170.427 313.346 170.933 313.698 171.584C314.05 172.224 314.226 172.96 314.226 173.792L314.21 174.144ZM310.146 170.496C309.336 170.496 308.653 170.757 308.098 171.28C307.554 171.792 307.245 172.464 307.17 173.296H313.138C313.064 172.464 312.749 171.792 312.194 171.28C311.65 170.757 310.968 170.496 310.146 170.496ZM320.929 169.584H322.065V173.312H327.361V169.584H328.497V178H327.361V174.288H322.065V178H320.929V169.584ZM334.621 169.52C335.72 169.52 336.563 169.797 337.149 170.352C337.736 170.896 338.029 171.707 338.029 172.784V178H336.941V176.688C336.685 177.125 336.307 177.467 335.805 177.712C335.315 177.957 334.728 178.08 334.045 178.08C333.107 178.08 332.36 177.856 331.805 177.408C331.251 176.96 330.973 176.368 330.973 175.632C330.973 174.917 331.229 174.341 331.741 173.904C332.264 173.467 333.091 173.248 334.221 173.248H336.893V172.736C336.893 172.011 336.691 171.461 336.285 171.088C335.88 170.704 335.288 170.512 334.509 170.512C333.976 170.512 333.464 170.603 332.973 170.784C332.483 170.955 332.061 171.195 331.709 171.504L331.197 170.656C331.624 170.293 332.136 170.016 332.733 169.824C333.331 169.621 333.96 169.52 334.621 169.52ZM334.221 177.184C334.861 177.184 335.411 177.04 335.869 176.752C336.328 176.453 336.669 176.027 336.893 175.472V174.096H334.253C332.813 174.096 332.093 174.597 332.093 175.6C332.093 176.091 332.28 176.48 332.653 176.768C333.027 177.045 333.549 177.184 334.221 177.184ZM357.145 166.8V178H356.009V169.04L351.609 176.576H351.049L346.649 169.088V178H345.513V166.8H346.489L351.353 175.104L356.169 166.8H357.145ZM360.647 169.584H361.783V176.272L367.399 169.584H368.407V178H367.271V171.312L361.671 178H360.647V169.584ZM375.999 169.52C376.788 169.52 377.503 169.701 378.143 170.064C378.783 170.416 379.284 170.917 379.647 171.568C380.01 172.219 380.191 172.96 380.191 173.792C380.191 174.635 380.01 175.381 379.647 176.032C379.284 176.683 378.783 177.189 378.143 177.552C377.514 177.904 376.799 178.08 375.999 178.08C375.316 178.08 374.698 177.941 374.143 177.664C373.599 177.376 373.151 176.96 372.799 176.416V181.104H371.663V169.584H372.751V171.248C373.092 170.693 373.54 170.267 374.095 169.968C374.66 169.669 375.295 169.52 375.999 169.52ZM375.919 177.072C376.506 177.072 377.039 176.939 377.519 176.672C377.999 176.395 378.372 176.005 378.639 175.504C378.916 175.003 379.055 174.432 379.055 173.792C379.055 173.152 378.916 172.587 378.639 172.096C378.372 171.595 377.999 171.205 377.519 170.928C377.039 170.651 376.506 170.512 375.919 170.512C375.322 170.512 374.783 170.651 374.303 170.928C373.834 171.205 373.46 171.595 373.183 172.096C372.916 172.587 372.783 173.152 372.783 173.792C372.783 174.432 372.916 175.003 373.183 175.504C373.46 176.005 373.834 176.395 374.303 176.672C374.783 176.939 375.322 177.072 375.919 177.072ZM394.371 169.584V178H393.235V170.592H387.955V178H386.819V169.584H394.371ZM401.072 178.08C400.262 178.08 399.531 177.899 398.88 177.536C398.23 177.163 397.718 176.651 397.344 176C396.971 175.349 396.784 174.613 396.784 173.792C396.784 172.971 396.971 172.235 397.344 171.584C397.718 170.933 398.23 170.427 398.88 170.064C399.531 169.701 400.262 169.52 401.072 169.52C401.883 169.52 402.614 169.701 403.264 170.064C403.915 170.427 404.422 170.933 404.784 171.584C405.158 172.235 405.344 172.971 405.344 173.792C405.344 174.613 405.158 175.349 404.784 176C404.422 176.651 403.915 177.163 403.264 177.536C402.614 177.899 401.883 178.08 401.072 178.08ZM401.072 177.072C401.67 177.072 402.203 176.939 402.672 176.672C403.152 176.395 403.526 176.005 403.792 175.504C404.059 175.003 404.192 174.432 404.192 173.792C404.192 173.152 404.059 172.581 403.792 172.08C403.526 171.579 403.152 171.195 402.672 170.928C402.203 170.651 401.67 170.512 401.072 170.512C400.475 170.512 399.936 170.651 399.456 170.928C398.987 171.195 398.614 171.579 398.336 172.08C398.07 172.581 397.936 173.152 397.936 173.792C397.936 174.432 398.07 175.003 398.336 175.504C398.614 176.005 398.987 176.395 399.456 176.672C399.936 176.939 400.475 177.072 401.072 177.072ZM415.933 177.008V180.032H414.861V178H407.325V180.032H406.253V177.008H406.733C407.299 176.976 407.683 176.56 407.885 175.76C408.088 174.96 408.227 173.84 408.301 172.4L408.413 169.584H414.621V177.008H415.933ZM409.341 172.464C409.288 173.659 409.187 174.645 409.037 175.424C408.888 176.192 408.621 176.72 408.237 177.008H413.485V170.592H409.437L409.341 172.464ZM11.824 197.008V200.032H10.752V198H3.216V200.032H2.144V197.008H2.624C3.18933 196.976 3.57333 196.56 3.776 195.76C3.97867 194.96 4.11733 193.84 4.192 192.4L4.304 189.584H10.512V197.008H11.824ZM5.232 192.464C5.17867 193.659 5.07733 194.645 4.928 195.424C4.77867 196.192 4.512 196.72 4.128 197.008H9.376V190.592H5.328L5.232 192.464ZM18.3739 189.52C19.1632 189.52 19.8779 189.701 20.5179 190.064C21.1579 190.416 21.6592 190.917 22.0219 191.568C22.3845 192.219 22.5659 192.96 22.5659 193.792C22.5659 194.635 22.3845 195.381 22.0219 196.032C21.6592 196.683 21.1579 197.189 20.5179 197.552C19.8885 197.904 19.1739 198.08 18.3739 198.08C17.6912 198.08 17.0725 197.941 16.5179 197.664C15.9739 197.376 15.5259 196.96 15.1739 196.416V201.104H14.0379V189.584H15.1259V191.248C15.4672 190.693 15.9152 190.267 16.4699 189.968C17.0352 189.669 17.6699 189.52 18.3739 189.52ZM18.2939 197.072C18.8805 197.072 19.4139 196.939 19.8939 196.672C20.3739 196.395 20.7472 196.005 21.0139 195.504C21.2912 195.003 21.4299 194.432 21.4299 193.792C21.4299 193.152 21.2912 192.587 21.0139 192.096C20.7472 191.595 20.3739 191.205 19.8939 190.928C19.4139 190.651 18.8805 190.512 18.2939 190.512C17.6965 190.512 17.1579 190.651 16.6779 190.928C16.2085 191.205 15.8352 191.595 15.5579 192.096C15.2912 192.587 15.1579 193.152 15.1579 193.792C15.1579 194.432 15.2912 195.003 15.5579 195.504C15.8352 196.005 16.2085 196.395 16.6779 196.672C17.1579 196.939 17.6965 197.072 18.2939 197.072ZM31.9243 189.584L27.7163 199.008C27.3749 199.797 26.9803 200.357 26.5323 200.688C26.0843 201.019 25.5456 201.184 24.9163 201.184C24.5109 201.184 24.1323 201.12 23.7803 200.992C23.4283 200.864 23.1242 200.672 22.8682 200.416L23.3963 199.568C23.8229 199.995 24.3349 200.208 24.9323 200.208C25.3163 200.208 25.6416 200.101 25.9083 199.888C26.1856 199.675 26.4416 199.312 26.6763 198.8L27.0443 197.984L23.2843 189.584H24.4683L27.6363 196.736L30.8043 189.584H31.9243ZM39.6461 190.592H34.8301V198H33.6941V189.584H39.6461V190.592ZM41.2879 189.584H42.4239V196.272L48.0399 189.584H49.0479V198H47.9119V191.312L42.3119 198H41.2879V189.584ZM61.7115 189.584V198H60.6715V191.344L57.2635 196.976H56.7515L53.3435 191.328V198H52.3035V189.584H53.4555L57.0235 195.648L60.6555 189.584H61.7115ZM76.2836 189.584L72.0756 199.008C71.7343 199.797 71.3396 200.357 70.8916 200.688C70.4436 201.019 69.905 201.184 69.2756 201.184C68.8703 201.184 68.4916 201.12 68.1396 200.992C67.7876 200.864 67.4836 200.672 67.2276 200.416L67.7556 199.568C68.1823 199.995 68.6943 200.208 69.2916 200.208C69.6756 200.208 70.001 200.101 70.2676 199.888C70.545 199.675 70.801 199.312 71.0356 198.8L71.4036 197.984L67.6436 189.584H68.8276L71.9956 196.736L75.1636 189.584H76.2836ZM84.0055 190.592H79.1895V198H78.0535V189.584H84.0055V190.592ZM92.0116 189.584V198H90.8756V190.592H86.8436L86.7316 192.672C86.6463 194.421 86.4436 195.765 86.1236 196.704C85.8036 197.643 85.233 198.112 84.4116 198.112C84.1876 198.112 83.9156 198.069 83.5956 197.984L83.6756 197.008C83.8676 197.051 84.001 197.072 84.0756 197.072C84.513 197.072 84.8436 196.869 85.0676 196.464C85.2916 196.059 85.441 195.557 85.5156 194.96C85.5903 194.363 85.6543 193.573 85.7076 192.592L85.8516 189.584H92.0116ZM98.713 198.08C97.9023 198.08 97.1717 197.899 96.521 197.536C95.8703 197.163 95.3583 196.651 94.985 196C94.6117 195.349 94.425 194.613 94.425 193.792C94.425 192.971 94.6117 192.235 94.985 191.584C95.3583 190.933 95.8703 190.427 96.521 190.064C97.1717 189.701 97.9023 189.52 98.713 189.52C99.5237 189.52 100.254 189.701 100.905 190.064C101.556 190.427 102.062 190.933 102.425 191.584C102.798 192.235 102.985 192.971 102.985 193.792C102.985 194.613 102.798 195.349 102.425 196C102.062 196.651 101.556 197.163 100.905 197.536C100.254 197.899 99.5237 198.08 98.713 198.08ZM98.713 197.072C99.3103 197.072 99.8437 196.939 100.313 196.672C100.793 196.395 101.166 196.005 101.433 195.504C101.7 195.003 101.833 194.432 101.833 193.792C101.833 193.152 101.7 192.581 101.433 192.08C101.166 191.579 100.793 191.195 100.313 190.928C99.8437 190.651 99.3103 190.512 98.713 190.512C98.1157 190.512 97.577 190.651 97.097 190.928C96.6277 191.195 96.2543 191.579 95.977 192.08C95.7103 192.581 95.577 193.152 95.577 193.792C95.577 194.432 95.7103 195.003 95.977 195.504C96.2543 196.005 96.6277 196.395 97.097 196.672C97.577 196.939 98.1157 197.072 98.713 197.072ZM114.821 189.584V198H113.781V191.344L110.373 196.976H109.861L106.453 191.328V198H105.413V189.584H106.565L110.133 195.648L113.765 189.584H114.821ZM120.625 193.248H136.625V194.064H120.625V193.248ZM149.981 189.584V198H148.845V190.592H143.565V198H142.429V189.584H149.981ZM156.682 198.08C155.871 198.08 155.14 197.899 154.49 197.536C153.839 197.163 153.327 196.651 152.954 196C152.58 195.349 152.394 194.613 152.394 193.792C152.394 192.971 152.58 192.235 152.954 191.584C153.327 190.933 153.839 190.427 154.49 190.064C155.14 189.701 155.871 189.52 156.682 189.52C157.492 189.52 158.223 189.701 158.874 190.064C159.524 190.427 160.031 190.933 160.394 191.584C160.767 192.235 160.954 192.971 160.954 193.792C160.954 194.613 160.767 195.349 160.394 196C160.031 196.651 159.524 197.163 158.874 197.536C158.223 197.899 157.492 198.08 156.682 198.08ZM156.682 197.072C157.279 197.072 157.812 196.939 158.282 196.672C158.762 196.395 159.135 196.005 159.402 195.504C159.668 195.003 159.802 194.432 159.802 193.792C159.802 193.152 159.668 192.581 159.402 192.08C159.135 191.579 158.762 191.195 158.282 190.928C157.812 190.651 157.279 190.512 156.682 190.512C156.084 190.512 155.546 190.651 155.066 190.928C154.596 191.195 154.223 191.579 153.946 192.08C153.679 192.581 153.546 193.152 153.546 193.792C153.546 194.432 153.679 195.003 153.946 195.504C154.223 196.005 154.596 196.395 155.066 196.672C155.546 196.939 156.084 197.072 156.682 197.072ZM169.734 189.584V198H168.598V194.496C167.627 194.923 166.672 195.136 165.734 195.136C164.72 195.136 163.931 194.907 163.366 194.448C162.8 193.979 162.518 193.28 162.518 192.352V189.584H163.654V192.288C163.654 192.917 163.856 193.397 164.262 193.728C164.667 194.048 165.227 194.208 165.942 194.208C166.731 194.208 167.616 194 168.598 193.584V189.584H169.734ZM180.112 189.584L175.904 199.008C175.562 199.797 175.168 200.357 174.72 200.688C174.272 201.019 173.733 201.184 173.104 201.184C172.698 201.184 172.32 201.12 171.968 200.992C171.616 200.864 171.312 200.672 171.056 200.416L171.584 199.568C172.01 199.995 172.522 200.208 173.12 200.208C173.504 200.208 173.829 200.101 174.096 199.888C174.373 199.675 174.629 199.312 174.864 198.8L175.232 197.984L171.472 189.584H172.656L175.824 196.736L178.992 189.584H180.112ZM187.242 193.648C188.383 193.915 188.954 194.603 188.954 195.712C188.954 196.448 188.682 197.013 188.138 197.408C187.594 197.803 186.783 198 185.706 198H181.882V189.584H185.594C186.554 189.584 187.306 189.771 187.85 190.144C188.394 190.517 188.666 191.051 188.666 191.744C188.666 192.203 188.538 192.597 188.282 192.928C188.036 193.248 187.69 193.488 187.242 193.648ZM182.986 193.328H185.514C186.164 193.328 186.66 193.205 187.002 192.96C187.354 192.715 187.53 192.357 187.53 191.888C187.53 191.419 187.354 191.067 187.002 190.832C186.66 190.597 186.164 190.48 185.514 190.48H182.986V193.328ZM185.658 197.104C186.383 197.104 186.927 196.987 187.29 196.752C187.652 196.517 187.834 196.149 187.834 195.648C187.834 195.147 187.668 194.779 187.338 194.544C187.007 194.299 186.484 194.176 185.77 194.176H182.986V197.104H185.658ZM195.136 198.08C194.304 198.08 193.557 197.899 192.896 197.536C192.245 197.173 191.733 196.667 191.36 196.016C190.987 195.355 190.8 194.613 190.8 193.792C190.8 192.971 190.987 192.235 191.36 191.584C191.733 190.933 192.245 190.427 192.896 190.064C193.557 189.701 194.304 189.52 195.136 189.52C195.861 189.52 196.507 189.664 197.072 189.952C197.648 190.229 198.101 190.64 198.432 191.184L197.584 191.76C197.307 191.344 196.955 191.035 196.528 190.832C196.101 190.619 195.637 190.512 195.136 190.512C194.528 190.512 193.979 190.651 193.488 190.928C193.008 191.195 192.629 191.579 192.352 192.08C192.085 192.581 191.952 193.152 191.952 193.792C191.952 194.443 192.085 195.019 192.352 195.52C192.629 196.011 193.008 196.395 193.488 196.672C193.979 196.939 194.528 197.072 195.136 197.072C195.637 197.072 196.101 196.971 196.528 196.768C196.955 196.565 197.307 196.256 197.584 195.84L198.432 196.416C198.101 196.96 197.648 197.376 197.072 197.664C196.496 197.941 195.851 198.08 195.136 198.08ZM206.395 190.592H203.211V198H202.075V190.592H198.891V189.584H206.395V190.592ZM213.398 193.648C214.539 193.915 215.11 194.603 215.11 195.712C215.11 196.448 214.838 197.013 214.294 197.408C213.75 197.803 212.939 198 211.862 198H208.038V189.584H211.75C212.71 189.584 213.462 189.771 214.006 190.144C214.55 190.517 214.822 191.051 214.822 191.744C214.822 192.203 214.694 192.597 214.438 192.928C214.193 193.248 213.846 193.488 213.398 193.648ZM209.142 193.328H211.67C212.321 193.328 212.817 193.205 213.158 192.96C213.51 192.715 213.686 192.357 213.686 191.888C213.686 191.419 213.51 191.067 213.158 190.832C212.817 190.597 212.321 190.48 211.67 190.48H209.142V193.328ZM211.814 197.104C212.539 197.104 213.083 196.987 213.446 196.752C213.809 196.517 213.99 196.149 213.99 195.648C213.99 195.147 213.825 194.779 213.494 194.544C213.163 194.299 212.641 194.176 211.926 194.176H209.142V197.104H211.814ZM224.924 189.584L220.716 199.008C220.375 199.797 219.98 200.357 219.532 200.688C219.084 201.019 218.546 201.184 217.916 201.184C217.511 201.184 217.132 201.12 216.78 200.992C216.428 200.864 216.124 200.672 215.868 200.416L216.396 199.568C216.823 199.995 217.335 200.208 217.932 200.208C218.316 200.208 218.642 200.101 218.908 199.888C219.186 199.675 219.442 199.312 219.676 198.8L220.044 197.984L216.284 189.584H217.468L220.636 196.736L223.804 189.584H224.924ZM233.82 194.144H226.78C226.844 195.019 227.18 195.728 227.788 196.272C228.396 196.805 229.164 197.072 230.092 197.072C230.614 197.072 231.094 196.981 231.532 196.8C231.969 196.608 232.348 196.331 232.668 195.968L233.308 196.704C232.934 197.152 232.465 197.493 231.9 197.728C231.345 197.963 230.732 198.08 230.06 198.08C229.196 198.08 228.428 197.899 227.756 197.536C227.094 197.163 226.577 196.651 226.204 196C225.83 195.349 225.644 194.613 225.644 193.792C225.644 192.971 225.82 192.235 226.172 191.584C226.534 190.933 227.025 190.427 227.644 190.064C228.273 189.701 228.977 189.52 229.756 189.52C230.534 189.52 231.233 189.701 231.852 190.064C232.47 190.427 232.956 190.933 233.308 191.584C233.66 192.224 233.836 192.96 233.836 193.792L233.82 194.144ZM229.756 190.496C228.945 190.496 228.262 190.757 227.708 191.28C227.164 191.792 226.854 192.464 226.78 193.296H232.748C232.673 192.464 232.358 191.792 231.804 191.28C231.26 190.757 230.577 190.496 229.756 190.496ZM241.895 190.592H238.711V198H237.575V190.592H234.391V189.584H241.895V190.592ZM250.507 194.144H243.467C243.531 195.019 243.867 195.728 244.475 196.272C245.083 196.805 245.851 197.072 246.779 197.072C247.302 197.072 247.782 196.981 248.219 196.8C248.657 196.608 249.035 196.331 249.355 195.968L249.995 196.704C249.622 197.152 249.153 197.493 248.587 197.728C248.033 197.963 247.419 198.08 246.747 198.08C245.883 198.08 245.115 197.899 244.443 197.536C243.782 197.163 243.265 196.651 242.891 196C242.518 195.349 242.331 194.613 242.331 193.792C242.331 192.971 242.507 192.235 242.859 191.584C243.222 190.933 243.713 190.427 244.331 190.064C244.961 189.701 245.665 189.52 246.443 189.52C247.222 189.52 247.921 189.701 248.539 190.064C249.158 190.427 249.643 190.933 249.995 191.584C250.347 192.224 250.523 192.96 250.523 193.792L250.507 194.144ZM246.443 190.496C245.633 190.496 244.95 190.757 244.395 191.28C243.851 191.792 243.542 192.464 243.467 193.296H249.435C249.361 192.464 249.046 191.792 248.491 191.28C247.947 190.757 247.265 190.496 246.443 190.496ZM260.745 198.08C259.913 198.08 259.167 197.899 258.505 197.536C257.855 197.173 257.343 196.667 256.969 196.016C256.596 195.355 256.409 194.613 256.409 193.792C256.409 192.971 256.596 192.235 256.969 191.584C257.343 190.933 257.855 190.427 258.505 190.064C259.167 189.701 259.913 189.52 260.745 189.52C261.471 189.52 262.116 189.664 262.681 189.952C263.257 190.229 263.711 190.64 264.041 191.184L263.193 191.76C262.916 191.344 262.564 191.035 262.137 190.832C261.711 190.619 261.247 190.512 260.745 190.512C260.137 190.512 259.588 190.651 259.097 190.928C258.617 191.195 258.239 191.579 257.961 192.08C257.695 192.581 257.561 193.152 257.561 193.792C257.561 194.443 257.695 195.019 257.961 195.52C258.239 196.011 258.617 196.395 259.097 196.672C259.588 196.939 260.137 197.072 260.745 197.072C261.247 197.072 261.711 196.971 262.137 196.768C262.564 196.565 262.916 196.256 263.193 195.84L264.041 196.416C263.711 196.96 263.257 197.376 262.681 197.664C262.105 197.941 261.46 198.08 260.745 198.08ZM273.46 194.144H266.42C266.484 195.019 266.82 195.728 267.428 196.272C268.036 196.805 268.804 197.072 269.732 197.072C270.255 197.072 270.735 196.981 271.172 196.8C271.61 196.608 271.988 196.331 272.308 195.968L272.948 196.704C272.575 197.152 272.106 197.493 271.54 197.728C270.986 197.963 270.372 198.08 269.7 198.08C268.836 198.08 268.068 197.899 267.396 197.536C266.735 197.163 266.218 196.651 265.844 196C265.471 195.349 265.284 194.613 265.284 193.792C265.284 192.971 265.46 192.235 265.812 191.584C266.175 190.933 266.666 190.427 267.284 190.064C267.914 189.701 268.618 189.52 269.396 189.52C270.175 189.52 270.874 189.701 271.492 190.064C272.111 190.427 272.596 190.933 272.948 191.584C273.3 192.224 273.476 192.96 273.476 193.792L273.46 194.144ZM269.396 190.496C268.586 190.496 267.903 190.757 267.348 191.28C266.804 191.792 266.495 192.464 266.42 193.296H272.388C272.314 192.464 271.999 191.792 271.444 191.28C270.9 190.757 270.218 190.496 269.396 190.496ZM280.071 189.792C280.85 189.792 281.543 189.968 282.151 190.32C282.77 190.661 283.25 191.147 283.591 191.776C283.932 192.395 284.103 193.104 284.103 193.904C284.103 194.725 283.922 195.456 283.559 196.096C283.207 196.725 282.711 197.216 282.071 197.568C281.431 197.92 280.695 198.096 279.863 198.096C278.466 198.096 277.383 197.605 276.615 196.624C275.847 195.643 275.463 194.288 275.463 192.56C275.463 190.757 275.804 189.376 276.487 188.416C277.18 187.456 278.258 186.805 279.719 186.464L283.495 185.6L283.687 186.64L280.135 187.456C278.93 187.723 278.044 188.197 277.479 188.88C276.914 189.552 276.604 190.549 276.551 191.872C276.892 191.221 277.367 190.715 277.975 190.352C278.583 189.979 279.282 189.792 280.071 189.792ZM279.895 197.152C280.482 197.152 281.004 197.019 281.463 196.752C281.932 196.475 282.295 196.091 282.551 195.6C282.818 195.109 282.951 194.555 282.951 193.936C282.951 193.317 282.823 192.773 282.567 192.304C282.311 191.835 281.948 191.472 281.479 191.216C281.02 190.949 280.492 190.816 279.895 190.816C279.298 190.816 278.764 190.949 278.295 191.216C277.836 191.472 277.474 191.835 277.207 192.304C276.951 192.773 276.823 193.317 276.823 193.936C276.823 194.555 276.951 195.109 277.207 195.6C277.474 196.091 277.842 196.475 278.311 196.752C278.78 197.019 279.308 197.152 279.895 197.152ZM292.705 189.584V198H291.665V195.216H289.025H288.705L286.753 198H285.521L287.617 195.056C286.966 194.875 286.465 194.565 286.113 194.128C285.761 193.691 285.585 193.136 285.585 192.464C285.585 191.525 285.905 190.811 286.545 190.32C287.185 189.829 288.06 189.584 289.169 189.584H292.705ZM286.737 192.496C286.737 193.744 287.532 194.368 289.121 194.368H291.665V190.592H289.201C287.558 190.592 286.737 191.227 286.737 192.496ZM305.492 193.648C306.633 193.915 307.204 194.603 307.204 195.712C307.204 196.448 306.932 197.013 306.388 197.408C305.844 197.803 305.033 198 303.956 198H300.132V189.584H303.844C304.804 189.584 305.556 189.771 306.1 190.144C306.644 190.517 306.916 191.051 306.916 191.744C306.916 192.203 306.788 192.597 306.532 192.928C306.286 193.248 305.94 193.488 305.492 193.648ZM301.236 193.328H303.764C304.414 193.328 304.91 193.205 305.252 192.96C305.604 192.715 305.78 192.357 305.78 191.888C305.78 191.419 305.604 191.067 305.252 190.832C304.91 190.597 304.414 190.48 303.764 190.48H301.236V193.328ZM303.908 197.104C304.633 197.104 305.177 196.987 305.54 196.752C305.902 196.517 306.084 196.149 306.084 195.648C306.084 195.147 305.918 194.779 305.588 194.544C305.257 194.299 304.734 194.176 304.02 194.176H301.236V197.104H303.908ZM318.15 193.616C318.747 193.755 319.206 193.995 319.526 194.336C319.856 194.677 320.022 195.093 320.022 195.584C320.022 196.075 319.851 196.512 319.51 196.896C319.179 197.28 318.726 197.579 318.15 197.792C317.574 197.995 316.939 198.096 316.246 198.096C315.638 198.096 315.04 198.011 314.454 197.84C313.867 197.659 313.355 197.397 312.918 197.056L313.302 196.208C313.686 196.496 314.134 196.72 314.646 196.88C315.158 197.04 315.675 197.12 316.198 197.12C316.976 197.12 317.611 196.976 318.102 196.688C318.603 196.389 318.854 195.989 318.854 195.488C318.854 195.04 318.651 194.693 318.246 194.448C317.84 194.192 317.286 194.064 316.582 194.064H315.142V193.232H316.518C317.147 193.232 317.654 193.115 318.038 192.88C318.422 192.635 318.614 192.309 318.614 191.904C318.614 191.456 318.395 191.104 317.958 190.848C317.531 190.592 316.971 190.464 316.278 190.464C315.371 190.464 314.475 190.693 313.59 191.152L313.27 190.272C314.272 189.749 315.312 189.488 316.39 189.488C317.03 189.488 317.606 189.584 318.118 189.776C318.64 189.957 319.046 190.219 319.334 190.56C319.632 190.901 319.782 191.296 319.782 191.744C319.782 192.171 319.632 192.549 319.334 192.88C319.046 193.211 318.651 193.456 318.15 193.616ZM326.072 198.08C325.262 198.08 324.531 197.899 323.88 197.536C323.23 197.163 322.718 196.651 322.344 196C321.971 195.349 321.784 194.613 321.784 193.792C321.784 192.971 321.971 192.235 322.344 191.584C322.718 190.933 323.23 190.427 323.88 190.064C324.531 189.701 325.262 189.52 326.072 189.52C326.883 189.52 327.614 189.701 328.264 190.064C328.915 190.427 329.422 190.933 329.784 191.584C330.158 192.235 330.344 192.971 330.344 193.792C330.344 194.613 330.158 195.349 329.784 196C329.422 196.651 328.915 197.163 328.264 197.536C327.614 197.899 326.883 198.08 326.072 198.08ZM326.072 197.072C326.67 197.072 327.203 196.939 327.672 196.672C328.152 196.395 328.526 196.005 328.792 195.504C329.059 195.003 329.192 194.432 329.192 193.792C329.192 193.152 329.059 192.581 328.792 192.08C328.526 191.579 328.152 191.195 327.672 190.928C327.203 190.651 326.67 190.512 326.072 190.512C325.475 190.512 324.936 190.651 324.456 190.928C323.987 191.195 323.614 191.579 323.336 192.08C323.07 192.581 322.936 193.152 322.936 193.792C322.936 194.432 323.07 195.003 323.336 195.504C323.614 196.005 323.987 196.395 324.456 196.672C324.936 196.939 325.475 197.072 326.072 197.072ZM332.772 189.584H333.908V193.312H339.204V189.584H340.34V198H339.204V194.288H333.908V198H332.772V189.584ZM350.929 194.144H343.889C343.953 195.019 344.289 195.728 344.897 196.272C345.505 196.805 346.273 197.072 347.201 197.072C347.724 197.072 348.204 196.981 348.641 196.8C349.078 196.608 349.457 196.331 349.777 195.968L350.417 196.704C350.044 197.152 349.574 197.493 349.009 197.728C348.454 197.963 347.841 198.08 347.169 198.08C346.305 198.08 345.537 197.899 344.865 197.536C344.204 197.163 343.686 196.651 343.313 196C342.94 195.349 342.753 194.613 342.753 193.792C342.753 192.971 342.929 192.235 343.281 191.584C343.644 190.933 344.134 190.427 344.753 190.064C345.382 189.701 346.086 189.52 346.865 189.52C347.644 189.52 348.342 189.701 348.961 190.064C349.58 190.427 350.065 190.933 350.417 191.584C350.769 192.224 350.945 192.96 350.945 193.792L350.929 194.144ZM346.865 190.496C346.054 190.496 345.372 190.757 344.817 191.28C344.273 191.792 343.964 192.464 343.889 193.296H349.857C349.782 192.464 349.468 191.792 348.913 191.28C348.369 190.757 347.686 190.496 346.865 190.496ZM360.703 194.256H358.783V198H357.647V189.584H358.783V193.28H360.719L363.679 189.584H364.911L361.599 193.664L365.151 198H363.807L360.703 194.256ZM370.119 198.08C369.309 198.08 368.578 197.899 367.927 197.536C367.277 197.163 366.765 196.651 366.391 196C366.018 195.349 365.831 194.613 365.831 193.792C365.831 192.971 366.018 192.235 366.391 191.584C366.765 190.933 367.277 190.427 367.927 190.064C368.578 189.701 369.309 189.52 370.119 189.52C370.93 189.52 371.661 189.701 372.311 190.064C372.962 190.427 373.469 190.933 373.831 191.584C374.205 192.235 374.391 192.971 374.391 193.792C374.391 194.613 374.205 195.349 373.831 196C373.469 196.651 372.962 197.163 372.311 197.536C371.661 197.899 370.93 198.08 370.119 198.08ZM370.119 197.072C370.717 197.072 371.25 196.939 371.719 196.672C372.199 196.395 372.573 196.005 372.839 195.504C373.106 195.003 373.239 194.432 373.239 193.792C373.239 193.152 373.106 192.581 372.839 192.08C372.573 191.579 372.199 191.195 371.719 190.928C371.25 190.651 370.717 190.512 370.119 190.512C369.522 190.512 368.983 190.651 368.503 190.928C368.034 191.195 367.661 191.579 367.383 192.08C367.117 192.581 366.983 193.152 366.983 193.792C366.983 194.432 367.117 195.003 367.383 195.504C367.661 196.005 368.034 196.395 368.503 196.672C368.983 196.939 369.522 197.072 370.119 197.072ZM386.227 189.584V198H385.187V191.344L381.779 196.976H381.267L377.859 191.328V198H376.819V189.584H377.971L381.539 195.648L385.171 189.584H386.227ZM399.62 193.776C399.62 195.088 399.188 196.117 398.324 196.864C397.46 197.611 396.238 198.016 394.66 198.08V201.104H393.556V198.096C391.988 198.032 390.772 197.627 389.908 196.88C389.054 196.123 388.628 195.088 388.628 193.776C388.628 192.475 389.054 191.456 389.908 190.72C390.772 189.984 391.988 189.584 393.556 189.52V186.128H394.66V189.52C396.238 189.595 397.46 190 398.324 190.736C399.188 191.472 399.62 192.485 399.62 193.776ZM389.748 193.776C389.748 194.779 390.068 195.563 390.708 196.128C391.358 196.693 392.308 197.013 393.556 197.088V190.528C392.318 190.592 391.374 190.907 390.724 191.472C390.073 192.027 389.748 192.795 389.748 193.776ZM394.66 197.088C395.908 197.024 396.857 196.709 397.508 196.144C398.169 195.579 398.5 194.789 398.5 193.776C398.5 192.784 398.169 192.011 397.508 191.456C396.857 190.901 395.908 190.592 394.66 190.528V197.088ZM405.494 198.08C404.684 198.08 403.953 197.899 403.302 197.536C402.652 197.163 402.14 196.651 401.766 196C401.393 195.349 401.206 194.613 401.206 193.792C401.206 192.971 401.393 192.235 401.766 191.584C402.14 190.933 402.652 190.427 403.302 190.064C403.953 189.701 404.684 189.52 405.494 189.52C406.305 189.52 407.036 189.701 407.686 190.064C408.337 190.427 408.844 190.933 409.206 191.584C409.58 192.235 409.766 192.971 409.766 193.792C409.766 194.613 409.58 195.349 409.206 196C408.844 196.651 408.337 197.163 407.686 197.536C407.036 197.899 406.305 198.08 405.494 198.08ZM405.494 197.072C406.092 197.072 406.625 196.939 407.094 196.672C407.574 196.395 407.948 196.005 408.214 195.504C408.481 195.003 408.614 194.432 408.614 193.792C408.614 193.152 408.481 192.581 408.214 192.08C407.948 191.579 407.574 191.195 407.094 190.928C406.625 190.651 406.092 190.512 405.494 190.512C404.897 190.512 404.358 190.651 403.878 190.928C403.409 191.195 403.036 191.579 402.758 192.08C402.492 192.581 402.358 193.152 402.358 193.792C402.358 194.432 402.492 195.003 402.758 195.504C403.036 196.005 403.409 196.395 403.878 196.672C404.358 196.939 404.897 197.072 405.494 197.072ZM416.53 189.52C417.319 189.52 418.034 189.701 418.674 190.064C419.314 190.416 419.815 190.917 420.178 191.568C420.541 192.219 420.722 192.96 420.722 193.792C420.722 194.635 420.541 195.381 420.178 196.032C419.815 196.683 419.314 197.189 418.674 197.552C418.045 197.904 417.33 198.08 416.53 198.08C415.847 198.08 415.229 197.941 414.674 197.664C414.13 197.376 413.682 196.96 413.33 196.416V201.104H412.194V189.584H413.282V191.248C413.623 190.693 414.071 190.267 414.626 189.968C415.191 189.669 415.826 189.52 416.53 189.52ZM416.45 197.072C417.037 197.072 417.57 196.939 418.05 196.672C418.53 196.395 418.903 196.005 419.17 195.504C419.447 195.003 419.586 194.432 419.586 193.792C419.586 193.152 419.447 192.587 419.17 192.096C418.903 191.595 418.53 191.205 418.05 190.928C417.57 190.651 417.037 190.512 416.45 190.512C415.853 190.512 415.314 190.651 414.834 190.928C414.365 191.205 413.991 191.595 413.714 192.096C413.447 192.587 413.314 193.152 413.314 193.792C413.314 194.432 413.447 195.003 413.714 195.504C413.991 196.005 414.365 196.395 414.834 196.672C415.314 196.939 415.853 197.072 416.45 197.072ZM428.77 190.592H425.586V198H424.45V190.592H421.266V189.584H428.77V190.592ZM433.309 189.52C434.408 189.52 435.25 189.797 435.837 190.352C436.424 190.896 436.717 191.707 436.717 192.784V198H435.629V196.688C435.373 197.125 434.994 197.467 434.493 197.712C434.002 197.957 433.416 198.08 432.733 198.08C431.794 198.08 431.048 197.856 430.493 197.408C429.938 196.96 429.661 196.368 429.661 195.632C429.661 194.917 429.917 194.341 430.429 193.904C430.952 193.467 431.778 193.248 432.909 193.248H435.581V192.736C435.581 192.011 435.378 191.461 434.973 191.088C434.568 190.704 433.976 190.512 433.197 190.512C432.664 190.512 432.152 190.603 431.661 190.784C431.17 190.955 430.749 191.195 430.397 191.504L429.885 190.656C430.312 190.293 430.824 190.016 431.421 189.824C432.018 189.621 432.648 189.52 433.309 189.52ZM432.909 197.184C433.549 197.184 434.098 197.04 434.557 196.752C435.016 196.453 435.357 196.027 435.581 195.472V194.096H432.941C431.501 194.096 430.781 194.597 430.781 195.6C430.781 196.091 430.968 196.48 431.341 196.768C431.714 197.045 432.237 197.184 432.909 197.184ZM439.837 196.336C440.082 196.336 440.285 196.421 440.445 196.592C440.605 196.752 440.685 196.955 440.685 197.2C440.685 197.328 440.664 197.467 440.621 197.616C440.589 197.765 440.536 197.936 440.461 198.128L439.789 200.336H439.021L439.565 198.016C439.394 197.963 439.256 197.867 439.149 197.728C439.042 197.579 438.989 197.403 438.989 197.2C438.989 196.955 439.069 196.752 439.229 196.592C439.389 196.421 439.592 196.336 439.837 196.336ZM10.496 209.584V218H9.36V210.592H5.328L5.216 212.672C5.13067 214.421 4.928 215.765 4.608 216.704C4.288 217.643 3.71733 218.112 2.896 218.112C2.672 218.112 2.4 218.069 2.08 217.984L2.16 217.008C2.352 217.051 2.48533 217.072 2.56 217.072C2.99733 217.072 3.328 216.869 3.552 216.464C3.776 216.059 3.92533 215.557 4 214.96C4.07467 214.363 4.13867 213.573 4.192 212.592L4.336 209.584H10.496ZM13.7254 209.584H14.8614V216.272L20.4774 209.584H21.4854V218H20.3494V211.312L14.7494 218H13.7254V209.584ZM31.093 209.584V218H29.957V214.496C28.9863 214.923 28.0317 215.136 27.093 215.136C26.0797 215.136 25.2903 214.907 24.725 214.448C24.1597 213.979 23.877 213.28 23.877 212.352V209.584H25.013V212.288C25.013 212.917 25.2157 213.397 25.621 213.728C26.0263 214.048 26.5863 214.208 27.301 214.208C28.0903 214.208 28.9757 214 29.957 213.584V209.584H31.093ZM34.3191 209.584H35.4551V213.312H40.7511V209.584H41.8871V218H40.7511V214.288H35.4551V218H34.3191V209.584ZM48.588 218.08C47.7773 218.08 47.0467 217.899 46.396 217.536C45.7453 217.163 45.2333 216.651 44.86 216C44.4867 215.349 44.3 214.613 44.3 213.792C44.3 212.971 44.4867 212.235 44.86 211.584C45.2333 210.933 45.7453 210.427 46.396 210.064C47.0467 209.701 47.7773 209.52 48.588 209.52C49.3987 209.52 50.1293 209.701 50.78 210.064C51.4307 210.427 51.9373 210.933 52.3 211.584C52.6733 212.235 52.86 212.971 52.86 213.792C52.86 214.613 52.6733 215.349 52.3 216C51.9373 216.651 51.4307 217.163 50.78 217.536C50.1293 217.899 49.3987 218.08 48.588 218.08ZM48.588 217.072C49.1853 217.072 49.7187 216.939 50.188 216.672C50.668 216.395 51.0413 216.005 51.308 215.504C51.5747 215.003 51.708 214.432 51.708 213.792C51.708 213.152 51.5747 212.581 51.308 212.08C51.0413 211.579 50.668 211.195 50.188 210.928C49.7187 210.651 49.1853 210.512 48.588 210.512C47.9907 210.512 47.452 210.651 46.972 210.928C46.5027 211.195 46.1293 211.579 45.852 212.08C45.5853 212.581 45.452 213.152 45.452 213.792C45.452 214.432 45.5853 215.003 45.852 215.504C46.1293 216.005 46.5027 216.395 46.972 216.672C47.452 216.939 47.9907 217.072 48.588 217.072ZM58.8079 218.08C57.9759 218.08 57.2292 217.899 56.5679 217.536C55.9172 217.173 55.4052 216.667 55.0319 216.016C54.6585 215.355 54.4719 214.613 54.4719 213.792C54.4719 212.971 54.6585 212.235 55.0319 211.584C55.4052 210.933 55.9172 210.427 56.5679 210.064C57.2292 209.701 57.9759 209.52 58.8079 209.52C59.5332 209.52 60.1785 209.664 60.7439 209.952C61.3199 210.229 61.7732 210.64 62.1039 211.184L61.2559 211.76C60.9785 211.344 60.6265 211.035 60.1999 210.832C59.7732 210.619 59.3092 210.512 58.8079 210.512C58.1999 210.512 57.6505 210.651 57.1599 210.928C56.6799 211.195 56.3012 211.579 56.0239 212.08C55.7572 212.581 55.6239 213.152 55.6239 213.792C55.6239 214.443 55.7572 215.019 56.0239 215.52C56.3012 216.011 56.6799 216.395 57.1599 216.672C57.6505 216.939 58.1999 217.072 58.8079 217.072C59.3092 217.072 59.7732 216.971 60.1999 216.768C60.6265 216.565 60.9785 216.256 61.2559 215.84L62.1039 216.416C61.7732 216.96 61.3199 217.376 60.7439 217.664C60.1679 217.941 59.5225 218.08 58.8079 218.08ZM70.0673 210.592H66.8833V218H65.7473V210.592H62.5633V209.584H70.0673V210.592ZM71.7098 209.584H72.8458V213.312H78.1418V209.584H79.2778V218H78.1418V214.288H72.8458V218H71.7098V209.584ZM85.9786 218.08C85.168 218.08 84.4373 217.899 83.7866 217.536C83.136 217.163 82.624 216.651 82.2506 216C81.8773 215.349 81.6906 214.613 81.6906 213.792C81.6906 212.971 81.8773 212.235 82.2506 211.584C82.624 210.933 83.136 210.427 83.7866 210.064C84.4373 209.701 85.168 209.52 85.9786 209.52C86.7893 209.52 87.52 209.701 88.1706 210.064C88.8213 210.427 89.328 210.933 89.6906 211.584C90.064 212.235 90.2506 212.971 90.2506 213.792C90.2506 214.613 90.064 215.349 89.6906 216C89.328 216.651 88.8213 217.163 88.1706 217.536C87.52 217.899 86.7893 218.08 85.9786 218.08ZM85.9786 217.072C86.576 217.072 87.1093 216.939 87.5786 216.672C88.0586 216.395 88.432 216.005 88.6986 215.504C88.9653 215.003 89.0986 214.432 89.0986 213.792C89.0986 213.152 88.9653 212.581 88.6986 212.08C88.432 211.579 88.0586 211.195 87.5786 210.928C87.1093 210.651 86.576 210.512 85.9786 210.512C85.3813 210.512 84.8426 210.651 84.3626 210.928C83.8933 211.195 83.52 211.579 83.2426 212.08C82.976 212.581 82.8426 213.152 82.8426 213.792C82.8426 214.432 82.976 215.003 83.2426 215.504C83.52 216.005 83.8933 216.395 84.3626 216.672C84.8426 216.939 85.3813 217.072 85.9786 217.072ZM98.6305 210.592H93.8145V218H92.6785V209.584H98.6305V210.592ZM103.354 218.08C102.543 218.08 101.812 217.899 101.162 217.536C100.511 217.163 99.999 216.651 99.6256 216C99.2523 215.349 99.0656 214.613 99.0656 213.792C99.0656 212.971 99.2523 212.235 99.6256 211.584C99.999 210.933 100.511 210.427 101.162 210.064C101.812 209.701 102.543 209.52 103.354 209.52C104.164 209.52 104.895 209.701 105.546 210.064C106.196 210.427 106.703 210.933 107.066 211.584C107.439 212.235 107.626 212.971 107.626 213.792C107.626 214.613 107.439 215.349 107.066 216C106.703 216.651 106.196 217.163 105.546 217.536C104.895 217.899 104.164 218.08 103.354 218.08ZM103.354 217.072C103.951 217.072 104.484 216.939 104.954 216.672C105.434 216.395 105.807 216.005 106.074 215.504C106.34 215.003 106.474 214.432 106.474 213.792C106.474 213.152 106.34 212.581 106.074 212.08C105.807 211.579 105.434 211.195 104.954 210.928C104.484 210.651 103.951 210.512 103.354 210.512C102.756 210.512 102.218 210.651 101.738 210.928C101.268 211.195 100.895 211.579 100.618 212.08C100.351 212.581 100.218 213.152 100.218 213.792C100.218 214.432 100.351 215.003 100.618 215.504C100.895 216.005 101.268 216.395 101.738 216.672C102.218 216.939 102.756 217.072 103.354 217.072ZM118.577 209.52C119.366 209.52 120.081 209.701 120.721 210.064C121.361 210.416 121.862 210.917 122.225 211.568C122.588 212.219 122.769 212.96 122.769 213.792C122.769 214.635 122.588 215.381 122.225 216.032C121.862 216.683 121.361 217.189 120.721 217.552C120.092 217.904 119.377 218.08 118.577 218.08C117.894 218.08 117.276 217.941 116.721 217.664C116.177 217.376 115.729 216.96 115.377 216.416V221.104H114.241V209.584H115.329V211.248C115.67 210.693 116.118 210.267 116.673 209.968C117.238 209.669 117.873 209.52 118.577 209.52ZM118.497 217.072C119.084 217.072 119.617 216.939 120.097 216.672C120.577 216.395 120.95 216.005 121.217 215.504C121.494 215.003 121.633 214.432 121.633 213.792C121.633 213.152 121.494 212.587 121.217 212.096C120.95 211.595 120.577 211.205 120.097 210.928C119.617 210.651 119.084 210.512 118.497 210.512C117.9 210.512 117.361 210.651 116.881 210.928C116.412 211.205 116.038 211.595 115.761 212.096C115.494 212.587 115.361 213.152 115.361 213.792C115.361 214.432 115.494 215.003 115.761 215.504C116.038 216.005 116.412 216.395 116.881 216.672C117.361 216.939 117.9 217.072 118.497 217.072ZM128.682 218.08C127.871 218.08 127.14 217.899 126.49 217.536C125.839 217.163 125.327 216.651 124.954 216C124.58 215.349 124.394 214.613 124.394 213.792C124.394 212.971 124.58 212.235 124.954 211.584C125.327 210.933 125.839 210.427 126.49 210.064C127.14 209.701 127.871 209.52 128.682 209.52C129.492 209.52 130.223 209.701 130.874 210.064C131.524 210.427 132.031 210.933 132.394 211.584C132.767 212.235 132.954 212.971 132.954 213.792C132.954 214.613 132.767 215.349 132.394 216C132.031 216.651 131.524 217.163 130.874 217.536C130.223 217.899 129.492 218.08 128.682 218.08ZM128.682 217.072C129.279 217.072 129.812 216.939 130.282 216.672C130.762 216.395 131.135 216.005 131.402 215.504C131.668 215.003 131.802 214.432 131.802 213.792C131.802 213.152 131.668 212.581 131.402 212.08C131.135 211.579 130.762 211.195 130.282 210.928C129.812 210.651 129.279 210.512 128.682 210.512C128.084 210.512 127.546 210.651 127.066 210.928C126.596 211.195 126.223 211.579 125.946 212.08C125.679 212.581 125.546 213.152 125.546 213.792C125.546 214.432 125.679 215.003 125.946 215.504C126.223 216.005 126.596 216.395 127.066 216.672C127.546 216.939 128.084 217.072 128.682 217.072ZM138.902 218.08C138.07 218.08 137.323 217.899 136.662 217.536C136.011 217.173 135.499 216.667 135.126 216.016C134.752 215.355 134.566 214.613 134.566 213.792C134.566 212.971 134.752 212.235 135.126 211.584C135.499 210.933 136.011 210.427 136.662 210.064C137.323 209.701 138.07 209.52 138.902 209.52C139.627 209.52 140.272 209.664 140.838 209.952C141.414 210.229 141.867 210.64 142.198 211.184L141.35 211.76C141.072 211.344 140.72 211.035 140.294 210.832C139.867 210.619 139.403 210.512 138.902 210.512C138.294 210.512 137.744 210.651 137.254 210.928C136.774 211.195 136.395 211.579 136.118 212.08C135.851 212.581 135.718 213.152 135.718 213.792C135.718 214.443 135.851 215.019 136.118 215.52C136.395 216.011 136.774 216.395 137.254 216.672C137.744 216.939 138.294 217.072 138.902 217.072C139.403 217.072 139.867 216.971 140.294 216.768C140.72 216.565 141.072 216.256 141.35 215.84L142.198 216.416C141.867 216.96 141.414 217.376 140.838 217.664C140.262 217.941 139.616 218.08 138.902 218.08ZM150.161 210.592H146.977V218H145.841V210.592H142.657V209.584H150.161V210.592ZM154.7 209.52C155.798 209.52 156.641 209.797 157.228 210.352C157.814 210.896 158.108 211.707 158.108 212.784V218H157.02V216.688C156.764 217.125 156.385 217.467 155.884 217.712C155.393 217.957 154.806 218.08 154.124 218.08C153.185 218.08 152.438 217.856 151.884 217.408C151.329 216.96 151.052 216.368 151.052 215.632C151.052 214.917 151.308 214.341 151.82 213.904C152.342 213.467 153.169 213.248 154.299 213.248H156.972V212.736C156.972 212.011 156.769 211.461 156.364 211.088C155.958 210.704 155.366 210.512 154.588 210.512C154.054 210.512 153.542 210.603 153.052 210.784C152.561 210.955 152.14 211.195 151.788 211.504L151.276 210.656C151.702 210.293 152.214 210.016 152.812 209.824C153.409 209.621 154.038 209.52 154.7 209.52ZM154.299 217.184C154.94 217.184 155.489 217.04 155.948 216.752C156.406 216.453 156.748 216.027 156.972 215.472V214.096H154.332C152.892 214.096 152.172 214.597 152.172 215.6C152.172 216.091 152.358 216.48 152.732 216.768C153.105 217.045 153.628 217.184 154.299 217.184ZM165.319 209.584H166.455V216.272L172.071 209.584H173.079V218H171.943V211.312L166.343 218H165.319V209.584ZM190.682 213.776C190.682 215.088 190.25 216.117 189.386 216.864C188.522 217.611 187.301 218.016 185.722 218.08V221.104H184.618V218.096C183.05 218.032 181.834 217.627 180.97 216.88C180.117 216.123 179.69 215.088 179.69 213.776C179.69 212.475 180.117 211.456 180.97 210.72C181.834 209.984 183.05 209.584 184.618 209.52V206.128H185.722V209.52C187.301 209.595 188.522 210 189.386 210.736C190.25 211.472 190.682 212.485 190.682 213.776ZM180.81 213.776C180.81 214.779 181.13 215.563 181.77 216.128C182.421 216.693 183.37 217.013 184.618 217.088V210.528C183.381 210.592 182.437 210.907 181.786 211.472C181.136 212.027 180.81 212.795 180.81 213.776ZM185.722 217.088C186.97 217.024 187.92 216.709 188.57 216.144C189.232 215.579 189.562 214.789 189.562 213.776C189.562 212.784 189.232 212.011 188.57 211.456C187.92 210.901 186.97 210.592 185.722 210.528V217.088ZM193.085 209.584H194.221V216.272L199.837 209.584H200.845V218H199.709V211.312L194.109 218H193.085V209.584ZM204.1 209.584H205.236V213.312H210.532V209.584H211.668V218H210.532V214.288H205.236V218H204.1V209.584ZM217.793 209.52C218.892 209.52 219.735 209.797 220.321 210.352C220.908 210.896 221.201 211.707 221.201 212.784V218H220.113V216.688C219.857 217.125 219.479 217.467 218.977 217.712C218.487 217.957 217.9 218.08 217.217 218.08C216.279 218.08 215.532 217.856 214.977 217.408C214.423 216.96 214.145 216.368 214.145 215.632C214.145 214.917 214.401 214.341 214.913 213.904C215.436 213.467 216.263 213.248 217.393 213.248H220.065V212.736C220.065 212.011 219.863 211.461 219.457 211.088C219.052 210.704 218.46 210.512 217.681 210.512C217.148 210.512 216.636 210.603 216.145 210.784C215.655 210.955 215.233 211.195 214.881 211.504L214.369 210.656C214.796 210.293 215.308 210.016 215.905 209.824C216.503 209.621 217.132 209.52 217.793 209.52ZM217.393 217.184C218.033 217.184 218.583 217.04 219.041 216.752C219.5 216.453 219.841 216.027 220.065 215.472V214.096H217.425C215.985 214.096 215.265 214.597 215.265 215.6C215.265 216.091 215.452 216.48 215.825 216.768C216.199 217.045 216.721 217.184 217.393 217.184ZM224.225 209.584H225.361V213.312H230.657V209.584H231.793V218H230.657V214.288H225.361V218H224.225V209.584ZM238.542 218.08C237.71 218.08 236.964 217.899 236.302 217.536C235.652 217.173 235.14 216.667 234.766 216.016C234.393 215.355 234.206 214.613 234.206 213.792C234.206 212.971 234.393 212.235 234.766 211.584C235.14 210.933 235.652 210.427 236.302 210.064C236.964 209.701 237.71 209.52 238.542 209.52C239.268 209.52 239.913 209.664 240.478 209.952C241.054 210.229 241.508 210.64 241.838 211.184L240.99 211.76C240.713 211.344 240.361 211.035 239.934 210.832C239.508 210.619 239.044 210.512 238.542 210.512C237.934 210.512 237.385 210.651 236.894 210.928C236.414 211.195 236.036 211.579 235.758 212.08C235.492 212.581 235.358 213.152 235.358 213.792C235.358 214.443 235.492 215.019 235.758 215.52C236.036 216.011 236.414 216.395 236.894 216.672C237.385 216.939 237.934 217.072 238.542 217.072C239.044 217.072 239.508 216.971 239.934 216.768C240.361 216.565 240.713 216.256 240.99 215.84L241.838 216.416C241.508 216.96 241.054 217.376 240.478 217.664C239.902 217.941 239.257 218.08 238.542 218.08ZM247.369 218.08C246.559 218.08 245.828 217.899 245.177 217.536C244.527 217.163 244.015 216.651 243.641 216C243.268 215.349 243.081 214.613 243.081 213.792C243.081 212.971 243.268 212.235 243.641 211.584C244.015 210.933 244.527 210.427 245.177 210.064C245.828 209.701 246.559 209.52 247.369 209.52C248.18 209.52 248.911 209.701 249.561 210.064C250.212 210.427 250.719 210.933 251.081 211.584C251.455 212.235 251.641 212.971 251.641 213.792C251.641 214.613 251.455 215.349 251.081 216C250.719 216.651 250.212 217.163 249.561 217.536C248.911 217.899 248.18 218.08 247.369 218.08ZM247.369 217.072C247.967 217.072 248.5 216.939 248.969 216.672C249.449 216.395 249.823 216.005 250.089 215.504C250.356 215.003 250.489 214.432 250.489 213.792C250.489 213.152 250.356 212.581 250.089 212.08C249.823 211.579 249.449 211.195 248.969 210.928C248.5 210.651 247.967 210.512 247.369 210.512C246.772 210.512 246.233 210.651 245.753 210.928C245.284 211.195 244.911 211.579 244.633 212.08C244.367 212.581 244.233 213.152 244.233 213.792C244.233 214.432 244.367 215.003 244.633 215.504C244.911 216.005 245.284 216.395 245.753 216.672C246.233 216.939 246.772 217.072 247.369 217.072ZM259.429 213.648C260.57 213.915 261.141 214.603 261.141 215.712C261.141 216.448 260.869 217.013 260.325 217.408C259.781 217.803 258.97 218 257.893 218H254.069V209.584H257.781C258.741 209.584 259.493 209.771 260.037 210.144C260.581 210.517 260.853 211.051 260.853 211.744C260.853 212.203 260.725 212.597 260.469 212.928C260.224 213.248 259.877 213.488 259.429 213.648ZM255.173 213.328H257.701C258.352 213.328 258.848 213.205 259.189 212.96C259.541 212.715 259.717 212.357 259.717 211.888C259.717 211.419 259.541 211.067 259.189 210.832C258.848 210.597 258.352 210.48 257.701 210.48H255.173V213.328ZM257.845 217.104C258.57 217.104 259.114 216.987 259.477 216.752C259.84 216.517 260.021 216.149 260.021 215.648C260.021 215.147 259.856 214.779 259.525 214.544C259.194 214.299 258.672 214.176 257.957 214.176H255.173V217.104H257.845ZM267.276 218.08C266.465 218.08 265.734 217.899 265.084 217.536C264.433 217.163 263.921 216.651 263.548 216C263.174 215.349 262.988 214.613 262.988 213.792C262.988 212.971 263.174 212.235 263.548 211.584C263.921 210.933 264.433 210.427 265.084 210.064C265.734 209.701 266.465 209.52 267.276 209.52C268.086 209.52 268.817 209.701 269.468 210.064C270.118 210.427 270.625 210.933 270.988 211.584C271.361 212.235 271.548 212.971 271.548 213.792C271.548 214.613 271.361 215.349 270.988 216C270.625 216.651 270.118 217.163 269.468 217.536C268.817 217.899 268.086 218.08 267.276 218.08ZM267.276 217.072C267.873 217.072 268.406 216.939 268.876 216.672C269.356 216.395 269.729 216.005 269.996 215.504C270.262 215.003 270.396 214.432 270.396 213.792C270.396 213.152 270.262 212.581 269.996 212.08C269.729 211.579 269.356 211.195 268.876 210.928C268.406 210.651 267.873 210.512 267.276 210.512C266.678 210.512 266.14 210.651 265.66 210.928C265.19 211.195 264.817 211.579 264.539 212.08C264.273 212.581 264.14 213.152 264.14 213.792C264.14 214.432 264.273 215.003 264.539 215.504C264.817 216.005 265.19 216.395 265.66 216.672C266.14 216.939 266.678 217.072 267.276 217.072ZM279.927 210.592H275.111V218H273.975V209.584H279.927V210.592ZM284.651 218.08C283.84 218.08 283.109 217.899 282.459 217.536C281.808 217.163 281.296 216.651 280.923 216C280.549 215.349 280.363 214.613 280.363 213.792C280.363 212.971 280.549 212.235 280.923 211.584C281.296 210.933 281.808 210.427 282.459 210.064C283.109 209.701 283.84 209.52 284.651 209.52C285.461 209.52 286.192 209.701 286.843 210.064C287.493 210.427 288 210.933 288.363 211.584C288.736 212.235 288.923 212.971 288.923 213.792C288.923 214.613 288.736 215.349 288.363 216C288 216.651 287.493 217.163 286.843 217.536C286.192 217.899 285.461 218.08 284.651 218.08ZM284.651 217.072C285.248 217.072 285.781 216.939 286.251 216.672C286.731 216.395 287.104 216.005 287.371 215.504C287.637 215.003 287.771 214.432 287.771 213.792C287.771 213.152 287.637 212.581 287.371 212.08C287.104 211.579 286.731 211.195 286.251 210.928C285.781 210.651 285.248 210.512 284.651 210.512C284.053 210.512 283.515 210.651 283.035 210.928C282.565 211.195 282.192 211.579 281.914 212.08C281.648 212.581 281.515 213.152 281.515 213.792C281.515 214.432 281.648 215.003 281.914 215.504C282.192 216.005 282.565 216.395 283.035 216.672C283.515 216.939 284.053 217.072 284.651 217.072ZM295.538 209.584H296.674V216.272L302.29 209.584H303.298V218H302.162V211.312L296.562 218H295.538V209.584ZM310.478 213.616C311.075 213.755 311.534 213.995 311.854 214.336C312.184 214.677 312.35 215.093 312.35 215.584C312.35 216.075 312.179 216.512 311.838 216.896C311.507 217.28 311.054 217.579 310.478 217.792C309.902 217.995 309.267 218.096 308.574 218.096C307.966 218.096 307.368 218.011 306.782 217.84C306.195 217.659 305.683 217.397 305.246 217.056L305.63 216.208C306.014 216.496 306.462 216.72 306.974 216.88C307.486 217.04 308.003 217.12 308.526 217.12C309.304 217.12 309.939 216.976 310.43 216.688C310.931 216.389 311.182 215.989 311.182 215.488C311.182 215.04 310.979 214.693 310.574 214.448C310.168 214.192 309.614 214.064 308.91 214.064H307.47V213.232H308.846C309.475 213.232 309.982 213.115 310.366 212.88C310.75 212.635 310.942 212.309 310.942 211.904C310.942 211.456 310.723 211.104 310.286 210.848C309.859 210.592 309.299 210.464 308.606 210.464C307.699 210.464 306.803 210.693 305.918 211.152L305.598 210.272C306.6 209.749 307.64 209.488 308.718 209.488C309.358 209.488 309.934 209.584 310.446 209.776C310.968 209.957 311.374 210.219 311.662 210.56C311.96 210.901 312.11 211.296 312.11 211.744C312.11 212.171 311.96 212.549 311.662 212.88C311.374 213.211 310.979 213.456 310.478 213.616ZM318.401 218.08C317.59 218.08 316.859 217.899 316.209 217.536C315.558 217.163 315.046 216.651 314.673 216C314.299 215.349 314.113 214.613 314.113 213.792C314.113 212.971 314.299 212.235 314.673 211.584C315.046 210.933 315.558 210.427 316.209 210.064C316.859 209.701 317.59 209.52 318.401 209.52C319.211 209.52 319.942 209.701 320.593 210.064C321.243 210.427 321.75 210.933 322.113 211.584C322.486 212.235 322.673 212.971 322.673 213.792C322.673 214.613 322.486 215.349 322.113 216C321.75 216.651 321.243 217.163 320.593 217.536C319.942 217.899 319.211 218.08 318.401 218.08ZM318.401 217.072C318.998 217.072 319.531 216.939 320.001 216.672C320.481 216.395 320.854 216.005 321.121 215.504C321.387 215.003 321.521 214.432 321.521 213.792C321.521 213.152 321.387 212.581 321.121 212.08C320.854 211.579 320.481 211.195 320.001 210.928C319.531 210.651 318.998 210.512 318.401 210.512C317.803 210.512 317.265 210.651 316.785 210.928C316.315 211.195 315.942 211.579 315.664 212.08C315.398 212.581 315.265 213.152 315.265 213.792C315.265 214.432 315.398 215.003 315.664 215.504C315.942 216.005 316.315 216.395 316.785 216.672C317.265 216.939 317.803 217.072 318.401 217.072ZM329.18 209.792C329.959 209.792 330.652 209.968 331.26 210.32C331.879 210.661 332.359 211.147 332.7 211.776C333.042 212.395 333.212 213.104 333.212 213.904C333.212 214.725 333.031 215.456 332.668 216.096C332.316 216.725 331.82 217.216 331.18 217.568C330.54 217.92 329.804 218.096 328.972 218.096C327.575 218.096 326.492 217.605 325.724 216.624C324.956 215.643 324.572 214.288 324.572 212.56C324.572 210.757 324.914 209.376 325.596 208.416C326.29 207.456 327.367 206.805 328.828 206.464L332.604 205.6L332.796 206.64L329.244 207.456C328.039 207.723 327.154 208.197 326.588 208.88C326.023 209.552 325.714 210.549 325.66 211.872C326.002 211.221 326.476 210.715 327.084 210.352C327.692 209.979 328.391 209.792 329.18 209.792ZM329.004 217.152C329.591 217.152 330.114 217.019 330.572 216.752C331.042 216.475 331.404 216.091 331.66 215.6C331.927 215.109 332.06 214.555 332.06 213.936C332.06 213.317 331.932 212.773 331.676 212.304C331.42 211.835 331.058 211.472 330.588 211.216C330.13 210.949 329.602 210.816 329.004 210.816C328.407 210.816 327.874 210.949 327.404 211.216C326.946 211.472 326.583 211.835 326.316 212.304C326.06 212.773 325.932 213.317 325.932 213.936C325.932 214.555 326.06 215.109 326.316 215.6C326.583 216.091 326.951 216.475 327.42 216.752C327.89 217.019 328.418 217.152 329.004 217.152ZM335.647 209.584H336.783V216.272L342.399 209.584H343.407V218H342.271V211.312L336.671 218H335.647V209.584ZM353.543 209.584V218H352.407V210.592H348.375L348.263 212.672C348.178 214.421 347.975 215.765 347.655 216.704C347.335 217.643 346.764 218.112 345.943 218.112C345.719 218.112 345.447 218.069 345.127 217.984L345.207 217.008C345.399 217.051 345.532 217.072 345.607 217.072C346.044 217.072 346.375 216.869 346.599 216.464C346.823 216.059 346.972 215.557 347.047 214.96C347.122 214.363 347.186 213.573 347.239 212.592L347.383 209.584H353.543ZM356.772 209.584H357.908V216.272L363.524 209.584H364.532V218H363.396V211.312L357.796 218H356.772V209.584ZM374.252 209.584V218H373.212V215.216H370.572H370.252L368.3 218H367.068L369.164 215.056C368.513 214.875 368.012 214.565 367.66 214.128C367.308 213.691 367.132 213.136 367.132 212.464C367.132 211.525 367.452 210.811 368.092 210.32C368.732 209.829 369.607 209.584 370.716 209.584H374.252ZM368.284 212.496C368.284 213.744 369.079 214.368 370.668 214.368H373.212V210.592H370.748C369.105 210.592 368.284 211.227 368.284 212.496Z" fill="white"/>
<path d="M60.6 258.8V270H58.024V260.912H52.968V270H50.392V258.8H60.6ZM68.2564 261.264C69.0564 261.264 69.7817 261.451 70.4324 261.824C71.0937 262.187 71.611 262.704 71.9844 263.376C72.3577 264.037 72.5444 264.811 72.5444 265.696C72.5444 266.581 72.3577 267.36 71.9844 268.032C71.611 268.693 71.0937 269.211 70.4324 269.584C69.7817 269.947 69.0564 270.128 68.2564 270.128C67.1577 270.128 66.2937 269.781 65.6644 269.088V273.104H63.1684V261.392H65.5524V262.384C66.171 261.637 67.0724 261.264 68.2564 261.264ZM67.8244 268.08C68.4644 268.08 68.987 267.867 69.3924 267.44C69.8084 267.003 70.0164 266.421 70.0164 265.696C70.0164 264.971 69.8084 264.395 69.3924 263.968C68.987 263.531 68.4644 263.312 67.8244 263.312C67.1844 263.312 66.6564 263.531 66.2404 263.968C65.835 264.395 65.6324 264.971 65.6324 265.696C65.6324 266.421 65.835 267.003 66.2404 267.44C66.6564 267.867 67.1844 268.08 67.8244 268.08ZM82.6618 265.728C82.6618 265.76 82.6458 265.984 82.6138 266.4H76.1018C76.2191 266.933 76.4964 267.355 76.9338 267.664C77.3711 267.973 77.9151 268.128 78.5658 268.128C79.0138 268.128 79.4084 268.064 79.7498 267.936C80.1018 267.797 80.4271 267.584 80.7258 267.296L82.0538 268.736C81.2431 269.664 80.0591 270.128 78.5018 270.128C77.5311 270.128 76.6724 269.941 75.9258 269.568C75.1791 269.184 74.6031 268.656 74.1978 267.984C73.7924 267.312 73.5898 266.549 73.5898 265.696C73.5898 264.853 73.7871 264.096 74.1818 263.424C74.5871 262.741 75.1364 262.213 75.8298 261.84C76.5338 261.456 77.3178 261.264 78.1818 261.264C79.0244 261.264 79.7871 261.445 80.4698 261.808C81.1524 262.171 81.6858 262.693 82.0698 263.376C82.4644 264.048 82.6618 264.832 82.6618 265.728ZM78.1978 263.152C77.6324 263.152 77.1578 263.312 76.7738 263.632C76.3898 263.952 76.1551 264.389 76.0698 264.944H80.3098C80.2244 264.4 79.9898 263.968 79.6058 263.648C79.2218 263.317 78.7524 263.152 78.1978 263.152ZM92.975 270V264.848L90.399 269.168H89.343L86.831 264.832V270H84.575V261.392H87.183L89.935 266.368L92.863 261.392H95.199L95.231 270H92.975ZM97.6219 261.392H100.102V266.512L104.294 261.392H106.582V270H104.102V264.88L99.9259 270H97.6219V261.392ZM112.325 261.264C113.659 261.264 114.683 261.584 115.397 262.224C116.112 262.853 116.469 263.808 116.469 265.088V270H114.133V268.928C113.664 269.728 112.789 270.128 111.509 270.128C110.848 270.128 110.272 270.016 109.781 269.792C109.301 269.568 108.933 269.259 108.677 268.864C108.421 268.469 108.293 268.021 108.293 267.52C108.293 266.72 108.592 266.091 109.189 265.632C109.797 265.173 110.731 264.944 111.989 264.944H113.973C113.973 264.4 113.808 263.984 113.477 263.696C113.147 263.397 112.651 263.248 111.989 263.248C111.531 263.248 111.077 263.323 110.629 263.472C110.192 263.611 109.819 263.803 109.509 264.048L108.613 262.304C109.083 261.973 109.643 261.717 110.293 261.536C110.955 261.355 111.632 261.264 112.325 261.264ZM112.133 268.448C112.56 268.448 112.939 268.352 113.269 268.16C113.6 267.957 113.835 267.664 113.973 267.28V266.4H112.261C111.237 266.4 110.725 266.736 110.725 267.408C110.725 267.728 110.848 267.984 111.093 268.176C111.349 268.357 111.696 268.448 112.133 268.448ZM126.894 261.392V270H124.398V263.44H121.678L121.598 264.96C121.555 266.091 121.448 267.029 121.278 267.776C121.107 268.523 120.83 269.109 120.446 269.536C120.062 269.963 119.528 270.176 118.846 270.176C118.483 270.176 118.051 270.112 117.55 269.984L117.678 267.936C117.848 267.957 117.971 267.968 118.046 267.968C118.419 267.968 118.696 267.835 118.878 267.568C119.07 267.291 119.198 266.944 119.262 266.528C119.326 266.101 119.374 265.541 119.406 264.848L119.534 261.392H126.894ZM133.95 264.144C135.07 264.155 135.928 264.411 136.526 264.912C137.123 265.403 137.422 266.101 137.422 267.008C137.422 267.957 137.086 268.699 136.414 269.232C135.752 269.755 134.819 270.016 133.614 270.016L129.294 270V261.392H131.774V264.144H133.95ZM133.39 268.24C133.87 268.251 134.238 268.149 134.494 267.936C134.75 267.723 134.878 267.403 134.878 266.976C134.878 266.56 134.75 266.256 134.494 266.064C134.248 265.872 133.88 265.771 133.39 265.76L131.774 265.744V268.24H133.39ZM138.981 261.392H141.461V264.752H145.205V261.392H147.701V270H145.205V266.784H141.461V270H138.981V261.392ZM154.619 264.144C155.739 264.155 156.587 264.405 157.163 264.896C157.739 265.387 158.027 266.091 158.027 267.008C158.027 267.968 157.701 268.709 157.051 269.232C156.4 269.755 155.477 270.016 154.283 270.016L150.091 270V261.392H152.571V264.144H154.619ZM158.955 261.392H161.435V270H158.955V261.392ZM154.059 268.24C154.539 268.251 154.907 268.149 155.163 267.936C155.419 267.723 155.547 267.403 155.547 266.976C155.547 266.56 155.419 266.256 155.163 266.064C154.917 265.872 154.549 265.771 154.059 265.76L152.571 265.744V268.24H154.059ZM172.209 265.728C172.209 265.76 172.193 265.984 172.161 266.4H165.649C165.766 266.933 166.043 267.355 166.481 267.664C166.918 267.973 167.462 268.128 168.113 268.128C168.561 268.128 168.955 268.064 169.297 267.936C169.649 267.797 169.974 267.584 170.273 267.296L171.601 268.736C170.79 269.664 169.606 270.128 168.049 270.128C167.078 270.128 166.219 269.941 165.473 269.568C164.726 269.184 164.15 268.656 163.745 267.984C163.339 267.312 163.137 266.549 163.137 265.696C163.137 264.853 163.334 264.096 163.729 263.424C164.134 262.741 164.683 262.213 165.377 261.84C166.081 261.456 166.865 261.264 167.729 261.264C168.571 261.264 169.334 261.445 170.017 261.808C170.699 262.171 171.233 262.693 171.617 263.376C172.011 264.048 172.209 264.832 172.209 265.728ZM167.745 263.152C167.179 263.152 166.705 263.312 166.321 263.632C165.937 263.952 165.702 264.389 165.617 264.944H169.857C169.771 264.4 169.537 263.968 169.153 263.648C168.769 263.317 168.299 263.152 167.745 263.152ZM55.176 281.984C55.9973 281.984 56.7173 282.155 57.336 282.496C57.9547 282.827 58.4293 283.296 58.76 283.904C59.1013 284.512 59.272 285.216 59.272 286.016C59.272 286.837 59.0693 287.568 58.664 288.208C58.2693 288.837 57.7147 289.328 57 289.68C56.2853 290.021 55.4747 290.192 54.568 290.192C53.064 290.192 51.88 289.712 51.016 288.752C50.1627 287.781 49.736 286.363 49.736 284.496C49.736 282.768 50.1093 281.392 50.856 280.368C51.6133 279.333 52.7707 278.656 54.328 278.336L58.424 277.52L58.76 279.664L55.144 280.384C54.1627 280.576 53.432 280.896 52.952 281.344C52.4827 281.792 52.2053 282.427 52.12 283.248C52.4933 282.843 52.9413 282.533 53.464 282.32C53.9867 282.096 54.5573 281.984 55.176 281.984ZM54.584 288.256C55.224 288.256 55.736 288.048 56.12 287.632C56.5147 287.216 56.712 286.688 56.712 286.048C56.712 285.397 56.5147 284.88 56.12 284.496C55.736 284.112 55.224 283.92 54.584 283.92C53.9333 283.92 53.4107 284.112 53.016 284.496C52.6213 284.88 52.424 285.397 52.424 286.048C52.424 286.699 52.6267 287.232 53.032 287.648C53.4373 288.053 53.9547 288.256 54.584 288.256ZM64.9976 290.128C64.091 290.128 63.275 289.941 62.5496 289.568C61.835 289.184 61.275 288.656 60.8696 287.984C60.4643 287.312 60.2616 286.549 60.2616 285.696C60.2616 284.843 60.4643 284.08 60.8696 283.408C61.275 282.736 61.835 282.213 62.5496 281.84C63.275 281.456 64.091 281.264 64.9976 281.264C65.9043 281.264 66.715 281.456 67.4296 281.84C68.1443 282.213 68.7043 282.736 69.1096 283.408C69.515 284.08 69.7176 284.843 69.7176 285.696C69.7176 286.549 69.515 287.312 69.1096 287.984C68.7043 288.656 68.1443 289.184 67.4296 289.568C66.715 289.941 65.9043 290.128 64.9976 290.128ZM64.9976 288.08C65.6376 288.08 66.1603 287.867 66.5656 287.44C66.9816 287.003 67.1896 286.421 67.1896 285.696C67.1896 284.971 66.9816 284.395 66.5656 283.968C66.1603 283.531 65.6376 283.312 64.9976 283.312C64.3576 283.312 63.8296 283.531 63.4136 283.968C62.9976 284.395 62.7896 284.971 62.7896 285.696C62.7896 286.421 62.9976 287.003 63.4136 287.44C63.8296 287.867 64.3576 288.08 64.9976 288.08ZM71.4344 281.392H73.9144V284.752H77.6584V281.392H80.1544V290H77.6584V286.784H73.9144V290H71.4344V281.392ZM91.1678 281.392L87.2798 290.528C86.8851 291.52 86.3944 292.219 85.8078 292.624C85.2318 293.029 84.5331 293.232 83.7118 293.232C83.2638 293.232 82.8211 293.163 82.3838 293.024C81.9464 292.885 81.5891 292.693 81.3117 292.448L82.2238 290.672C82.4158 290.843 82.6344 290.976 82.8798 291.072C83.1358 291.168 83.3864 291.216 83.6318 291.216C83.9731 291.216 84.2504 291.131 84.4638 290.96C84.6771 290.8 84.8691 290.528 85.0398 290.144L85.0718 290.064L81.3438 281.392H83.9198L86.3358 287.232L88.7678 281.392H91.1678ZM96.2335 290.128C95.3162 290.128 94.4895 289.941 93.7535 289.568C93.0282 289.184 92.4575 288.656 92.0415 287.984C91.6362 287.312 91.4335 286.549 91.4335 285.696C91.4335 284.843 91.6362 284.08 92.0415 283.408C92.4575 282.736 93.0282 282.213 93.7535 281.84C94.4895 281.456 95.3162 281.264 96.2335 281.264C97.1402 281.264 97.9295 281.456 98.6015 281.84C99.2842 282.213 99.7802 282.752 100.09 283.456L98.1535 284.496C97.7055 283.707 97.0602 283.312 96.2175 283.312C95.5668 283.312 95.0282 283.525 94.6015 283.952C94.1748 284.379 93.9615 284.96 93.9615 285.696C93.9615 286.432 94.1748 287.013 94.6015 287.44C95.0282 287.867 95.5668 288.08 96.2175 288.08C97.0708 288.08 97.7162 287.685 98.1535 286.896L100.09 287.952C99.7802 288.635 99.2842 289.168 98.6015 289.552C97.9295 289.936 97.1402 290.128 96.2335 290.128ZM106.134 284.144C107.254 284.155 108.102 284.405 108.678 284.896C109.254 285.387 109.542 286.091 109.542 287.008C109.542 287.968 109.217 288.709 108.566 289.232C107.916 289.755 106.993 290.016 105.798 290.016L101.606 290V281.392H104.086V284.144H106.134ZM110.47 281.392H112.95V290H110.47V281.392ZM105.574 288.24C106.054 288.251 106.422 288.149 106.678 287.936C106.934 287.723 107.062 287.403 107.062 286.976C107.062 286.56 106.934 286.256 106.678 286.064C106.433 285.872 106.065 285.771 105.574 285.76L104.086 285.744V288.24H105.574Z" fill="white"/>
<path d="M24.7999 267.8H16.2V259.2C16.2 257.985 15.2145 257 13.9999 257C12.7854 257 11.8 257.985 11.8 259.2V267.8H3.19992C1.98538 267.8 1 268.785 1 270C1 271.215 1.98527 272.2 3.19992 272.2H11.8V280.8C11.8 282.014 12.7852 283 13.9999 283C15.2146 283 16.2 282.015 16.2 280.8V272.2H24.7999C26.0146 272.2 27 271.215 27 270C27 268.785 26.0145 267.8 24.7999 267.8Z" fill="url(#paint0_linear)" stroke="url(#paint1_linear)" stroke-width="2"/>
<defs>
<linearGradient id="paint0_linear" x1="2" y1="258" x2="26" y2="283.714" gradientUnits="userSpaceOnUse">
<stop stop-color="#F0A542"/>
<stop stop-color="#F0A542"/>
<stop offset="1" stop-color="#F0DF42"/>
</linearGradient>
<linearGradient id="paint1_linear" x1="6" y1="258" x2="19.7143" y2="278" gradientUnits="userSpaceOnUse">
<stop stop-color="#F09642"/>
<stop offset="1" stop-color="#F0DF42"/>
</linearGradient>
</defs>
</svg>
